<svg width="516" height="519" viewBox="0 0 516 519" fill="none" xmlns="http://www.w3.org/2000/svg">
<path d="M258.054 517.209C399.961 517.209 515 401.717 515 259.251C515 116.785 399.961 1.29297 258.054 1.29297C116.146 1.29297 1.10742 116.785 1.10742 259.251C1.10742 401.717 116.146 517.209 258.054 517.209Z" stroke="#09282B" stroke-width="1.78604" stroke-miterlimit="10"/>
<path d="M196.797 54.7314C196.149 55.88 196.056 57.3157 196.519 58.9429C196.89 60.283 197.631 61.3359 198.835 62.1973C200.039 62.9631 201.984 63.8245 204.67 64.5903L209.115 65.9303C211.431 66.6003 213.191 67.5575 214.487 68.6104C215.784 69.6633 216.71 71.1948 217.173 73.0134C217.729 75.0235 217.729 76.9378 217.173 78.7565C216.617 80.5751 215.691 82.0109 214.302 83.2552C213.005 84.4995 211.431 85.361 209.764 85.8396C207.17 86.6053 204.762 86.3182 202.539 85.1696C200.317 84.021 198.372 82.2023 196.797 79.8094L200.502 75.9807C202.169 78.9479 203.929 81.0537 205.688 82.1066C207.448 83.1595 209.115 83.5424 210.69 83.0638C212.264 82.5852 213.376 81.8194 214.117 80.6708C214.858 79.5222 214.95 78.1822 214.58 76.6507C214.209 75.1192 213.468 73.9706 212.635 73.1091C211.709 72.2477 210.041 71.4819 207.819 70.7162L202.169 68.9933C200.687 68.5147 199.39 68.0361 198.279 67.4618C197.168 66.8875 196.241 66.2175 195.408 65.2603C194.574 64.3031 194.019 63.2502 193.648 61.9102C193.185 60.1873 193.185 58.3686 193.741 56.55C194.296 54.7314 195.315 53.1999 196.797 51.7641C198.279 50.4241 200.131 49.3712 202.447 48.7011C205.318 47.9354 207.726 47.6482 209.578 47.9354L210.597 56.1671C208.837 54.3485 207.078 53.0084 205.225 52.4341C203.373 51.8598 201.613 51.7641 199.946 52.147C198.464 52.5298 197.445 53.2956 196.797 54.5399V54.7314Z" fill="#09282B"/>
<path d="M223.127 77.5605C223.127 76.172 223.127 74.5852 222.83 72.8992L220.26 53.659C219.963 51.6755 219.666 50.0886 219.271 48.7002C218.875 47.3117 218.282 45.9232 217.59 44.7331L224.314 43.8405C224.314 45.229 224.511 46.7166 224.709 48.3035C224.907 49.8903 225.105 51.4771 225.203 52.9647L227.774 72.205C228.17 75.4778 228.763 78.4531 229.554 81.23L222.633 82.2218C223.028 80.5358 223.226 79.0481 223.226 77.6597L223.127 77.5605ZM236.08 47.1133C234.894 46.2208 233.509 45.6257 231.828 45.3282C230.147 45.0306 228.071 45.0306 225.5 45.3282L222.534 45.7249L222.336 44.0389L238.75 41.7578L239.739 50.6837C238.552 49.0969 237.267 47.9067 236.179 47.0142L236.08 47.1133ZM234.103 62.5849C232.619 62.2873 230.543 62.2873 227.873 62.5849L223.72 63.1799L223.523 61.4939L227.675 60.8989C230.345 60.5022 232.422 60.0063 233.707 59.2129C235.091 58.4194 236.278 57.2293 237.464 55.345L238.75 64.9651C237.168 63.6758 235.586 62.8824 234.103 62.5849ZM227.181 79.8416L230.147 79.4449C232.718 79.1473 234.696 78.5523 236.179 77.858C237.662 77.1638 238.849 76.172 239.739 75.0811C240.628 73.9901 241.518 72.3041 242.507 70.2214L243.891 79.3457L227.478 81.5276L227.28 79.8416H227.181Z" fill="#09282B"/>
<path d="M252.449 41.8517L276.262 42.6025L275.983 52.2701C275.146 49.9236 274.401 48.1403 273.564 47.014C272.82 45.8876 271.797 45.0429 270.494 44.6675C269.192 44.292 267.425 43.9166 265.099 43.8227H263.332C261.006 43.7289 259.146 43.8227 257.844 44.1982C256.541 44.5736 255.518 45.3245 254.681 46.3569C253.844 47.3894 252.914 49.1727 251.983 51.4254L252.355 41.7578L252.449 41.8517ZM260.727 73.5763C261.006 72.2622 261.099 70.7605 261.192 69.1649L262.03 42.5087L266.681 42.6964L265.843 69.3526C265.843 70.8543 265.843 72.1684 265.936 73.2947C266.123 74.8903 266.495 76.5798 267.053 78.1754L259.518 77.8938C260.076 76.3921 260.541 74.9842 260.727 73.6701V73.5763Z" fill="#09282B"/>
<path d="M283.136 71.2697C283.136 73.4557 283.621 75.2443 284.688 76.6355C285.755 78.0266 287.307 78.8215 289.441 79.219L287.404 82.0013C284.106 81.4051 281.681 80.1133 280.323 78.126C278.965 76.1386 278.286 73.7538 278.286 71.071C278.286 70.1767 278.286 69.183 278.577 67.9906L281.487 50.5021C281.778 48.8128 281.875 47.3223 281.875 45.9312C281.875 44.6394 281.681 43.2483 281.487 41.7578L289.15 43.0496C288.374 44.5401 287.695 45.8318 287.404 47.0242C287.016 48.2166 286.725 49.6078 286.434 51.3964L283.427 69.0836C283.33 69.8786 283.233 70.6735 283.233 71.3691L283.136 71.2697ZM296.717 79.9146C294.583 82.0013 291.478 82.6968 287.404 81.9019L289.441 79.1196C291.867 79.5171 293.904 79.1196 295.456 77.8279C297.008 76.5361 298.075 74.4494 298.56 71.6672L301.567 53.9799C301.858 52.2907 301.955 50.7008 301.955 49.2103C301.955 47.9185 301.664 46.5274 301.276 45.0369L306.611 46.0306C305.738 47.6204 305.059 49.0116 304.671 50.204C304.283 51.3964 303.895 52.7875 303.604 54.278L300.694 71.6672C300.112 75.0456 298.754 77.7285 296.62 79.8152L296.717 79.9146Z" fill="#09282B"/>
<path d="M311.315 82.0638C312.01 80.9316 312.606 79.5164 313.202 77.9126L319.755 60.5529C320.45 58.7603 320.847 57.2508 321.046 56.0243C321.245 54.6091 321.443 53.1939 321.344 51.873L327.798 54.043C327.202 55.3639 326.607 56.6847 326.011 58.0055C325.514 59.3264 324.919 60.5529 324.422 61.8737V62.1568L317.769 79.5164C317.769 79.5164 317.769 79.5164 317.769 79.7051C317.173 81.1203 316.876 82.4412 316.677 83.479C316.379 84.9885 316.18 86.5924 316.28 88.2906L308.634 85.7433C309.726 84.5168 310.62 83.2903 311.315 82.0638ZM327.5 74.2331C326.309 73.2896 324.422 72.3461 321.94 71.497L318.067 70.1762L318.663 68.6666L322.535 69.9875C325.117 70.8366 327.203 71.3083 328.692 71.214C330.181 71.1196 331.969 70.6479 333.756 69.6101L330.479 78.2899C329.685 76.4974 328.692 75.1765 327.5 74.2331ZM334.749 59.8925C333.359 58.1942 331.174 56.8734 328.096 55.8356L325.514 54.8921L326.11 53.3826L341.005 58.4773L337.728 66.4967C337.232 63.7606 336.239 61.5907 334.849 59.8925H334.749Z" fill="#09282B"/>
<path d="M336.172 93.5764C335.122 91.1603 334.74 88.4542 335.027 85.3615C335.313 82.2688 336.363 78.9829 338.081 75.6969C339.704 72.5076 341.709 69.9948 343.999 67.9653C346.29 65.9357 348.772 64.6793 351.445 64.1961C354.118 63.7128 356.599 64.1961 359.177 65.4525C361.372 66.6122 362.995 68.3518 364.045 70.768C365.095 73.1841 365.477 75.9869 365.191 79.0795C364.904 82.2688 363.854 85.4581 362.136 88.8407C360.513 91.9334 358.509 94.5428 356.218 96.4758C353.927 98.4087 351.445 99.7617 348.772 100.245C346.099 100.728 343.522 100.245 341.04 98.9886C338.845 97.8288 337.222 95.9925 336.077 93.673L336.172 93.5764ZM347.722 97.9255C349.249 97.3456 350.777 96.2825 352.209 94.6395C353.64 92.9965 355.072 90.8703 356.313 88.3575C358.222 84.5883 359.559 81.2057 360.131 78.2097C360.704 75.2137 360.704 72.7009 360.131 70.768C359.559 68.8351 358.509 67.3854 356.886 66.5156C355.359 65.7424 353.927 65.5491 352.399 66.0323C350.872 66.5156 349.44 67.5787 348.009 69.2217C346.577 70.8646 345.145 72.9908 343.809 75.6969C342.09 79.0795 340.849 82.1722 340.181 85.2649C339.513 88.2609 339.418 90.8703 339.895 92.9965C340.372 95.1227 341.422 96.6691 343.14 97.5389C344.668 98.312 346.099 98.4087 347.627 97.9255H347.722Z" fill="#09282B"/>
<path d="M360.415 104.882C361.336 103.914 362.35 102.753 363.271 101.399L374.047 86.207C375.06 84.8523 375.797 83.5944 376.35 82.5301C377.087 81.0786 377.639 79.6272 378.008 78.1758L383.074 82.0462C381.324 84.175 379.85 86.1102 378.745 87.6584L377.824 89.0131L367.047 104.301C366.218 105.463 365.573 106.527 365.021 107.495C364.192 109.043 363.639 110.688 363.178 112.429L357.191 107.785C358.481 106.914 359.586 105.946 360.599 104.979L360.415 104.882ZM371.376 97.2378L374.324 99.5601C375.337 100.334 376.35 100.915 377.455 101.108C378.561 101.399 379.574 101.302 380.679 100.818C381.784 100.431 382.89 99.5601 383.903 98.399C384.087 98.2054 384.363 97.8184 384.732 97.3346C386.574 94.722 387.403 92.3997 387.311 90.3678C387.219 88.3358 386.206 86.4973 384.179 84.9491C381.969 83.3042 380.311 82.143 379.113 81.5624L381.324 80.7883L386.021 84.4653C388.508 86.4005 390.258 88.626 391.179 91.2386C392.101 93.7544 391.456 96.6573 389.245 99.7536C388.232 101.205 387.034 102.269 385.653 103.044C384.271 103.818 382.798 104.205 381.324 104.205C379.85 104.205 378.468 104.011 377.179 103.431L375.521 102.656C373.771 101.302 372.021 99.9472 370.271 98.5925L371.284 97.3346L371.376 97.2378ZM375.521 103.14C375.521 103.14 375.06 102.173 374.508 101.786L378.008 102.463C378.837 103.044 379.297 103.624 379.666 104.205C379.942 104.785 380.126 105.366 380.034 106.043C380.034 106.72 379.758 107.495 379.482 108.559L376.903 116.397C376.534 117.461 376.35 118.429 376.258 119.3C376.166 120.17 376.074 121.235 376.074 122.686L371.008 118.816L375.153 105.753C375.521 104.592 375.613 103.818 375.521 103.334V103.14Z" fill="#09282B"/>
<path d="M377.097 125.421C377.684 124.754 378.272 123.992 378.566 123.136C378.957 122.279 379.153 121.517 379.153 120.66C380.817 121.136 382.873 121.517 385.516 121.898C385.32 123.231 384.733 124.469 383.656 125.611C382.775 126.563 381.698 127.325 380.425 127.896C379.153 128.467 377.88 128.753 376.608 128.753C375.335 128.753 374.258 128.467 373.377 127.801C374.845 127.325 376.02 126.563 377.097 125.516V125.421Z" fill="#09282B"/>
<path d="M391.788 130.958C392.973 130.174 394.258 129.292 395.542 128.117L410.166 115.576C411.648 114.302 412.834 113.126 413.723 112.049C414.612 110.971 415.403 109.795 416.094 108.521L420.541 113.616C419.454 114.4 418.268 115.282 416.984 116.262C415.699 117.241 414.514 118.221 413.328 119.201L398.704 131.742C396.234 133.897 394.06 135.955 392.084 138.11L387.539 132.917C389.12 132.33 390.503 131.644 391.689 130.958H391.788ZM392.084 135.465L393.962 137.718C395.641 139.678 397.222 141.049 398.605 141.833C399.989 142.617 401.471 143.107 402.854 143.205C404.237 143.303 406.115 143.205 408.387 142.911L401.471 148.985L390.701 136.641L391.985 135.465H392.084ZM410.265 132.036C409.771 130.566 408.585 128.9 406.806 126.843L404.04 123.708L405.324 122.63L408.091 125.765C409.869 127.823 411.45 129.194 412.834 129.88C414.217 130.566 415.897 130.958 418.071 130.958L410.759 137.13C410.956 135.171 410.759 133.407 410.265 131.938V132.036ZM424.295 125.373C424.295 123.904 424.098 122.434 423.406 120.866C422.715 119.299 421.628 117.535 419.948 115.576L417.972 113.322L419.256 112.245L430.026 124.687L423.011 130.37C423.703 128.509 424.098 126.843 424.197 125.471L424.295 125.373Z" fill="#09282B"/>
<path d="M414.64 151.534C413.105 152.976 412.145 154.513 411.953 156.147C411.761 157.78 412.145 159.51 413.297 161.335L409.937 161.624C408.113 158.837 407.442 156.243 407.921 153.937C408.401 151.631 409.649 149.613 411.569 147.787C412.241 147.21 413.009 146.634 413.969 145.961L428.366 136.641C429.71 135.776 430.862 134.815 431.918 133.854C432.878 132.989 433.742 131.932 434.605 130.779L438.733 137.217C437.101 137.602 435.757 137.986 434.702 138.562C433.646 139.043 432.398 139.716 430.958 140.676L416.368 150.093C415.696 150.477 415.12 150.958 414.64 151.438V151.534ZM417.52 167.197C414.64 167.005 412.049 165.179 409.841 161.72L413.201 161.432C414.544 163.449 416.176 164.699 418.096 164.987C420.016 165.275 422.223 164.699 424.623 163.161L439.213 153.744C440.653 152.88 441.804 151.919 442.86 150.958C443.724 149.997 444.588 148.94 445.356 147.787L448.235 152.303C446.508 152.688 445.068 153.072 443.916 153.552C442.764 154.033 441.516 154.705 440.269 155.474L425.967 164.699C423.183 166.524 420.4 167.293 417.52 167.101V167.197Z" fill="#09282B"/>
<path d="M451.061 166.435C452.036 165.372 452.914 164.308 453.499 163.148L457.009 171.656C457.009 171.656 456.034 171.752 455.254 171.946C454.571 172.139 453.791 172.332 453.011 172.719C451.451 173.299 450.184 174.072 449.013 174.942L429.123 190.99L428.44 189.346L453.986 186.833C454.766 186.833 455.546 186.64 456.326 186.446C457.106 186.253 457.886 185.963 458.569 185.673C459.349 185.383 460.031 184.996 460.616 184.706C461.201 184.416 461.591 183.933 461.884 183.546L464.419 189.636C463.054 189.153 461.689 188.96 460.129 188.863C458.666 188.863 456.814 188.863 454.571 188.96L425.028 191.473L423.955 189.056L446.771 170.205C448.526 168.755 449.891 167.402 450.964 166.435H451.061Z" fill="#09282B"/>
<path d="M433.063 208.834C434.143 206.441 436.008 204.335 438.56 202.517C441.112 200.698 444.252 199.358 447.982 198.401C451.516 197.54 454.755 197.348 457.895 197.731C461.036 198.114 463.686 199.167 465.846 200.794C468.005 202.421 469.477 204.622 470.164 207.398C470.753 209.791 470.557 212.184 469.477 214.577C468.398 216.97 466.533 219.075 463.883 220.894C461.233 222.713 458.092 224.148 454.46 225.01C451.025 225.871 447.688 226.063 444.547 225.68C441.406 225.297 438.854 224.244 436.695 222.617C434.535 220.99 433.063 218.788 432.376 216.013C431.787 213.62 431.983 211.227 433.063 208.834ZM437.676 220.32C439.149 221.085 441.013 221.468 443.271 221.468C445.528 221.468 448.08 221.085 450.828 220.415C454.951 219.363 458.386 218.118 461.134 216.587C463.785 215.055 465.748 213.428 466.827 211.705C467.907 209.983 468.299 208.26 467.809 206.537C467.416 204.91 466.533 203.665 465.06 202.9C463.686 202.134 461.821 201.751 459.662 201.751C457.503 201.751 454.853 202.134 451.908 202.804C448.178 203.761 444.939 204.91 442.191 206.441C439.443 207.877 437.382 209.6 436.106 211.323C434.83 213.141 434.437 214.96 434.83 216.683C435.222 218.31 436.204 219.554 437.676 220.32Z" fill="#09282B"/>
<path d="M447.088 236.863C444.983 237.351 443.452 238.326 442.495 239.692C441.538 241.057 441.06 242.812 441.251 244.958L438.189 243.593C437.902 240.179 438.477 237.546 440.008 235.79C441.538 233.937 443.548 232.767 446.131 232.084C446.992 231.889 447.949 231.694 449.098 231.597L466.129 230.134C467.756 229.939 469.191 229.744 470.531 229.354C471.775 229.061 473.019 228.573 474.358 227.891L475.028 235.595C473.497 235.205 472.062 234.913 470.914 234.815C469.765 234.815 468.33 234.815 466.608 234.913L449.385 236.376C448.619 236.376 447.854 236.571 447.184 236.766L447.088 236.863ZM442.495 252.273C440.008 250.712 438.668 247.884 438.285 243.69L441.347 245.056C441.538 247.494 442.495 249.347 444.026 250.615C445.653 251.883 447.758 252.37 450.628 252.078L467.852 250.517C469.574 250.322 471.009 250.127 472.349 249.737C473.593 249.347 474.741 248.762 476.081 248.079L476.559 253.541C474.837 253.053 473.401 252.76 472.157 252.663C470.914 252.565 469.574 252.565 468.043 252.663L451.107 254.126C447.854 254.418 444.983 253.736 442.495 252.273Z" fill="#09282B"/>
<path d="M439.22 261.073C439.91 260.506 440.698 260.264 441.585 260.264C442.57 260.264 443.358 260.587 444.048 261.073C444.737 261.639 445.033 262.287 444.934 263.096C444.836 263.905 444.54 264.553 443.851 265.038C443.161 265.524 442.373 265.848 441.388 265.767C440.501 265.767 439.713 265.443 439.023 264.877C438.334 264.31 438.038 263.663 438.137 262.853C438.137 262.044 438.531 261.397 439.122 260.911L439.22 261.073ZM448.875 263.015C450.156 262.772 451.338 262.611 452.619 262.449C453.9 262.287 455.082 262.206 456.363 262.044C457.643 261.882 458.826 261.882 460.106 261.801C461.387 261.801 462.668 261.639 464.047 261.639H464.146C469.466 261.478 473.603 261.235 476.559 261.073V266.333C473.406 266.09 469.367 265.767 464.047 265.362C460.894 265.119 458.037 264.877 455.574 264.634C453.111 264.31 450.55 263.905 448.087 263.339H447.693L448.875 263.015Z" fill="#09282B"/>
<path d="M468.477 305.859C469.954 305.662 471.332 305.267 472.514 304.773L469.954 313.853C469.954 313.853 469.068 313.36 468.379 313.064C467.69 312.768 467.001 312.57 466.114 312.274C464.539 311.879 463.062 311.583 461.586 311.583L435.693 312.077L436.185 310.399L458.041 324.216C458.73 324.611 459.42 325.005 460.109 325.4C460.896 325.696 461.586 325.992 462.373 326.19C463.161 326.387 463.948 326.584 464.638 326.683C465.327 326.683 465.918 326.683 466.41 326.585L464.539 333.098C463.752 331.914 462.767 330.828 461.684 329.841C460.503 328.854 459.026 327.67 457.155 326.486L432.05 310.103L432.837 307.537L462.767 306.55C465.13 306.55 467 306.254 468.477 306.056V305.859Z" fill="#09282B"/>
<path d="M430.662 325.533C431.863 326.195 433.365 326.857 434.967 327.519L453.186 334.325C454.888 334.987 456.39 335.365 457.591 335.649C459.293 336.027 460.894 336.122 462.396 336.216L459.493 343.212C458.191 342.172 456.99 341.227 455.689 340.565C454.387 339.903 452.986 339.242 451.384 338.674L433.165 331.867C431.463 331.206 429.961 330.827 428.76 330.544C427.158 330.26 425.557 330.071 423.955 329.977L426.858 322.98C428.159 324.02 429.361 324.966 430.662 325.628V325.533Z" fill="#09282B"/>
<path d="M427.395 333.173C428.277 334.379 429.551 335.887 431.119 337.495L452.281 359.009L451.008 361.422L421.615 356.194C419.264 355.792 417.402 355.591 415.932 355.491C414.463 355.491 413.091 355.491 411.817 355.792L416.128 347.247C416.128 347.247 416.912 347.951 417.5 348.353C418.088 348.755 418.774 349.157 419.557 349.559C421.027 350.363 422.399 350.866 423.868 351.168L449.244 356.094L448.46 357.702L429.845 339.305C429.355 338.802 428.669 338.199 427.983 337.697C427.298 337.194 426.612 336.792 425.926 336.39C425.142 335.987 424.456 335.686 423.868 335.485C423.281 335.284 422.693 335.183 422.203 335.183L425.338 329.051C425.828 330.358 426.612 331.665 427.493 332.871L427.395 333.173ZM427.885 354.787L426.416 353.983L433.176 340.612L434.646 341.416L427.885 354.787Z" fill="#09282B"/>
<path d="M411.365 378.264C412.813 378.839 413.972 379.223 415.034 379.223C416.097 379.223 417.159 379.223 418.318 378.935L413.296 385.937L399.679 376.25C399.775 374.715 400.162 373.18 400.741 371.55C401.321 369.919 402.19 368.385 403.252 366.85L401.997 372.605C405.956 375.386 409.047 377.305 411.365 378.168V378.264ZM409.433 362.15C411.944 361.287 414.648 361.191 417.642 361.862C420.539 362.534 423.63 363.877 426.624 366.083C429.714 368.289 432.129 370.783 433.77 373.66C435.412 376.442 436.185 379.319 436.088 382.292C436.088 385.17 435.026 387.951 433.191 390.541C431.646 392.747 429.714 394.473 427.493 395.816L421.698 389.774C424.402 390.157 426.72 389.965 428.555 389.294C430.39 388.623 431.839 387.472 432.998 385.841C433.964 384.498 434.35 383.156 434.157 381.717C433.964 380.278 433.288 378.743 431.935 377.113C430.583 375.482 428.555 373.66 425.948 371.838C422.954 369.727 420.056 368.289 417.159 367.426C414.262 366.562 411.558 366.37 409.24 366.85C406.922 367.33 405.087 368.481 403.832 370.207C403.252 370.974 402.769 371.742 402.383 372.605C401.997 373.372 401.61 374.235 401.321 375.195C401.321 375.482 401.224 375.77 401.127 375.962L403.349 367.042C404.99 364.74 407.115 363.109 409.626 362.246L409.433 362.15Z" fill="#09282B"/>
<path d="M394.265 382.243L392.166 384.368C390.366 386.202 389.166 387.844 388.467 389.293C387.767 390.741 387.467 392.19 387.467 393.542C387.467 394.894 387.767 396.729 388.367 398.853L381.469 392.769L392.965 381.084L394.265 382.243ZM398.763 381.47C399.663 382.533 400.763 383.692 401.963 384.85L416.158 397.791C417.558 399.143 418.957 400.109 420.057 400.881C421.257 401.654 422.556 402.33 423.956 402.813L419.257 407.642C418.358 406.676 417.258 405.614 416.158 404.455C415.059 403.392 413.859 402.233 412.759 401.268L398.564 388.327C396.164 386.106 393.765 384.174 391.466 382.533L396.264 377.607C397.064 379.056 397.864 380.408 398.763 381.47ZM399.663 399.529C401.063 398.853 402.662 397.598 404.562 395.667L407.461 392.673L408.661 393.832L405.761 396.825C403.862 398.757 402.662 400.399 402.063 401.847C401.463 403.296 401.263 404.938 401.563 407.062L394.465 400.592C396.564 400.592 398.264 400.302 399.663 399.626V399.529ZM407.861 412.47C409.26 412.47 410.76 411.987 412.359 411.215C413.859 410.442 415.558 409.09 417.358 407.255L419.457 405.131L420.757 406.29L409.26 418.071L402.862 411.891C404.862 412.374 406.561 412.567 407.961 412.47H407.861Z" fill="#09282B"/>
<path d="M363.45 408.341L366.104 406.207L398.702 420.171L397.66 420.947L383.445 402.716C382.403 401.456 381.361 400.292 380.318 399.419C379.371 398.547 378.233 397.771 377.096 397.092L381.171 393.795C381.74 395.443 382.403 396.898 382.972 398.062C383.54 399.128 384.298 400.292 385.151 401.456L397.66 417.456C398.797 418.911 399.934 420.074 400.977 420.947C401.829 421.723 402.777 422.305 403.725 422.693L398.039 427.347C397.944 426.669 397.66 426.087 397.281 425.602C396.997 425.214 396.618 424.923 396.144 424.632C395.67 424.341 395.101 424.05 394.248 423.759L367.43 412.317L368.378 411.541L382.308 429.384C383.256 430.548 384.203 431.614 385.246 432.584C386.004 433.263 387.141 434.135 388.657 435.008L384.583 438.305C384.014 436.657 383.445 435.202 382.877 434.135C382.308 433.069 381.55 431.905 380.602 430.644L363.261 408.341H363.45Z" fill="#09282B"/>
<path d="M370.877 440.466C371.155 439.207 370.877 437.754 370.137 436.301C369.397 435.042 368.471 434.267 367.083 433.783C365.695 433.299 363.66 433.105 360.884 433.008H356.257C353.851 432.911 351.908 432.524 350.335 431.846C348.762 431.168 347.467 430.006 346.541 428.262C345.523 426.422 344.968 424.581 345.061 422.644C345.153 420.707 345.616 418.964 346.634 417.414C347.652 415.864 348.855 414.508 350.335 413.636C352.648 412.184 354.962 411.699 357.46 412.184C359.866 412.668 362.179 413.927 364.4 415.864L361.809 420.61C359.403 418.092 357.182 416.639 355.239 416.058C353.204 415.477 351.538 415.67 350.15 416.445C348.762 417.317 347.929 418.383 347.559 419.739C347.189 421.095 347.374 422.451 348.114 423.807C348.855 425.163 349.872 426.131 350.983 426.712C352.093 427.294 353.851 427.584 356.257 427.681H362.087C363.66 427.875 365.048 427.972 366.251 428.165C367.454 428.359 368.564 428.843 369.582 429.521C370.6 430.199 371.432 431.071 372.08 432.33C373.005 433.977 373.376 435.72 373.376 437.561C373.376 439.401 372.728 441.241 371.618 443.081C370.507 444.825 368.934 446.375 366.991 447.634C364.4 449.28 362.179 450.152 360.329 450.443L357.182 442.694C359.403 444.05 361.439 444.728 363.382 444.825C365.325 444.825 366.991 444.534 368.471 443.566C369.767 442.791 370.6 441.725 370.877 440.369V440.466Z" fill="#09282B"/>
<path d="M317.228 465.944C317.878 464.788 317.971 463.344 317.6 461.707C317.229 460.358 316.486 459.203 315.28 458.432C314.074 457.662 312.126 456.795 309.436 456.025L304.983 454.676C302.663 454.002 300.901 453.039 299.602 451.98C298.303 450.921 297.375 449.38 296.912 447.55C296.355 445.528 296.355 443.602 296.912 441.772C297.468 439.942 298.396 438.498 299.788 437.246C301.179 435.994 302.663 435.127 304.426 434.646C307.024 433.971 309.436 434.164 311.662 435.32C313.889 436.475 315.837 438.305 317.414 440.809L313.703 444.661C312.033 441.579 310.271 439.557 308.508 438.401C306.745 437.246 305.075 436.957 303.498 437.342C301.921 437.727 300.808 438.594 300.066 439.75C299.324 440.905 299.231 442.253 299.602 443.794C299.973 445.335 300.622 446.491 301.55 447.357C302.478 448.224 304.055 448.995 306.374 449.765L312.033 451.498C313.518 451.98 314.816 452.462 315.93 453.039C317.043 453.617 317.971 454.291 318.806 455.254C319.548 456.121 320.197 457.277 320.476 458.625C320.939 460.455 320.847 462.188 320.29 464.018C319.733 465.848 318.713 467.388 317.228 468.833C315.744 470.181 313.796 471.24 311.57 471.818C308.694 472.589 306.281 472.878 304.426 472.589L303.406 464.307C305.168 466.233 306.931 467.485 308.786 468.063C310.642 468.737 312.404 468.833 314.074 468.351C315.559 467.966 316.579 467.196 317.228 465.944Z" fill="#09282B"/>
<path d="M286.932 440.573L283.943 440.951C281.353 441.235 279.36 441.801 277.866 442.462C276.371 443.124 275.176 444.068 274.279 445.107C273.382 446.24 272.486 447.752 271.489 449.735L270.194 441.046L286.732 438.968L286.932 440.573ZM277.766 471.647C278.961 472.497 280.356 473.064 282.05 473.347C283.744 473.631 285.935 473.631 288.426 473.347L291.415 472.969L291.614 474.67L275.076 476.747L274.08 468.247C275.275 469.758 276.471 470.986 277.666 471.742L277.766 471.647ZM279.858 456.913C281.353 457.291 283.445 457.291 286.135 456.913L290.319 456.346L290.518 457.952L286.334 458.519C283.644 458.897 281.552 459.369 280.257 460.124C278.862 460.88 277.666 462.013 276.471 463.713L275.176 454.646C276.77 455.874 278.264 456.63 279.858 457.008V456.913ZM290.917 442.651C290.917 443.974 290.917 445.485 291.216 447.185L293.806 465.508C294.105 467.397 294.404 468.908 294.802 470.23C295.201 471.553 295.799 472.781 296.496 474.008L289.721 474.858C289.721 473.536 289.522 472.119 289.422 470.608C289.323 469.097 289.123 467.586 288.924 466.075L286.334 447.752C285.935 444.635 285.338 441.801 284.64 439.157L291.614 438.307C291.216 439.912 291.016 441.329 291.016 442.651H290.917Z" fill="#09282B"/>
<path d="M261.726 478.668L237.821 477.779L238.101 467.6C238.942 470.071 239.689 471.948 240.436 473.134C241.183 474.32 242.21 475.209 243.517 475.704C244.731 476.198 246.599 476.494 248.933 476.593H250.708C253.042 476.791 254.91 476.593 256.123 476.198C257.431 475.802 258.458 475.012 259.298 473.925C260.139 472.838 261.073 471.059 262.1 468.589L261.726 478.767V478.668ZM253.509 445.168C253.229 446.552 253.135 448.133 253.042 449.813L252.108 477.878L247.439 477.68L248.373 449.615C248.373 448.034 248.373 446.749 248.373 445.465C248.186 443.785 247.813 442.105 247.253 440.326L254.816 440.623C254.256 442.204 253.789 443.686 253.509 445.07V445.168Z" fill="#09282B"/>
<path d="M217.489 438.532C219.607 436.458 222.689 435.865 226.734 436.557L224.616 439.321C222.208 438.926 220.185 439.321 218.644 440.605C217.103 441.889 216.044 443.962 215.563 446.727L212.577 464.304C212.288 465.982 212.192 467.562 212.192 469.043C212.192 470.327 212.481 471.709 212.77 473.19L207.473 472.203C208.339 470.623 209.014 469.241 209.399 468.056C209.88 466.871 210.169 465.488 210.458 464.007L213.444 446.727C214.022 443.37 215.37 440.704 217.489 438.63V438.532ZM230.972 447.221C230.972 445.049 230.49 443.271 229.431 441.889C228.372 440.506 226.831 439.716 224.712 439.321L226.831 436.557C230.105 437.149 232.416 438.433 233.861 440.408C235.306 442.383 235.884 444.752 235.787 447.517C235.787 448.406 235.787 449.393 235.498 450.578L232.513 467.957C232.224 469.636 232.128 471.117 232.128 472.499C232.128 473.783 232.32 475.165 232.513 476.745L224.904 475.363C225.771 473.882 226.349 472.598 226.734 471.413C227.119 470.228 227.408 468.846 227.697 467.068L230.683 449.492C230.876 448.702 230.875 447.912 230.875 447.221H230.972Z" fill="#09282B"/>
<path d="M179.335 460.209C180.725 461.997 182.91 463.387 185.988 464.48L188.57 465.374L187.974 466.963L173.079 461.599L176.356 453.156C176.852 456.037 177.845 458.321 179.236 460.109L179.335 460.209ZM186.683 445.11C187.874 446.104 189.761 447.097 192.244 447.991L196.116 449.382L195.52 450.971L191.648 449.58C189.066 448.686 187.08 448.19 185.491 448.289C183.903 448.289 182.215 448.885 180.427 449.978L183.704 440.839C184.498 442.727 185.491 444.117 186.683 445.11ZM202.869 436.866C202.173 438.058 201.578 439.548 200.982 441.237L194.428 459.513C193.733 461.401 193.336 462.99 193.038 464.281C192.839 465.771 192.641 467.261 192.641 468.652L186.286 466.367C186.882 464.977 187.477 463.586 188.073 462.195C188.669 460.805 189.165 459.513 189.662 458.023V457.725L196.315 439.449C196.315 439.449 196.315 439.449 196.315 439.25C196.811 437.76 197.208 436.369 197.407 435.277C197.705 433.688 197.904 431.999 197.804 430.211L205.45 432.992C204.358 434.284 203.464 435.575 202.769 436.767L202.869 436.866Z" fill="#09282B"/>
<path d="M177.91 424.924C178.961 427.341 179.343 430.047 179.057 433.14C178.77 436.233 177.718 439.519 175.998 442.805C174.373 445.898 172.365 448.508 170.071 450.538C167.777 452.567 165.292 453.824 162.615 454.307C159.939 454.79 157.453 454.307 154.872 452.954C152.674 451.794 151.049 450.054 149.997 447.638C148.946 445.222 148.563 442.419 148.946 439.326C149.232 436.136 150.284 432.946 152.005 429.66C153.63 426.567 155.637 423.958 157.931 422.025C160.225 419.995 162.711 418.738 165.387 418.255C168.064 417.772 170.645 418.255 173.13 419.608C175.329 420.768 176.954 422.604 178.005 424.924H177.91ZM166.343 420.478C164.814 420.961 163.284 422.121 161.85 423.764C160.417 425.407 158.983 427.534 157.644 430.047C155.733 433.816 154.394 437.199 153.821 440.196C153.152 443.192 153.152 445.705 153.821 447.638C154.394 449.571 155.446 451.021 157.071 451.891C158.6 452.664 160.034 452.857 161.564 452.374C163.093 451.891 164.527 450.828 165.961 449.184C167.395 447.541 168.828 445.415 170.167 442.709C171.887 439.326 173.13 436.233 173.799 433.14C174.468 430.047 174.564 427.534 174.086 425.407C173.608 423.281 172.557 421.735 170.836 420.865C169.306 420.091 167.873 419.898 166.343 420.478Z" fill="#09282B"/>
<path d="M143.743 423.249L140.631 420.921C139.561 420.145 138.491 419.564 137.323 419.273C136.156 418.982 135.086 419.079 133.919 419.467C132.752 419.855 131.585 420.727 130.515 421.891C130.32 422.085 130.029 422.473 129.639 422.958C127.694 425.576 126.819 427.806 126.916 429.94C126.916 431.976 128.083 433.819 130.223 435.37C132.557 437.019 134.308 438.182 135.573 438.861L133.238 439.637L128.278 435.952C125.652 434.013 123.901 431.782 122.928 429.164C121.955 426.546 122.636 423.733 124.971 420.63C126.041 419.176 127.305 418.109 128.764 417.43C130.223 416.654 131.779 416.267 133.336 416.267C134.892 416.267 136.351 416.557 137.713 417.042L139.463 417.721C141.311 419.079 143.159 420.436 145.008 421.794L143.938 423.055L143.743 423.249ZM155.221 415.588C154.248 416.558 153.178 417.721 152.205 419.079L140.825 434.303C139.755 435.661 138.977 436.922 138.393 437.988C137.615 439.443 137.032 440.898 136.643 442.352L131.39 438.376C133.238 436.243 134.795 434.4 136.059 432.752L137.129 431.394L148.509 416.17C149.385 415.006 150.065 413.939 150.649 412.97C151.427 411.418 152.108 409.769 152.594 408.024L158.917 412.679C157.555 413.551 156.29 414.521 155.318 415.491L155.221 415.588ZM139.269 417.333C139.366 417.818 139.755 418.303 140.339 418.691L136.643 418.012C135.865 417.43 135.281 416.848 134.892 416.267C134.6 415.685 134.406 415.103 134.503 414.521C134.503 413.842 134.795 413.066 135.086 412L137.81 404.145C138.199 403.078 138.393 402.109 138.491 401.236C138.588 400.363 138.685 399.296 138.783 397.842L144.035 401.818L139.658 414.812C139.269 415.976 139.172 416.751 139.269 417.236V417.333Z" fill="#09282B"/>
<path d="M138.944 395.104C138.361 395.77 137.778 396.532 137.487 397.389C137.098 398.246 136.904 399.103 136.904 399.864C135.253 399.388 133.117 399.007 130.592 398.627C130.786 397.294 131.369 396.056 132.437 394.913C133.311 393.961 134.379 393.2 135.642 392.628C136.904 392.057 138.167 391.771 139.429 391.771C140.692 391.771 141.76 392.057 142.731 392.724C141.274 393.104 140.109 393.961 139.041 395.009L138.944 395.104Z" fill="#09282B"/>
<path d="M89.8892 393.183C89.8892 394.656 90.0869 396.13 90.6797 397.701C91.3714 399.272 92.4582 401.04 94.138 403.004L96.1141 405.263L94.8296 406.344L84.0596 393.871L91.075 388.272C90.3833 390.139 89.988 391.808 89.8892 393.183ZM122.397 387.683C121.211 388.469 119.927 389.353 118.642 390.531L103.92 403.004C102.438 404.281 101.252 405.46 100.363 406.442C99.4735 407.522 98.5843 408.701 97.8926 409.978L93.4463 404.871C94.5332 404.085 95.7189 403.201 97.0034 402.219C98.2879 401.237 99.4735 400.255 100.659 399.272L115.382 386.799C117.852 384.639 120.025 382.576 122.002 380.514L126.547 385.719C124.966 386.308 123.583 386.996 122.397 387.683ZM103.92 386.603C104.414 388.076 105.6 389.746 107.279 391.808L110.046 395.049L108.761 396.13L105.995 392.987C104.216 390.924 102.635 389.549 101.351 388.862C99.9675 388.076 98.2878 387.781 96.1141 387.781L103.426 381.594C103.228 383.558 103.426 385.326 103.92 386.799V386.603ZM122.1 383.165L120.223 380.906C118.543 378.942 116.962 377.567 115.579 376.781C114.196 375.996 112.714 375.505 111.33 375.308C109.947 375.112 108.07 375.308 105.797 375.603L112.714 369.514L123.484 381.987L122.199 383.067L122.1 383.165Z" fill="#09282B"/>
<path d="M98.5158 351.336C101.389 351.529 103.974 353.368 106.176 356.852L102.825 357.142C101.484 355.11 99.8564 353.852 97.9412 353.561C96.0261 353.271 93.8236 353.852 91.4296 355.4L76.8744 364.788C75.438 365.756 74.2888 366.627 73.2355 367.594C72.3737 368.562 71.5119 369.627 70.7458 370.788L67.873 366.239C69.5967 365.852 71.0331 365.465 72.1822 364.981C73.3313 364.497 74.5762 363.82 75.821 363.046L90.1848 353.755C92.9618 351.916 95.8346 351.142 98.7073 351.336H98.5158ZM101.389 367.014C103.016 365.562 103.878 364.014 104.166 362.368C104.357 360.723 103.974 358.981 102.825 357.142L106.176 356.852C107.996 359.659 108.666 362.272 108.187 364.594C107.709 366.917 106.464 368.949 104.453 370.788C103.783 371.369 103.016 371.949 102.059 372.627L87.6951 381.918C86.3545 382.789 85.2053 383.756 84.152 384.627C83.1944 385.498 82.3326 386.563 81.4707 387.724L77.3531 381.24C78.981 380.853 80.3216 380.466 81.375 379.982C82.4283 379.498 83.6732 378.724 85.1096 377.853L99.6649 368.465C100.335 368.078 100.91 367.594 101.389 367.11V367.014Z" fill="#09282B"/>
<path d="M62.9575 352.065C61.9802 353.129 61.1005 354.192 60.5141 355.352L56.9955 346.845C56.9955 346.845 57.9729 346.748 58.7548 346.555C59.4389 346.362 60.2208 346.168 61.0028 345.782C62.5666 345.202 63.8372 344.428 65.0101 343.558L85.0465 327.511L85.7307 329.154L60.1231 331.668C59.3412 331.668 58.5593 331.861 57.7774 332.054C56.9955 332.248 56.2136 332.538 55.5294 332.828C54.7475 333.118 54.0633 333.504 53.4769 333.794C52.8905 334.181 52.4995 334.568 52.2063 334.954L49.665 328.864C51.0334 329.251 52.4017 329.541 53.8678 329.637C55.3339 329.637 57.2887 329.637 59.5367 329.541L89.1516 327.027L90.129 329.444L67.2581 348.295C65.4987 349.842 64.1304 351.099 63.0553 352.065H62.9575Z" fill="#09282B"/>
<path d="M81.1675 309.762C80.1421 312.155 78.3708 314.165 75.947 315.984C73.5232 317.802 70.54 319.142 66.9975 320.1C63.6415 320.961 60.5651 321.152 57.582 320.77C54.5988 320.387 52.0818 319.334 50.0308 317.707C47.9799 316.08 46.5816 313.878 45.929 311.102C45.3697 308.709 45.5561 306.317 46.5816 303.924C47.607 301.531 49.3783 299.425 51.8953 297.607C54.4124 295.788 57.3955 294.352 60.8448 293.491C64.1076 292.629 67.2772 292.438 70.1672 292.821C73.1503 293.204 75.5741 294.257 77.625 295.884C79.6759 297.511 81.0743 299.712 81.7268 302.488C82.2862 304.881 82.0997 307.274 81.0743 309.667L81.1675 309.762ZM76.8793 298.181C75.4809 297.415 73.7097 297.032 71.5655 296.937C69.4214 296.937 66.9975 297.224 64.3873 297.894C60.4719 298.947 57.1158 300.191 54.5988 301.722C51.9885 303.254 50.2173 304.881 49.1918 306.604C48.1664 308.327 47.7935 310.049 48.2596 311.772C48.6325 313.4 49.4715 314.644 50.8699 315.41C52.175 316.175 53.853 316.558 55.9972 316.654C58.1413 316.654 60.5651 316.271 63.3618 315.601C66.9043 314.74 69.9807 313.495 72.5909 312.06C75.2012 310.624 77.1589 308.997 78.3708 307.178C79.5827 305.359 79.9556 303.637 79.5827 301.818C79.2098 300.191 78.2776 298.947 76.9724 298.181H76.8793Z" fill="#09282B"/>
<path d="M73.7611 266.318C76.2598 267.873 77.6052 270.691 77.9896 274.869L74.9144 273.508C74.7221 271.079 73.8572 269.233 72.2235 267.97C70.5898 266.707 68.4755 266.221 65.5925 266.512L48.2941 267.97C46.6604 268.067 45.1228 268.358 43.7773 268.747C42.528 269.136 41.3748 269.719 40.0294 270.399L39.5488 264.958C41.2787 265.443 42.7202 265.735 43.9695 265.832C45.2189 265.929 46.5643 265.929 48.1019 265.832L65.1119 264.375C68.3794 264.083 71.2625 264.763 73.7611 266.318ZM68.956 281.671C70.9741 281.185 72.6079 280.213 73.5689 278.853C74.53 277.492 75.0104 275.743 74.8182 273.606L77.8935 274.966C78.1818 278.367 77.5091 280.893 76.0676 282.739C74.53 284.586 72.5118 285.752 69.9171 286.432C69.0522 286.626 68.0911 286.821 66.9379 286.918L49.8317 288.375C48.198 288.472 46.7565 288.764 45.4111 289.153C44.1617 289.444 42.9124 289.93 41.567 290.61L40.8942 282.934C42.528 283.322 43.8734 283.614 45.0266 283.711C46.1799 283.711 47.6214 283.711 49.3512 283.614L66.6496 282.156C67.4184 282.156 68.1872 281.962 68.86 281.768L68.956 281.671Z" fill="#09282B"/>
<path d="M67.1618 255.595C65.9826 255.755 64.7052 255.994 63.4277 256.073C62.1502 256.153 60.971 256.313 59.6935 256.472C58.4161 256.631 57.2369 256.631 55.9594 256.711C54.6819 256.791 53.4045 256.791 52.0287 256.87H51.9304C46.624 257.03 42.4968 257.189 39.5488 257.349V252.168C42.6934 252.407 46.7223 252.806 52.0287 253.124C55.1733 253.364 58.023 253.603 60.4797 253.921C62.9363 254.24 65.4912 254.639 67.9479 255.197H68.341L67.1618 255.515V255.595ZM76.792 257.508C76.1041 257.986 75.318 258.305 74.4336 258.225C73.4509 258.225 72.6648 257.907 72.0752 257.428C71.4856 256.87 71.0925 256.233 71.1907 255.436C71.1907 254.639 71.5838 254.001 72.2717 253.523C72.9596 253.045 73.7457 252.726 74.7284 252.806C75.6128 252.806 76.3989 253.124 77.0867 253.603C77.7746 254.081 78.0695 254.798 77.9712 255.595C77.8729 256.392 77.5781 257.03 76.8902 257.588L76.792 257.508Z" fill="#09282B"/>
<path d="M47.6411 212.643C46.1607 212.841 44.779 213.236 43.5947 213.729L46.1607 204.649C46.1607 204.649 47.0489 205.242 47.7398 205.439C48.4306 205.735 49.2202 206.031 50.0097 206.228C51.5888 206.722 53.1679 206.919 54.5496 206.919L80.5058 206.525L80.0123 208.202L58.1025 194.287C57.5104 193.892 56.7208 193.497 56.03 193.102C55.2404 192.806 54.5496 192.51 53.76 192.313C52.9705 192.115 52.181 191.918 51.4901 191.819C50.7993 191.819 50.2071 191.819 49.7137 191.918L51.5888 185.404C52.3784 186.589 53.3653 187.674 54.4509 188.661C55.6352 189.648 57.1156 190.832 58.9908 192.017L84.0587 208.498L83.2691 211.064L53.2666 211.953C50.898 211.953 49.0228 212.15 47.5424 212.347L47.6411 212.643Z" fill="#09282B"/>
<path d="M83.7754 192.884C82.6374 192.226 81.2148 191.567 79.6974 190.908L62.437 184.133C60.8247 183.474 59.4022 183.004 58.2641 182.815C56.6519 182.439 55.1345 182.345 53.7119 182.251L56.4622 175.287C57.6951 176.322 58.8332 177.263 60.066 177.922C61.2041 178.581 62.6267 179.239 64.1441 179.898L81.4045 186.673C83.0167 187.332 84.3445 187.803 85.5773 187.991C87.0947 188.273 88.6121 188.461 90.1295 188.556L87.3792 195.519C86.1463 194.484 85.0083 193.543 83.8703 192.884H83.7754Z" fill="#09282B"/>
<path d="M88.615 185.529C87.7332 184.322 86.4595 182.814 84.8919 181.206L63.8271 159.591L65.1008 157.078L94.4936 162.406C96.747 162.808 98.7065 163.009 100.176 163.11C101.646 163.11 103.017 163.11 104.291 162.808L99.9802 171.354C99.9802 171.354 99.1964 170.65 98.6085 170.147C98.0207 169.745 97.3348 169.343 96.551 168.941C95.0814 168.137 93.6117 167.634 92.2401 167.332L66.8644 162.406L67.6482 160.798L86.1656 179.195C86.6554 179.798 87.3413 180.301 88.0271 180.804C88.713 181.306 89.3988 181.708 90.0846 182.111C90.8684 182.513 91.5542 182.814 92.1421 183.015C92.7299 183.216 93.3179 183.317 93.8077 183.317L90.6725 189.449C90.1826 188.142 89.3988 186.835 88.517 185.629L88.615 185.529ZM88.321 163.914L89.7907 164.719L83.0303 178.089L81.5608 177.285L88.321 163.914Z" fill="#09282B"/>
<path d="M106.578 158.334C104.067 159.248 101.363 159.349 98.3694 158.639C95.4721 157.928 92.4782 156.404 89.3878 154.17C86.2973 151.834 83.8828 149.194 82.3376 146.147C80.6958 143.202 79.9232 140.155 80.0198 137.007C80.0198 133.96 81.0821 131.015 82.9171 128.273C84.4623 125.937 86.3938 124.109 88.6151 122.688L94.4097 129.086C91.7056 128.679 89.3877 128.781 87.5528 129.492C85.7178 130.203 84.2692 131.421 83.1102 133.148C82.1445 134.57 81.7581 135.991 81.9513 137.515C82.1444 139.038 82.8205 140.663 84.1726 142.389C85.5247 144.116 87.5528 146.046 90.1604 148.077C93.0577 150.311 96.0516 151.834 98.9489 152.748C101.846 153.662 104.55 153.865 106.868 153.358C109.186 152.85 111.021 151.733 112.276 149.803C112.856 148.991 113.339 148.178 113.725 147.264C114.111 146.35 114.498 145.538 114.788 144.522C114.788 144.218 114.884 144.014 114.981 143.71L112.759 153.154C111.118 155.592 108.993 157.318 106.482 158.232L106.578 158.334ZM104.743 141.272C103.295 140.663 102.039 140.257 101.074 140.257C100.011 140.257 98.9488 140.257 97.7899 140.561L102.812 133.148L116.429 143.405C116.333 145.03 115.946 146.655 115.367 148.381C114.787 150.108 113.918 151.733 112.856 153.358L114.111 147.264C110.152 144.319 107.061 142.288 104.743 141.374V141.272Z" fill="#09282B"/>
<path d="M116.089 139.054C115.234 137.992 114.189 136.833 113.049 135.674L99.5613 122.637C98.2315 121.285 96.9967 120.319 95.8569 119.547C94.717 118.774 93.4821 118.098 92.1523 117.518L96.6167 112.69C97.4716 113.656 98.4215 114.718 99.5613 115.877C100.606 117.036 101.746 118.098 102.791 119.16L116.279 132.198C118.558 134.419 120.838 136.35 123.023 137.992L118.463 142.917C117.704 141.469 116.944 140.116 116.184 139.054H116.089ZM107.54 108.054C106.115 108.054 104.786 108.537 103.266 109.31C101.746 110.082 100.226 111.434 98.5164 113.173L96.5218 115.297L95.2869 114.138L106.21 102.453L112.289 108.634C110.39 108.151 108.775 107.958 107.445 108.054H107.54ZM115.329 120.995C113.999 121.671 112.479 122.927 110.675 124.858L107.92 127.852L106.78 126.693L109.535 123.699C111.339 121.768 112.479 120.126 113.049 118.677C113.619 117.229 113.809 115.587 113.524 113.462L120.268 119.933C118.274 119.933 116.659 120.223 115.329 120.899V120.995ZM120.458 138.282L122.453 136.157C124.163 134.322 125.302 132.68 126.062 131.232C126.727 129.783 127.012 128.335 127.012 126.983C127.012 125.631 126.727 123.796 126.157 121.671L132.616 127.755L121.693 139.44L120.458 138.282Z" fill="#09282B"/>
<path d="M152.848 110.734L150.182 112.784L117.525 99.2734L118.572 98.528L132.759 116.045C133.806 117.256 134.758 118.374 135.805 119.213C136.757 120.051 137.805 120.797 139.042 121.542L134.948 124.71C134.377 123.126 133.806 121.728 133.235 120.703C132.663 119.585 131.902 118.56 131.045 117.442L118.477 101.975C117.335 100.578 116.287 99.4598 115.145 98.6212C114.288 97.8758 113.336 97.3168 112.384 96.9441L118.096 92.5649C118.192 93.2171 118.477 93.7762 118.858 94.2421C119.144 94.6147 119.525 94.9874 120.001 95.1738C120.477 95.4533 121.048 95.7328 121.905 96.1055L148.754 107.193L147.802 107.939L133.901 90.7946C132.949 89.6765 131.997 88.6516 130.95 87.7199C130.188 87.0677 129.045 86.2291 127.522 85.3906L131.616 82.2227C132.187 83.8066 132.759 85.2042 133.235 86.2291C133.806 87.3472 134.568 88.4653 135.425 89.5834L152.848 111.013V110.734Z" fill="#09282B"/>
<path d="M143.498 78.0541C143.201 79.4129 143.498 80.7718 144.291 82.2277C145.084 83.4895 146.174 84.266 147.561 84.7514C148.948 85.1396 151.227 85.4308 154.2 85.5279H159.154C161.73 85.6249 163.811 86.0132 165.496 86.6926C167.18 87.372 168.468 88.5368 169.558 90.2839C170.648 92.1281 171.144 93.9723 171.045 95.9135C170.945 97.8548 170.45 99.6019 169.36 101.155C168.27 102.708 166.982 103.97 165.297 104.94C162.82 106.396 160.244 106.785 157.668 106.299C155.091 105.814 152.614 104.552 150.236 102.611L153.011 97.8548C155.587 100.281 157.965 101.834 160.046 102.417C162.127 102.999 164.009 102.805 165.496 102.028C166.982 101.155 167.874 100.087 168.369 98.8254C168.766 97.4665 168.567 96.1076 167.775 94.7488C166.982 93.3899 165.892 92.4193 164.703 91.8369C163.514 91.2545 161.631 90.9633 159.055 90.8663H152.713C151.029 90.6722 149.543 90.5751 148.254 90.2839C146.966 90.0898 145.777 89.6045 144.687 88.925C143.597 88.2456 142.706 87.372 142.012 86.1102C141.021 84.4602 140.625 82.8101 140.724 80.8689C140.724 78.9276 141.417 77.1805 142.606 75.3363C143.795 73.5892 145.48 72.0362 147.561 70.7744C150.335 69.1243 152.713 68.2508 154.695 68.0566L157.965 75.8216C155.587 74.4628 153.407 73.7833 151.326 73.6863C149.245 73.5892 147.462 73.9774 145.876 74.851C144.489 75.6275 143.597 76.6952 143.3 78.0541H143.498Z" fill="#09282B"/>
<path d="M201.405 233.96C212.579 233.96 221.637 224.902 221.637 213.728C221.637 202.554 212.579 193.496 201.405 193.496C190.231 193.496 181.173 202.554 181.173 213.728C181.173 224.902 190.231 233.96 201.405 233.96Z" fill="#09282B"/>
<path d="M312.679 262.286C323.853 262.286 332.911 253.228 332.911 242.054C332.911 230.88 323.853 221.822 312.679 221.822C301.505 221.822 292.447 230.88 292.447 242.054C292.447 253.228 301.505 262.286 312.679 262.286Z" fill="#09282B"/>
<path d="M334.935 325.982V287.135C334.935 285.504 333.683 284.161 332.045 284.065C328.191 283.873 324.241 283.777 320.387 283.298C305.261 281.283 291.098 275.145 282.331 262.387C273.852 250.014 271.926 234.379 271.636 219.799H264.218C264.411 230.638 263.929 241.477 264.218 252.22C264.796 274.089 268.168 300.659 285.896 315.623C298.517 326.27 315.57 329.052 331.756 329.052C333.49 329.052 334.839 327.613 334.839 325.982H334.935Z" fill="#09282B"/>
<path d="M251.888 189.451C251.213 216.982 255.265 249.749 239.829 274.081C227.48 293.469 205.967 298.704 184.26 298.704C182.523 298.704 181.173 297.25 181.173 295.602V256.244C181.173 254.499 182.523 253.238 184.26 253.142C203.169 253.142 223.429 248.101 234.523 231.524C240.89 222.023 243.881 208.936 244.556 197.691C244.653 195.462 244.17 192.262 244.556 190.227C244.556 189.936 244.846 189.451 245.039 189.451H251.985H251.888Z" fill="#09282B"/>
</svg>
