<svg width="1514" height="165" viewBox="0 0 1514 165" fill="none" xmlns="http://www.w3.org/2000/svg">
<path d="M1384.14 64.4122C1383.64 63.2734 1383 62.277 1382.29 61.4229H1390.4C1390.26 61.7787 1390.19 62.277 1390.12 62.9175C1390.05 63.5581 1389.98 64.1987 1389.98 64.9105C1389.98 66.334 1390.12 67.6152 1390.48 68.754L1396.67 89.5374H1395.17L1401.37 68.754C1401.58 68.1134 1401.72 67.4728 1401.79 66.7611C1401.86 66.0493 1401.93 65.4087 1401.93 64.7681C1401.93 64.0563 1401.93 63.4158 1401.79 62.8464C1401.72 62.277 1401.51 61.8499 1401.29 61.4229H1407.06C1406.28 62.3481 1405.64 63.3446 1405.07 64.4834C1404.5 65.6222 1403.93 67.1169 1403.36 68.9675L1395.74 93.025H1393.39L1385.78 68.9675C1385.14 67.1169 1384.57 65.551 1384.07 64.4122H1384.14Z" fill="#F7F8F6"/>
<path d="M1407.06 89.3924C1407.2 88.2535 1407.27 86.9724 1407.27 85.4065V78.36C1407.27 76.5095 1407.2 74.8724 1407.06 73.6624C1406.91 72.4524 1406.63 71.3136 1406.2 70.3883C1407.98 69.7477 1409.76 69.1072 1411.47 68.3242V85.4065C1411.47 86.9012 1411.47 88.1823 1411.68 89.3212C1411.97 90.8159 1412.25 92.0259 1412.68 93.0935H1406.27C1406.7 91.8123 1407.06 90.6023 1407.2 89.4635L1407.06 89.3924Z" fill="#F7F8F6"/>
<path d="M1416.24 84.842C1417.02 83.9879 1417.88 83.2762 1418.8 82.778C1419.73 82.2797 1420.94 81.7815 1422.22 81.3544C1422.22 81.3544 1422.43 81.2833 1422.72 81.1409C1423.79 80.785 1424.64 80.4291 1425.42 80.0733C1426.21 79.7174 1426.85 79.3615 1427.27 79.0768C1427.7 78.7921 1427.99 78.5074 1427.99 78.2939V77.7244C1427.99 75.4468 1427.7 73.5251 1427.06 72.0304C1426.42 70.5357 1425.21 69.7527 1423.43 69.7527C1422.43 69.7527 1421.65 70.0374 1421.01 70.6068C1420.44 71.1762 1420.16 72.0304 1420.16 73.1692C1420.16 74.4503 1420.51 75.9451 1421.15 77.5821L1416.03 77.2974V75.8027C1416.03 74.5215 1416.31 73.3115 1416.88 72.2439C1417.45 71.1051 1418.38 70.1798 1419.59 69.468C1420.8 68.7563 1422.43 68.4004 1424.36 68.4004C1426.92 68.4004 1428.77 68.9698 1429.91 70.251C1431.05 71.5321 1431.69 73.0268 1431.97 74.8774C1431.97 75.5892 1432.04 76.4433 1432.04 77.4398V85.625C1432.04 87.4044 1432.11 88.8279 1432.26 89.8956C1432.47 91.0344 1432.83 92.102 1433.25 93.2408H1428.7C1428.7 93.2408 1428.27 92.3867 1428.13 91.8173C1428.06 91.4614 1427.99 91.1767 1427.91 90.8208C1427.84 90.465 1427.84 90.1803 1427.77 89.8956V83.3474C1427.77 83.3474 1427.77 82.7779 1427.7 82.7068C1427.7 82.5644 1427.49 82.4933 1427.2 82.4221C1426.99 82.4221 1426.49 82.3509 1425.85 82.3509C1423.36 82.3509 1421.58 82.7068 1420.58 83.4185C1419.59 84.1303 1419.02 85.2691 1419.02 86.835C1419.02 87.9738 1419.37 88.8991 1420.01 89.5397C1420.65 90.1803 1421.65 90.5361 1422.93 90.5361C1424.93 90.5361 1426.7 89.7532 1428.27 88.2585L1428.13 89.255C1427.35 90.6785 1426.35 91.7461 1425 92.4579C1423.64 93.2408 1422.22 93.5967 1420.73 93.5967C1418.95 93.5967 1417.59 93.0985 1416.53 92.1732C1415.46 91.2479 1414.89 89.9667 1414.89 88.3297C1414.89 86.9773 1415.25 85.9097 1416.03 85.0556L1416.24 84.842Z" fill="#F7F8F6"/>
<path d="M1439.09 101.852C1437.45 101.353 1435.89 100.642 1434.39 99.5028L1437.1 95.0899C1438.52 96.7982 1440.01 98.0082 1441.58 98.7911C1443.15 99.574 1444.78 99.8587 1446.63 99.8587C1448.2 99.8587 1449.48 99.574 1450.41 98.8623C1451.33 98.2217 1451.83 97.3676 1451.83 96.2288C1451.83 95.2323 1451.47 94.4494 1450.76 93.9511C1450.05 93.4529 1448.77 93.1682 1446.99 93.1682H1441.44C1439.73 93.1682 1438.38 92.9546 1437.52 92.5276C1436.67 92.1005 1436.17 91.3176 1436.17 90.1788C1436.17 88.9688 1436.74 87.7588 1437.81 86.5488C1438.88 85.3388 1440.23 84.2 1441.87 83.2035L1442.43 84.3423C1441.3 84.9829 1440.51 85.6235 1439.94 86.2641C1439.37 86.9047 1439.16 87.5453 1439.16 88.1147C1439.16 88.6129 1439.45 88.9688 1439.94 89.1111C1440.44 89.2535 1441.37 89.3247 1442.72 89.3247H1447.63C1449.2 89.3247 1450.48 89.3959 1451.4 89.5382C1452.33 89.6806 1453.11 90.1076 1453.68 90.677C1454.25 91.2464 1454.53 92.2429 1454.53 93.5241C1454.53 95.1611 1454.11 96.6558 1453.18 98.0082C1452.26 99.3605 1451.05 100.428 1449.48 101.211C1447.92 101.994 1446.21 102.35 1444.43 102.35C1442.65 102.35 1440.87 102.136 1439.23 101.638L1439.09 101.852ZM1439.94 84.4847C1438.59 83.7729 1437.59 82.8476 1436.81 81.5665C1436.03 80.2853 1435.67 78.8618 1435.67 77.2247C1435.67 75.5877 1436.1 74.0218 1436.88 72.6695C1437.74 71.3171 1438.8 70.1783 1440.23 69.3954C1441.65 68.6124 1443.22 68.1854 1445 68.1854C1446.78 68.1854 1448.2 68.5413 1449.48 69.3242C1450.83 70.036 1451.83 71.1036 1452.54 72.3136C1453.25 73.5948 1453.61 74.9471 1453.61 76.4418C1453.61 78.15 1453.18 79.6447 1452.4 81.0682C1451.62 82.4206 1450.48 83.5594 1449.05 84.3423C1447.63 85.1253 1446.06 85.5523 1444.29 85.5523C1442.65 85.5523 1441.15 85.1965 1439.87 84.4847H1439.94ZM1447.35 83.4171C1447.99 82.99 1448.48 82.2782 1448.77 81.4241C1449.05 80.57 1449.27 79.5024 1449.27 78.2212C1449.27 75.9436 1448.84 74.0218 1448.06 72.3136C1447.27 70.6054 1445.92 69.8224 1444.07 69.8224C1442.79 69.8224 1441.79 70.3207 1441.08 71.2459C1440.37 72.1712 1439.94 73.6659 1439.94 75.73C1439.94 77.7941 1440.3 79.7871 1441.08 81.4953C1441.87 83.2035 1443.15 84.0577 1445.07 84.0577C1445.99 84.0577 1446.78 83.8441 1447.42 83.3459L1447.35 83.4171ZM1452.04 65.0536C1452.97 64.1995 1454.11 63.7725 1455.39 63.7725C1455.96 63.7725 1456.46 63.8437 1456.74 63.986L1456.1 69.5377C1455.82 69.1107 1455.39 68.6836 1454.89 68.3989C1454.39 68.1142 1453.89 67.9718 1453.32 67.9718C1452.04 67.9718 1451.19 68.826 1450.62 70.6054L1449.77 69.8936C1450.34 67.5448 1451.05 65.9077 1451.97 65.0536H1452.04Z" fill="#F7F8F6"/>
<path d="M1472.33 90.679C1471.69 91.6043 1470.83 92.3161 1469.77 92.8143C1468.7 93.3837 1467.42 93.5973 1465.99 93.5973C1464.07 93.5973 1462.29 93.099 1460.8 92.0314C1459.3 90.9637 1458.16 89.5402 1457.31 87.6185C1456.46 85.7679 1456.1 83.5614 1456.1 81.0703C1456.1 78.7926 1456.46 76.6574 1457.17 74.6644C1457.88 72.6715 1458.95 71.1056 1460.44 69.8956C1461.94 68.6856 1463.72 68.1162 1465.85 68.1162C1467.99 68.1162 1469.77 68.6856 1471.05 69.8244C1472.33 70.9633 1473.18 72.5291 1473.54 74.4509C1473.68 75.3762 1473.75 76.2303 1473.75 77.0132V80.5009H1459.94V79.362H1467.56C1468.13 79.362 1468.49 79.362 1468.77 79.2197C1468.98 79.0773 1469.2 78.8638 1469.27 78.5791C1469.34 78.2944 1469.41 77.725 1469.41 77.0844C1469.41 76.515 1469.41 75.8032 1469.34 74.9491C1469.13 73.2409 1468.7 71.9597 1467.99 71.0344C1467.28 70.1803 1466.35 69.6821 1465.28 69.6821C1464.21 69.6821 1463.36 70.038 1462.65 70.8209C1461.94 71.5327 1461.37 72.6715 1460.94 74.095C1460.51 75.5185 1460.3 77.2268 1460.3 79.2197C1460.3 81.4261 1460.58 83.2767 1461.08 84.7714C1461.58 86.2661 1462.44 87.5473 1463.65 88.4014C1464.78 89.2555 1466.28 89.6825 1468.13 89.6825C1469.2 89.6825 1470.12 89.5402 1470.91 89.1843C1471.69 88.8284 1472.54 88.3302 1473.47 87.6185C1473.33 88.7573 1472.9 89.7537 1472.26 90.679H1472.33Z" fill="#F7F8F6"/>
<path d="M1477.45 89.396C1477.59 88.2572 1477.67 86.976 1477.67 85.4101V78.3637C1477.67 76.3708 1477.59 74.8049 1477.45 73.5949C1477.31 72.3849 1477.02 71.3173 1476.6 70.4632L1477.88 69.8226C1479.16 69.2532 1480.23 68.6838 1481.08 68.1855C1481.3 68.6838 1481.44 69.3955 1481.65 70.2496C1481.79 71.1037 1481.86 71.9579 1481.86 72.7408V85.339C1481.86 86.9048 1481.94 88.2572 1482.08 89.396C1482.22 90.5348 1482.58 91.7448 1483 93.026H1476.6C1477.02 91.7448 1477.38 90.5348 1477.52 89.396H1477.45ZM1490.69 91.8872C1490.55 90.9619 1490.41 89.9654 1490.33 88.8978C1490.26 87.8301 1490.26 86.6913 1490.26 85.4813V76.0861C1490.26 76.0861 1490.26 75.3031 1490.19 74.7337C1490.05 73.5949 1489.69 72.812 1489.2 72.2426C1488.63 71.6732 1487.84 71.3884 1486.85 71.3884C1485.99 71.3884 1485.14 71.602 1484.21 72.1002C1483.29 72.5985 1482.36 73.4526 1481.51 74.7337L1481.01 74.5202C1482.01 72.3138 1483.22 70.7479 1484.57 69.8226C1485.92 68.8973 1487.42 68.3991 1488.98 68.3991C1490.55 68.3991 1491.83 68.8973 1492.75 69.8226C1493.68 70.7479 1494.25 72.2426 1494.39 74.2355C1494.39 74.449 1494.39 74.8049 1494.39 75.232V85.4101C1494.39 86.9048 1494.46 88.2572 1494.61 89.3248C1494.82 90.5348 1495.17 91.816 1495.6 93.0972H1490.83C1490.83 93.0972 1490.69 92.4566 1490.62 91.9583L1490.69 91.8872Z" fill="#F7F8F6"/>
<path d="M1501.94 71.1001C1501.3 71.5983 1501.01 72.3101 1501.01 73.1642C1501.01 74.303 1501.37 75.2283 1502.01 75.9401C1502.65 76.6518 1503.86 77.4348 1505.43 78.2177L1508.56 79.8548C1509.91 80.5665 1510.98 81.3495 1511.83 82.2747C1512.69 83.2 1513.04 84.5524 1513.04 86.1894C1513.04 87.6841 1512.69 89.0365 1511.9 90.1041C1511.12 91.1717 1510.2 92.0259 1508.99 92.6664C1507.78 93.2359 1506.57 93.5205 1505.21 93.5205C1503.29 93.5205 1501.58 93.0223 1500.09 91.9547C1498.59 90.887 1497.45 89.5347 1496.67 87.7553L1500.59 85.1218C1501.16 87.1859 1501.94 88.8229 1503.01 89.8906C1504.07 90.9582 1505.36 91.5988 1506.78 91.5988C1507.78 91.5988 1508.63 91.3141 1509.27 90.7447C1509.91 90.1753 1510.27 89.3212 1510.27 88.1823C1510.27 87.1859 1509.98 86.3318 1509.34 85.62C1508.7 84.9082 1507.85 84.2677 1506.64 83.6271L1502.51 81.6342C1501.23 80.9936 1500.09 80.1395 1499.09 79.2142C1498.1 78.2889 1497.6 77.0077 1497.6 75.4418C1497.6 74.0895 1497.95 72.8795 1498.66 71.8119C1499.38 70.7442 1500.44 69.8901 1501.8 69.2495C1503.15 68.6089 1504.93 68.3242 1507.06 68.3242C1507.92 68.3242 1508.77 68.3954 1509.7 68.5378C1510.62 68.6801 1511.41 68.8936 1512.05 69.1784L1511.26 75.6554C1510.34 73.876 1509.27 72.5236 1508.13 71.6695C1506.99 70.8154 1505.71 70.3883 1504.22 70.3883C1503.15 70.3883 1502.37 70.673 1501.73 71.1713L1501.94 71.1001Z" fill="#F7F8F6"/>
<path d="M25.1516 19.8876C21.664 23.4464 19.9558 28.2864 19.9558 34.4787C19.9558 39.8169 21.8063 44.5145 25.4363 48.4292C29.0663 52.4151 35.6145 57.255 44.8674 63.0203L60.3126 72.7714C68.2131 77.5402 74.1207 82.5937 78.1066 87.9319C82.0925 93.2701 84.0142 99.5336 84.0142 106.865C84.0142 114.765 82.0925 121.741 78.3201 127.719C74.4766 133.698 69.4943 138.325 63.1596 141.456C56.8961 144.659 50.2056 146.225 43.1592 146.225C32.6963 146.225 23.8704 143.022 16.6105 136.616C9.63524 130.495 4.43939 122.381 0.880584 112.488C0.59588 111.705 0.880584 110.851 1.59234 110.495L16.3258 101.882C17.2511 101.313 18.4611 101.882 18.7458 102.879C22.1622 114.481 26.504 123.022 31.771 128.502C37.3227 134.268 43.2303 137.186 49.4226 137.186C55.615 137.186 60.3838 135.478 64.1561 131.99C67.9284 128.502 69.779 123.876 69.779 117.897C69.779 111.918 68.4267 107.221 65.7931 103.164C63.0885 99.1777 57.8926 94.7648 50.1344 89.9248L30.4898 77.6825C25.294 74.4084 20.8811 71.2767 17.2511 68.1449C13.6211 65.0132 10.7741 61.4544 8.70995 57.3262C6.57467 53.2691 5.50703 48.5715 5.50703 43.3757C5.50703 36.4716 7.42878 29.9946 11.3435 24.0158C15.2581 18.037 20.6675 13.2682 27.6428 9.70941C34.618 6.22178 42.8033 4.44238 52.0562 4.44238C62.9461 4.44238 71.7719 5.72355 78.5337 8.35706C79.3166 8.64177 79.7436 9.4247 79.6013 10.2788L76.256 35.404C76.0425 37.041 73.9072 37.4681 72.9819 36.0446C68.7825 29.5675 64.0849 24.5852 58.8891 21.0264C52.5544 16.7558 45.935 14.5494 39.0309 14.5494C33.2657 14.5494 28.6392 16.3288 25.1516 19.8164V19.8876Z" fill="#F7F8F6"/>
<path d="M90.2088 127.008C91.0629 121.883 91.49 116.118 91.49 109.783V39.5325C91.49 32.3437 91.0629 26.2937 90.2088 21.3114C89.497 16.8985 88.287 12.4856 86.65 8.14386C86.2229 7.00504 87.0059 5.86621 88.2159 5.86621H111.348C110.921 10.7774 110.636 16.2579 110.423 22.1655C110.209 28.0731 110.138 33.9096 110.138 39.5325V109.783C110.138 121.883 110.779 133.129 112.06 143.45H88.2159C87.077 143.45 86.2941 142.311 86.65 141.172C88.3582 136.261 89.5682 131.492 90.28 127.079L90.2088 127.008ZM137.47 78.6793C132.203 76.6864 124.729 75.6899 115.12 75.6899H99.6752V69.1417H115.12C124.872 69.1417 132.345 68.1453 137.683 66.0812C141.954 64.4441 146.224 61.4547 150.353 57.2553C151.42 56.1877 153.2 56.8283 153.2 58.323V85.9393C153.2 87.434 151.491 88.0746 150.424 87.0781C146.153 83.0922 141.811 80.2452 137.47 78.6793ZM152.345 23.9449C148.502 20.2438 143.662 17.3256 137.754 15.4038C131.847 13.4109 124.231 12.4144 114.907 12.4144H104.302V5.86621H162.808C163.662 5.86621 164.303 6.57798 164.303 7.43209L163.662 33.5537C163.662 35.1908 161.527 35.7602 160.602 34.4078C157.897 30.2084 155.121 26.7208 152.274 24.0161L152.345 23.9449ZM104.373 136.83H114.978C124.302 136.83 131.776 135.905 137.541 133.983C143.235 132.061 148.004 129.286 151.705 125.513C154.623 122.595 157.755 118.68 161.1 113.769C162.025 112.417 164.09 113.057 164.09 114.623L164.445 141.741C164.445 142.595 163.734 143.307 162.88 143.307H104.373V136.759V136.83Z" fill="#F7F8F6"/>
<path d="M196.97 5.86621H286.581C287.506 5.86621 288.218 6.57798 288.218 7.50327L288.36 34.7637C288.36 36.5431 285.94 37.0413 285.228 35.4043C282.951 30.2796 280.744 26.2226 278.609 23.3043C275.406 19.0338 271.42 16.0444 266.651 14.4073C261.883 12.7703 254.978 11.9874 246.153 11.9874H237.896C228.857 11.9874 221.953 12.7703 217.184 14.4073C212.415 16.0444 208.429 18.9626 205.226 23.3043C203.02 26.2937 200.742 30.422 198.393 35.689C197.682 37.326 195.262 36.7566 195.262 34.9772L195.404 7.50327C195.404 6.57798 196.116 5.86621 197.041 5.86621H196.97ZM231.277 126.865C232.131 121.67 232.558 115.904 232.558 109.712V9.21149C232.558 8.28621 233.27 7.57445 234.195 7.57445H249.498C250.423 7.57445 251.135 8.28621 251.135 9.21149V109.712C251.135 115.477 251.42 120.602 251.989 124.944C252.701 130.567 254.053 135.976 256.046 141.243C256.402 142.311 255.69 143.378 254.623 143.378H229.07C228.003 143.378 227.291 142.311 227.576 141.243C229.284 136.261 230.494 131.421 231.277 126.865Z" fill="#F7F8F6"/>
<path d="M319.254 111.066C320.535 118.682 323.524 124.519 328.222 128.647C332.92 132.704 339.254 134.768 347.155 134.768L341.034 146.37C328.364 146.37 318.827 143.238 312.563 137.046C306.3 130.853 302.385 122.881 300.819 113.13C300.25 109.856 299.965 106.155 299.965 101.885V37.5414C299.965 31.4914 299.467 25.8685 298.47 20.6015C297.616 16.5445 296.406 12.2027 294.912 7.71862C294.627 6.79333 295.268 5.79688 296.264 5.79688H321.674C322.67 5.79688 323.311 6.79333 323.026 7.71862C321.318 12.7009 320.179 17.185 319.61 21.2421C318.969 25.7262 318.684 31.2067 318.684 37.5414V102.454C318.684 105.586 318.898 108.362 319.325 110.924L319.254 111.066ZM374.059 133.273C367.582 142.028 356.55 146.37 341.034 146.37L347.155 134.768C356.194 134.768 363.17 131.992 368.081 126.511C372.992 121.031 375.483 113.059 375.483 102.596V37.6837C375.483 31.3491 374.985 25.5838 373.988 20.3168C372.992 16.2597 371.639 12.1315 369.931 7.93215C369.575 7.00686 370.216 5.93922 371.212 5.93922H387.654C388.651 5.93922 389.291 6.93568 388.935 7.86097C387.013 13.2704 385.732 18.0392 384.949 22.2385C384.095 26.865 383.668 32.0608 383.668 37.6837V101.813C383.668 114.056 380.394 124.59 373.917 133.344L374.059 133.273Z" fill="#F7F8F6"/>
<path d="M433.706 127.008C434.56 121.883 434.987 116.118 434.987 109.783V39.5325C434.987 32.3437 434.56 26.2937 433.706 21.3114C432.852 16.685 431.642 12.2009 430.076 7.93032C429.72 6.93386 430.432 5.86621 431.499 5.86621H453.279C454.133 5.86621 454.845 6.64916 454.774 7.50327C454.418 12.5568 454.133 17.5391 453.92 22.3791C453.706 27.7173 453.635 33.1267 453.635 38.4649V110.424C453.635 116.474 453.991 121.527 454.703 125.442C455.343 130.78 456.625 136.118 458.546 141.385C458.902 142.382 458.19 143.45 457.123 143.45H431.428C430.361 143.45 429.649 142.382 430.005 141.385C431.713 136.332 432.994 131.563 433.706 127.079V127.008ZM479.33 79.3911C473.92 77.327 466.304 76.3305 456.553 76.3305H443.67C442.816 76.3305 442.105 75.6188 442.105 74.7646V71.4905C442.105 70.6364 442.816 69.9247 443.67 69.9247H456.553C466.447 69.9247 474.063 68.857 479.401 66.7217C483.814 64.9423 488.155 61.953 492.426 57.6112C493.423 56.6147 495.06 57.2553 495.06 58.6077V86.8646C495.06 88.2169 493.423 88.8575 492.426 87.9322C488.155 83.8752 483.814 80.957 479.33 79.3199V79.3911ZM485.878 18.8203C479.045 14.4785 469.721 12.2721 457.834 12.2721H449.436C448.582 12.2721 447.87 11.5603 447.87 10.7062V7.43209C447.87 6.57798 448.582 5.86621 449.436 5.86621H503.458C504.312 5.86621 505.024 6.57798 505.024 7.43209L504.384 33.9808C504.384 35.4755 502.391 35.9737 501.537 34.7637C496.839 27.7173 491.643 22.3791 485.949 18.7491L485.878 18.8203Z" fill="#F7F8F6"/>
<path d="M538.973 137.616C531.286 131.637 525.236 123.167 520.894 112.348C516.552 101.459 514.346 89.0028 514.346 74.9099C514.346 60.817 516.481 49.4289 520.68 38.6101C524.88 27.7913 531.072 19.3214 539.115 13.2003C547.158 7.07912 556.553 4.01855 567.23 4.01855C576.554 4.01855 585.095 7.07912 592.853 13.1291C600.611 19.179 606.732 27.7202 611.145 38.7525C615.558 49.7848 617.836 62.2406 617.836 76.1911C617.836 89.2875 615.7 101.245 611.501 111.921C607.302 122.669 601.109 131.068 593.066 137.331C585.024 143.524 575.628 146.655 564.952 146.655C555.343 146.655 546.731 143.666 539.044 137.687L538.973 137.616ZM585.308 131.78C589.294 127.438 592.355 121.246 594.419 113.274C596.483 105.302 597.479 96.0492 597.479 85.444C597.479 69.7852 595.913 56.4753 592.853 45.443C589.721 34.4107 585.522 26.1543 580.184 20.6026C574.845 15.0508 568.724 12.275 561.963 12.275C555.77 12.275 550.574 14.3391 546.517 18.5385C542.389 22.6667 539.4 28.7166 537.549 36.546C535.627 44.3754 534.702 53.8418 534.702 65.0164C534.702 79.1093 536.126 91.7786 539.044 102.882C541.962 114.057 546.09 122.74 551.428 129.004C556.767 135.267 562.888 138.399 569.863 138.399C576.198 138.399 581.394 136.192 585.379 131.851L585.308 131.78Z" fill="#F7F8F6"/>
<path d="M736.63 148.928C736.63 145.369 736.06 141.952 734.921 138.678C733.996 135.974 732.786 133.554 731.291 131.347C730.722 130.564 730.936 129.568 731.79 129.141C736.914 126.578 742.822 122.948 749.655 118.464C750.438 117.966 751.577 118.108 752.075 118.963C754.281 122.877 755.42 127.432 755.42 132.7C755.42 137.611 754.424 142.522 752.431 147.291C750.438 152.059 747.662 156.045 744.103 159.248C741.47 161.597 738.694 163.163 735.847 164.017C734.566 164.373 733.427 163.092 733.925 161.882C735.704 157.896 736.558 153.554 736.558 148.999L736.63 148.928Z" fill="#F7F8F6"/>
<path d="M895.471 107.239C896.752 114.855 899.742 120.692 904.439 124.82C909.137 128.877 915.472 130.941 923.372 130.941L917.251 142.543C904.582 142.543 895.115 139.482 888.852 133.29C882.588 127.097 878.674 119.126 877.108 109.375C876.538 106.1 876.254 102.399 876.254 98.1287V33.7856C876.254 27.7356 875.755 22.1127 874.759 16.8456C873.905 12.7174 872.695 8.44688 871.2 3.89161C870.915 2.96632 871.556 2.04102 872.481 2.04102H897.678C898.816 2.04102 899.528 3.17985 899.172 4.17632C897.464 9.08747 896.396 13.5004 895.827 17.4862C895.186 21.9703 894.902 27.4509 894.902 33.7856V98.6981C894.902 101.83 895.115 104.606 895.542 107.168L895.471 107.239ZM950.277 129.446C943.8 138.201 932.767 142.543 917.251 142.543L923.372 130.941C932.411 130.941 939.387 128.165 944.298 122.684C949.209 117.204 951.7 109.232 951.7 98.7693V33.8567C951.7 27.5221 951.202 21.7568 950.205 16.4898C949.209 12.5039 947.928 8.44687 946.22 4.24748C945.793 3.25102 946.504 2.11221 947.572 2.11221H963.871C964.868 2.11221 965.508 3.10868 965.152 4.03396C963.231 9.44334 961.95 14.2121 961.167 18.4115C960.312 23.038 959.885 28.2338 959.885 33.8567V97.9864C959.885 110.229 956.611 120.763 950.134 129.517L950.277 129.446Z" fill="#F7F8F6"/>
<path d="M783.865 123.258C784.719 118.133 785.146 112.368 785.146 106.033V35.7825C785.146 28.5937 784.719 22.5437 783.865 17.5614C783.153 13.1485 781.943 8.73558 780.306 4.39384C779.879 3.25503 780.662 2.11621 781.872 2.11621H803.154C804.15 2.11621 804.933 2.89915 804.862 3.89561C804.506 8.3797 804.221 13.1485 804.079 18.4155C803.866 24.3231 803.794 30.0884 803.794 35.7825V106.033C803.794 117.421 804.364 128.027 805.503 137.849C805.645 138.845 804.862 139.7 803.866 139.7H781.872C780.733 139.7 779.95 138.561 780.306 137.422C782.014 132.511 783.224 127.742 783.936 123.329L783.865 123.258ZM831.197 74.8582C825.93 72.8652 818.457 71.8687 808.848 71.8687H795.823C794.47 71.8687 793.403 70.8011 793.403 69.4488V67.8117C793.403 66.4594 794.47 65.3917 795.823 65.3917H808.848C818.599 65.3917 826.072 64.3953 831.411 62.3312C835.681 60.6941 839.881 57.7759 844.009 53.5765C845.076 52.5089 846.927 53.1494 846.927 54.7153V82.1181C846.927 83.6128 845.148 84.3246 844.08 83.3281C839.809 79.3422 835.539 76.5664 831.197 74.9293V74.8582ZM846.073 20.1949C842.229 16.4938 837.389 13.5756 831.482 11.6538C825.574 9.66087 817.958 8.6644 808.634 8.6644H800.52C799.168 8.6644 798.1 7.59675 798.1 6.24441V4.60736C798.1 3.25502 799.168 2.18738 800.52 2.18738H856.393C857.319 2.18738 858.102 2.97031 858.102 3.96678L857.461 29.8749C857.461 31.5119 855.326 32.0813 854.401 30.729C851.696 26.5296 848.92 23.1131 846.073 20.3373V20.1949ZM798.1 135.5C798.1 134.148 799.168 133.08 800.52 133.08H808.634C817.958 133.08 825.432 132.155 831.197 130.233C836.962 128.311 841.66 125.535 845.361 121.763C848.279 118.845 851.411 114.93 854.756 110.019C855.682 108.667 857.746 109.307 857.746 110.944L858.102 137.92C858.102 138.845 857.319 139.628 856.393 139.628H800.449C799.097 139.628 798.029 138.561 798.029 137.208V135.571L798.1 135.5Z" fill="#F7F8F6"/>
<path d="M1002.73 15.2126C1001.02 11.3691 999.103 7.95266 996.825 4.82091C996.042 3.68209 996.825 2.11621 998.177 2.11621H1027.93C1029 2.11621 1029.78 3.11267 1029.49 4.10913C1029.21 5.31913 1028.93 6.74265 1028.71 8.45088C1028.36 11.1556 1028.21 14.0026 1028.21 17.1344C1028.21 23.1843 1028.93 28.7361 1030.35 33.8607L1056.26 121.051C1056.76 122.617 1055.55 124.183 1053.91 124.183C1052.27 124.183 1051.13 122.617 1051.56 121.051L1077.47 33.8607C1078.32 31.156 1078.96 28.309 1079.39 25.3196C1079.82 22.259 1080.03 19.3408 1080.03 16.5649C1080.03 13.4332 1079.82 10.6573 1079.39 8.23736C1079.18 6.81384 1078.82 5.60382 1078.39 4.46501C1077.97 3.32619 1078.75 2.18738 1079.89 2.18738H1098.68C1100.1 2.18738 1100.88 3.75326 1099.96 4.89207C1097.54 8.16617 1095.33 11.725 1093.48 15.5685C1091.06 20.5508 1088.64 27.0278 1086.08 34.9284L1053.48 138.49C1053.27 139.201 1052.63 139.7 1051.84 139.7H1044.16C1043.45 139.7 1042.73 139.201 1042.52 138.49L1009.92 34.9284C1007.22 26.7431 1004.8 20.1949 1002.59 15.2838L1002.73 15.2126Z" fill="#F7F8F6"/>
<path d="M1124.8 133.79C1117.11 127.811 1111.06 119.341 1106.72 108.522C1102.38 97.6324 1100.17 85.1766 1100.17 71.0837C1100.17 56.9909 1102.31 45.6027 1106.51 34.784C1110.71 23.9652 1116.9 15.4952 1124.94 9.3741C1132.98 3.25296 1142.38 0.192383 1153.06 0.192383C1162.38 0.192383 1170.92 3.25294 1178.68 9.30291C1186.44 15.3529 1192.56 23.894 1196.97 34.9263C1201.38 45.9586 1203.66 58.4144 1203.66 72.3649C1203.66 85.4613 1201.53 97.4189 1197.33 108.095C1193.13 118.772 1186.94 127.313 1178.89 133.505C1170.85 139.697 1161.45 142.829 1150.78 142.829C1141.17 142.829 1132.56 139.84 1124.87 133.861L1124.8 133.79ZM1171.13 127.953C1175.12 123.612 1178.18 117.419 1180.24 109.448C1182.31 101.476 1183.31 92.223 1183.31 81.6178C1183.31 65.959 1181.74 52.6491 1178.68 41.6168C1175.55 30.5846 1171.35 22.3281 1166.01 16.7764C1160.67 11.2247 1154.55 8.4488 1147.79 8.4488C1141.6 8.4488 1136.4 10.5129 1132.34 14.7123C1128.22 18.9117 1125.23 24.8905 1123.38 32.7198C1121.52 40.5492 1120.53 50.0156 1120.53 61.1903C1120.53 75.2831 1121.95 87.8813 1124.87 99.0559C1127.79 110.231 1131.92 118.914 1137.25 125.178C1142.59 131.441 1148.71 134.573 1155.69 134.573C1162.02 134.573 1167.22 132.366 1171.21 128.025L1171.13 127.953Z" fill="#F7F8F6"/>
<path d="M1242.1 107.243C1243.38 114.859 1246.37 120.696 1251.06 124.824C1255.76 128.952 1262.1 130.945 1270 130.945L1263.87 142.547C1251.21 142.547 1241.74 139.486 1235.48 133.294C1229.21 127.101 1225.3 119.13 1223.73 109.379C1223.16 106.104 1222.88 102.403 1222.88 98.2039V33.8607C1222.88 27.8108 1222.38 22.1878 1221.38 16.9208C1220.53 12.8638 1219.32 8.66441 1217.82 4.18032C1217.47 3.18386 1218.18 2.11621 1219.25 2.11621H1244.37C1245.44 2.11621 1246.15 3.18386 1245.8 4.18032C1244.09 9.16265 1242.95 13.5755 1242.38 17.5614C1241.74 22.0455 1241.45 27.5261 1241.45 33.8607V98.7733C1241.45 101.905 1241.67 104.681 1242.1 107.243ZM1296.9 129.45C1290.42 138.205 1279.39 142.547 1263.87 142.547L1270 130.945C1279.04 130.945 1286.01 128.169 1290.92 122.688C1295.83 117.208 1298.32 109.236 1298.32 98.7733V33.8607C1298.32 27.5261 1297.83 21.7608 1296.83 16.4938C1295.83 12.4367 1294.48 8.30853 1292.77 4.03797C1292.42 3.11268 1293.06 2.11621 1294.05 2.11621H1310.35C1311.42 2.11621 1312.13 3.18386 1311.78 4.18032C1309.93 9.51853 1308.57 14.2873 1307.86 18.4155C1307.01 23.042 1306.58 28.2378 1306.58 33.8607V97.9904C1306.58 110.233 1303.31 120.767 1296.83 129.521L1296.9 129.45Z" fill="#F7F8F6"/>
<path d="M1342.03 142.903C1347.57 142.903 1352.07 138.41 1352.07 132.867C1352.07 127.324 1347.57 122.831 1342.03 122.831C1336.49 122.831 1331.99 127.324 1331.99 132.867C1331.99 138.41 1336.49 142.903 1342.03 142.903Z" fill="#F7F8F6"/>
<path d="M1351.14 2.6875C1352.07 2.6875 1352.71 3.47043 1352.64 4.32455L1344.09 104.825H1340.18L1331.42 4.32455C1331.35 3.39926 1332.07 2.6875 1332.92 2.6875H1351.14Z" fill="#F7F8F6"/>
<path d="M685.737 78.6836L672.427 84.8047C673.566 84.8047 674.633 84.9471 675.559 85.2318L684.527 83.0253C687.658 82.3136 690.648 81.1748 693.424 79.6089C691.431 78.9683 688.797 78.6836 685.737 78.6836Z" fill="#F7F8F6"/>
<path d="M703.318 14.1226C694.706 8.57091 684.386 5.86621 672.214 5.86621H634.42C633.281 5.86621 632.427 7.00504 632.854 8.07268C634.42 12.6991 635.701 17.5391 636.698 22.7349C637.409 27.4326 637.765 32.9843 637.765 39.4613V109.712C637.765 116.047 637.338 121.812 636.555 126.937C635.915 131.492 634.705 136.19 632.996 141.243C632.641 142.24 633.352 143.378 634.491 143.378H659.545C660.755 143.378 661.609 142.097 661.182 140.958C659.26 135.407 657.837 129.855 656.983 124.303C656.413 120.104 656.129 115.193 656.129 109.712V90.3522L677.197 85.2275L686.165 83.0211C689.297 82.3093 692.286 81.1705 695.062 79.6046C697.126 78.537 699.19 77.2558 701.112 75.7611C705.667 72.1311 709.368 67.647 712.073 62.2377C714.849 56.7571 716.201 50.7783 716.201 44.1589C716.201 29.639 711.931 19.6032 703.318 14.1226ZM695.916 52.7712C695.347 58.8924 693.781 63.8747 691.29 67.7182C688.727 71.6329 685.524 74.4088 681.61 76.0458C677.766 77.754 673.282 78.6081 668.229 78.6081H656.129V33.1267C656.271 26.9343 656.556 20.0302 656.983 12.4144C660.043 12.2721 663.531 12.2009 667.374 12.2009C676.77 12.2009 683.958 15.1191 688.798 21.0979C693.71 27.0055 696.13 35.9025 696.13 47.7177C696.13 49.9954 696.058 51.7036 695.916 52.7712Z" fill="#F7F8F6"/>
<path d="M723.103 143.02C723.103 143.02 722.676 143.305 721.395 143.305C720.256 143.305 720.256 143.305 717.623 143.305H700.042C699.188 143.305 698.476 142.807 698.192 142.024L682.96 94.9053C681.536 90.6347 680.113 87.93 678.618 86.6489C677.764 85.9371 676.768 85.4388 675.558 85.1541L684.526 82.9477C687.658 82.2359 690.647 81.0971 693.423 79.5312C693.85 79.6736 694.277 79.8159 694.704 79.9583C696.91 80.8836 698.619 82.3783 699.9 84.3712C701.181 86.4353 702.462 89.4247 703.672 93.4106L712.996 122.593C714.277 126.507 715.914 129.924 717.48 132.771L720.683 138.038L722.178 140.173C722.178 140.173 723.744 142.095 723.103 142.949V143.02Z" fill="#F7F8F6"/>
</svg>
