<svg width="1514" height="165" viewBox="0 0 1514 165" fill="none" xmlns="http://www.w3.org/2000/svg">
<path d="M1384.14 65.0011C1383.64 63.8623 1383 62.8658 1382.29 62.0117H1390.4C1390.26 62.3676 1390.19 62.8658 1390.12 63.5064C1390.05 64.147 1389.98 64.7876 1389.98 65.4993C1389.98 66.9229 1390.12 68.204 1390.48 69.3428L1396.67 90.1263H1395.17L1401.37 69.3428C1401.58 68.7023 1401.72 68.0617 1401.79 67.3499C1401.86 66.6382 1401.93 65.9976 1401.93 65.357C1401.93 64.6452 1401.93 64.0047 1401.79 63.4352C1401.72 62.8658 1401.51 62.4388 1401.29 62.0117H1407.06C1406.28 62.937 1405.64 63.9335 1405.07 65.0723C1404.5 66.2111 1403.93 67.7058 1403.36 69.5564L1395.74 93.6139H1393.39L1385.78 69.5564C1385.14 67.7058 1384.57 66.1399 1384.07 65.0011H1384.14Z" fill="#09282B"/>
<path d="M1407.06 89.9822C1407.2 88.8434 1407.27 87.5622 1407.27 85.9963V78.9499C1407.27 77.0993 1407.2 75.4623 1407.06 74.2523C1406.91 73.0423 1406.63 71.9035 1406.2 70.9782C1407.98 70.3376 1409.76 69.697 1411.47 68.9141V85.9963C1411.47 87.491 1411.47 88.7722 1411.68 89.911C1411.97 91.4057 1412.25 92.6157 1412.68 93.6834H1406.27C1406.7 92.4022 1407.06 91.1922 1407.2 90.0534L1407.06 89.9822Z" fill="#09282B"/>
<path d="M1416.24 85.4319C1417.02 84.5778 1417.88 83.866 1418.8 83.3678C1419.73 82.8696 1420.94 82.3713 1422.22 81.9443C1422.22 81.9443 1422.43 81.8731 1422.72 81.7308C1423.79 81.3749 1424.64 81.019 1425.42 80.6631C1426.21 80.3072 1426.85 79.9513 1427.27 79.6666C1427.7 79.3819 1427.99 79.0972 1427.99 78.8837V78.3143C1427.99 76.0366 1427.7 74.1149 1427.06 72.6202C1426.42 71.1255 1425.21 70.3426 1423.43 70.3426C1422.43 70.3426 1421.65 70.6273 1421.01 71.1967C1420.44 71.7661 1420.16 72.6202 1420.16 73.759C1420.16 75.0402 1420.51 76.5349 1421.15 78.172L1416.03 77.8872V76.3926C1416.03 75.1114 1416.31 73.9014 1416.88 72.8337C1417.45 71.6949 1418.38 70.7696 1419.59 70.0579C1420.8 69.3461 1422.43 68.9902 1424.36 68.9902C1426.92 68.9902 1428.77 69.5596 1429.91 70.8408C1431.05 72.122 1431.69 73.6167 1431.97 75.4673C1431.97 76.179 1432.04 77.0331 1432.04 78.0296V86.2148C1432.04 87.9942 1432.11 89.4178 1432.26 90.4854C1432.47 91.6242 1432.83 92.6918 1433.25 93.8307H1428.7C1428.7 93.8307 1428.27 92.9766 1428.13 92.4072C1428.06 92.0513 1427.99 91.7666 1427.91 91.4107C1427.84 91.0548 1427.84 90.7701 1427.77 90.4854V83.9372C1427.77 83.9372 1427.77 83.3678 1427.7 83.2966C1427.7 83.1543 1427.49 83.0831 1427.2 83.0119C1426.99 83.0119 1426.49 82.9407 1425.85 82.9407C1423.36 82.9407 1421.58 83.2966 1420.58 84.0084C1419.59 84.7201 1419.02 85.859 1419.02 87.4248C1419.02 88.5637 1419.37 89.4889 1420.01 90.1295C1420.65 90.7701 1421.65 91.126 1422.93 91.126C1424.93 91.126 1426.7 90.3431 1428.27 88.8484L1428.13 89.8448C1427.35 91.2683 1426.35 92.336 1425 93.0477C1423.64 93.8307 1422.22 94.1866 1420.73 94.1866C1418.95 94.1866 1417.59 93.6883 1416.53 92.763C1415.46 91.8377 1414.89 90.5566 1414.89 88.9195C1414.89 87.5672 1415.25 86.4995 1416.03 85.6454L1416.24 85.4319Z" fill="#09282B"/>
<path d="M1439.09 102.439C1437.45 101.94 1435.89 101.229 1434.39 100.09L1437.1 95.6768C1438.52 97.3851 1440.01 98.5951 1441.58 99.378C1443.15 100.161 1444.78 100.446 1446.63 100.446C1448.2 100.446 1449.48 100.161 1450.41 99.4492C1451.33 98.8086 1451.83 97.9545 1451.83 96.8157C1451.83 95.8192 1451.47 95.0363 1450.76 94.538C1450.05 94.0398 1448.77 93.7551 1446.99 93.7551H1441.44C1439.73 93.7551 1438.38 93.5416 1437.52 93.1145C1436.67 92.6875 1436.17 91.9045 1436.17 90.7657C1436.17 89.5557 1436.74 88.3457 1437.81 87.1357C1438.88 85.9257 1440.23 84.7869 1441.87 83.7904L1442.43 84.9292C1441.3 85.5698 1440.51 86.2104 1439.94 86.851C1439.37 87.4916 1439.16 88.1322 1439.16 88.7016C1439.16 89.1998 1439.45 89.5557 1439.94 89.6981C1440.44 89.8404 1441.37 89.9116 1442.72 89.9116H1447.63C1449.2 89.9116 1450.48 89.9828 1451.4 90.1251C1452.33 90.2675 1453.11 90.6945 1453.68 91.2639C1454.25 91.8333 1454.53 92.8298 1454.53 94.111C1454.53 95.748 1454.11 97.2427 1453.18 98.5951C1452.26 99.9474 1451.05 101.015 1449.48 101.798C1447.92 102.581 1446.21 102.937 1444.43 102.937C1442.65 102.937 1440.87 102.723 1439.23 102.225L1439.09 102.439ZM1439.94 85.0716C1438.59 84.3598 1437.59 83.4346 1436.81 82.1534C1436.03 80.8722 1435.67 79.4487 1435.67 77.8116C1435.67 76.1746 1436.1 74.6087 1436.88 73.2564C1437.74 71.904 1438.8 70.7652 1440.23 69.9823C1441.65 69.1994 1443.22 68.7723 1445 68.7723C1446.78 68.7723 1448.2 69.1282 1449.48 69.9111C1450.83 70.6229 1451.83 71.6905 1452.54 72.9005C1453.25 74.1817 1453.61 75.534 1453.61 77.0287C1453.61 78.737 1453.18 80.2316 1452.4 81.6552C1451.62 83.0075 1450.48 84.1463 1449.05 84.9292C1447.63 85.7122 1446.06 86.1393 1444.29 86.1393C1442.65 86.1393 1441.15 85.7834 1439.87 85.0716H1439.94ZM1447.35 84.004C1447.99 83.5769 1448.48 82.8651 1448.77 82.011C1449.05 81.1569 1449.27 80.0893 1449.27 78.8081C1449.27 76.5305 1448.84 74.6087 1448.06 72.9005C1447.27 71.1923 1445.92 70.4094 1444.07 70.4094C1442.79 70.4094 1441.79 70.9076 1441.08 71.8329C1440.37 72.7581 1439.94 74.2528 1439.94 76.317C1439.94 78.3811 1440.3 80.374 1441.08 82.0822C1441.87 83.7904 1443.15 84.6446 1445.07 84.6446C1445.99 84.6446 1446.78 84.431 1447.42 83.9328L1447.35 84.004ZM1452.04 65.6405C1452.97 64.7864 1454.11 64.3594 1455.39 64.3594C1455.96 64.3594 1456.46 64.4306 1456.74 64.5729L1456.1 70.1246C1455.82 69.6976 1455.39 69.2705 1454.89 68.9858C1454.39 68.7011 1453.89 68.5588 1453.32 68.5588C1452.04 68.5588 1451.19 69.4129 1450.62 71.1923L1449.77 70.4805C1450.34 68.1317 1451.05 66.4947 1451.97 65.6405H1452.04Z" fill="#09282B"/>
<path d="M1472.33 91.2679C1471.69 92.1932 1470.83 92.9049 1469.77 93.4032C1468.7 93.9726 1467.42 94.1861 1465.99 94.1861C1464.07 94.1861 1462.29 93.6879 1460.8 92.6202C1459.3 91.5526 1458.16 90.1291 1457.31 88.2073C1456.46 86.3568 1456.1 84.1503 1456.1 81.6591C1456.1 79.3815 1456.46 77.2462 1457.17 75.2533C1457.88 73.2604 1458.95 71.6945 1460.44 70.4845C1461.94 69.2745 1463.72 68.7051 1465.85 68.7051C1467.99 68.7051 1469.77 69.2745 1471.05 70.4133C1472.33 71.5521 1473.18 73.118 1473.54 75.0397C1473.68 75.965 1473.75 76.8191 1473.75 77.6021V81.0897H1459.94V79.9509H1467.56C1468.13 79.9509 1468.49 79.9509 1468.77 79.8086C1468.98 79.6662 1469.2 79.4527 1469.27 79.168C1469.34 78.8833 1469.41 78.3139 1469.41 77.6733C1469.41 77.1039 1469.41 76.3921 1469.34 75.538C1469.13 73.8297 1468.7 72.5486 1467.99 71.6233C1467.28 70.7692 1466.35 70.271 1465.28 70.271C1464.21 70.271 1463.36 70.6268 1462.65 71.4098C1461.94 72.1215 1461.37 73.2603 1460.94 74.6839C1460.51 76.1074 1460.3 77.8156 1460.3 79.8086C1460.3 82.015 1460.58 83.8656 1461.08 85.3603C1461.58 86.855 1462.44 88.1361 1463.65 88.9902C1464.78 89.8444 1466.28 90.2714 1468.13 90.2714C1469.2 90.2714 1470.12 90.1291 1470.91 89.7732C1471.69 89.4173 1472.54 88.9191 1473.47 88.2073C1473.33 89.3461 1472.9 90.3426 1472.26 91.2679H1472.33Z" fill="#09282B"/>
<path d="M1477.45 89.9859C1477.59 88.847 1477.67 87.5659 1477.67 86V78.9535C1477.67 76.9606 1477.59 75.3948 1477.45 74.1848C1477.31 72.9748 1477.02 71.9071 1476.6 71.053L1477.88 70.4124C1479.16 69.843 1480.23 69.2736 1481.08 68.7754C1481.3 69.2736 1481.44 69.9854 1481.65 70.8395C1481.79 71.6936 1481.86 72.5477 1481.86 73.3307V85.9288C1481.86 87.4947 1481.94 88.847 1482.08 89.9859C1482.22 91.1247 1482.58 92.3347 1483 93.6158H1476.6C1477.02 92.3347 1477.38 91.1247 1477.52 89.9859H1477.45ZM1490.69 92.477C1490.55 91.5517 1490.41 90.5553 1490.33 89.4876C1490.26 88.42 1490.26 87.2811 1490.26 86.0711V76.6759C1490.26 76.6759 1490.26 75.893 1490.19 75.3236C1490.05 74.1848 1489.69 73.4018 1489.2 72.8324C1488.63 72.263 1487.84 71.9783 1486.85 71.9783C1485.99 71.9783 1485.14 72.1918 1484.21 72.6901C1483.29 73.1883 1482.36 74.0424 1481.51 75.3236L1481.01 75.1101C1482.01 72.9036 1483.22 71.3377 1484.57 70.4124C1485.92 69.4871 1487.42 68.9889 1488.98 68.9889C1490.55 68.9889 1491.83 69.4871 1492.75 70.4124C1493.68 71.3377 1494.25 72.8324 1494.39 74.8253C1494.39 75.0389 1494.39 75.3947 1494.39 75.8218V86C1494.39 87.4947 1494.46 88.847 1494.61 89.9147C1494.82 91.1247 1495.17 92.4058 1495.6 93.687H1490.83C1490.83 93.687 1490.69 93.0464 1490.62 92.5482L1490.69 92.477Z" fill="#09282B"/>
<path d="M1501.94 71.69C1501.3 72.1882 1501.01 72.8999 1501.01 73.754C1501.01 74.8929 1501.37 75.8181 1502.01 76.5299C1502.65 77.2417 1503.86 78.0246 1505.43 78.8076L1508.56 80.4446C1509.91 81.1564 1510.98 81.9393 1511.83 82.8646C1512.69 83.7899 1513.04 85.1422 1513.04 86.7793C1513.04 88.274 1512.69 89.6263 1511.9 90.6939C1511.12 91.7616 1510.2 92.6157 1508.99 93.2563C1507.78 93.8257 1506.57 94.1104 1505.21 94.1104C1503.29 94.1104 1501.58 93.6122 1500.09 92.5445C1498.59 91.4769 1497.45 90.1246 1496.67 88.3451L1500.59 85.7116C1501.16 87.7757 1501.94 89.4128 1503.01 90.4804C1504.07 91.5481 1505.36 92.1886 1506.78 92.1886C1507.78 92.1886 1508.63 91.9039 1509.27 91.3345C1509.91 90.7651 1510.27 89.911 1510.27 88.7722C1510.27 87.7757 1509.98 86.9216 1509.34 86.2098C1508.7 85.4981 1507.85 84.8575 1506.64 84.2169L1502.51 82.224C1501.23 81.5834 1500.09 80.7293 1499.09 79.804C1498.1 78.8787 1497.6 77.5975 1497.6 76.0317C1497.6 74.6793 1497.95 73.4693 1498.66 72.4017C1499.38 71.3341 1500.44 70.4799 1501.8 69.8394C1503.15 69.1988 1504.93 68.9141 1507.06 68.9141C1507.92 68.9141 1508.77 68.9853 1509.7 69.1276C1510.62 69.27 1511.41 69.4835 1512.05 69.7682L1511.26 76.2452C1510.34 74.4658 1509.27 73.1135 1508.13 72.2593C1506.99 71.4052 1505.71 70.9782 1504.22 70.9782C1503.15 70.9782 1502.37 71.2629 1501.73 71.7611L1501.94 71.69Z" fill="#09282B"/>
<path d="M25.1516 20.4765C21.664 24.0353 19.9558 28.8752 19.9558 35.0675C19.9558 40.4057 21.8063 45.1034 25.4363 49.0181C29.0663 53.0039 35.6145 57.8439 44.8674 63.6092L60.3126 73.3603C68.2131 78.1291 74.1207 83.1826 78.1066 88.5208C82.0925 93.859 84.0142 100.122 84.0142 107.454C84.0142 115.354 82.0925 122.329 78.3201 128.308C74.4766 134.287 69.4943 138.913 63.1596 142.045C56.8961 145.248 50.2056 146.814 43.1592 146.814C32.6963 146.814 23.8704 143.611 16.6105 137.205C9.63524 131.084 4.43939 122.97 0.880584 113.077C0.59588 112.294 0.880584 111.439 1.59234 111.084L16.3258 102.471C17.2511 101.902 18.4611 102.471 18.7458 103.468C22.1622 115.069 26.504 123.611 31.771 129.091C37.3227 134.856 43.2303 137.775 49.4226 137.775C55.615 137.775 60.3838 136.066 64.1561 132.579C67.9284 129.091 69.779 124.465 69.779 118.486C69.779 112.507 68.4267 107.809 65.7931 103.752C63.0885 99.7666 57.8926 95.3537 50.1344 90.5137L30.4898 78.2714C25.294 74.9973 20.8811 71.8656 17.2511 68.7338C13.6211 65.6021 10.7741 62.0433 8.70995 57.9151C6.57467 53.858 5.50703 49.1604 5.50703 43.9646C5.50703 37.0605 7.42878 30.5835 11.3435 24.6047C15.2581 18.6259 20.6675 13.8571 27.6428 10.2983C34.618 6.81065 42.8033 5.03125 52.0562 5.03125C62.9461 5.03125 71.7719 6.31241 78.5337 8.94593C79.3166 9.23063 79.7436 10.0136 79.6013 10.8677L76.256 35.9928C76.0425 37.6299 73.9072 38.0569 72.9819 36.6334C68.7825 30.1564 64.0849 25.1741 58.8891 21.6153C52.5544 17.3447 45.935 15.1383 39.0309 15.1383C33.2657 15.1383 28.6392 16.9177 25.1516 20.4053V20.4765Z" fill="#09282B"/>
<path d="M90.2088 127.597C91.0629 122.472 91.49 116.707 91.49 110.372V40.1214C91.49 32.9326 91.0629 26.8826 90.2088 21.9003C89.497 17.4874 88.287 13.0745 86.65 8.73272C86.2229 7.59391 87.0059 6.45508 88.2159 6.45508H111.348C110.921 11.3662 110.636 16.8468 110.423 22.7544C110.209 28.662 110.138 34.4985 110.138 40.1214V110.372C110.138 122.472 110.779 133.718 112.06 144.038H88.2159C87.077 144.038 86.2941 142.9 86.65 141.761C88.3582 136.85 89.5682 132.081 90.28 127.668L90.2088 127.597ZM137.47 79.2682C132.203 77.2753 124.729 76.2788 115.12 76.2788H99.6752V69.7306H115.12C124.872 69.7306 132.345 68.7341 137.683 66.67C141.954 65.033 146.224 62.0436 150.353 57.8442C151.42 56.7766 153.2 57.4172 153.2 58.9119V86.5281C153.2 88.0228 151.491 88.6634 150.424 87.667C146.153 83.6811 141.811 80.8341 137.47 79.2682ZM152.345 24.5338C148.502 20.8326 143.662 17.9144 137.754 15.9927C131.847 13.9997 124.231 13.0033 114.907 13.0033H104.302V6.45508H162.808C163.662 6.45508 164.303 7.16685 164.303 8.02096L163.662 34.1426C163.662 35.7796 161.527 36.349 160.602 34.9967C157.897 30.7973 155.121 27.3097 152.274 24.605L152.345 24.5338ZM104.373 137.419H114.978C124.302 137.419 131.776 136.494 137.541 134.572C143.235 132.65 148.004 129.874 151.705 126.102C154.623 123.184 157.755 119.269 161.1 114.358C162.025 113.006 164.09 113.646 164.09 115.212L164.445 142.33C164.445 143.184 163.734 143.896 162.88 143.896H104.373V137.348V137.419Z" fill="#09282B"/>
<path d="M196.97 6.45508H286.581C287.506 6.45508 288.218 7.16685 288.218 8.09214L288.36 35.3526C288.36 37.132 285.94 37.6302 285.228 35.9932C282.951 30.8685 280.744 26.8114 278.609 23.8932C275.406 19.6227 271.42 16.6333 266.651 14.9962C261.883 13.3592 254.978 12.5762 246.153 12.5762H237.896C228.857 12.5762 221.953 13.3592 217.184 14.9962C212.415 16.6333 208.429 19.5515 205.226 23.8932C203.02 26.8826 200.742 31.0108 198.393 36.2778C197.682 37.9149 195.262 37.3455 195.262 35.5661L195.404 8.09214C195.404 7.16685 196.116 6.45508 197.041 6.45508H196.97ZM231.277 127.454C232.131 122.259 232.558 116.493 232.558 110.301V9.80036C232.558 8.87507 233.27 8.16332 234.195 8.16332H249.498C250.423 8.16332 251.135 8.87507 251.135 9.80036V110.301C251.135 116.066 251.42 121.191 251.989 125.533C252.701 131.156 254.053 136.565 256.046 141.832C256.402 142.9 255.69 143.967 254.623 143.967H229.07C228.003 143.967 227.291 142.9 227.576 141.832C229.284 136.85 230.494 132.01 231.277 127.454Z" fill="#09282B"/>
<path d="M319.254 111.656C320.535 119.272 323.524 125.108 328.222 129.237C332.92 133.294 339.254 135.358 347.155 135.358L341.034 146.959C328.364 146.959 318.827 143.828 312.563 137.635C306.3 131.443 302.385 123.471 300.819 113.72C300.25 110.446 299.965 106.745 299.965 102.474V38.1312C299.965 32.0813 299.467 26.4584 298.47 21.1913C297.616 17.1343 296.406 12.7926 294.912 8.30846C294.627 7.38317 295.268 6.38672 296.264 6.38672H321.674C322.67 6.38672 323.311 7.38317 323.026 8.30846C321.318 13.2908 320.179 17.7749 319.61 21.8319C318.969 26.316 318.684 31.7966 318.684 38.1312V103.044C318.684 106.176 318.898 108.951 319.325 111.514L319.254 111.656ZM374.059 133.863C367.582 142.618 356.55 146.959 341.034 146.959L347.155 135.358C356.194 135.358 363.17 132.582 368.081 127.101C372.992 121.621 375.483 113.649 375.483 103.186V38.2736C375.483 31.9389 374.985 26.1737 373.988 20.9066C372.992 16.8496 371.639 12.7214 369.931 8.522C369.575 7.59671 370.216 6.52906 371.212 6.52906H387.654C388.651 6.52906 389.291 7.52553 388.935 8.45082C387.013 13.8602 385.732 18.629 384.949 22.8284C384.095 27.4548 383.668 32.6507 383.668 38.2736V102.403C383.668 114.645 380.394 125.18 373.917 133.934L374.059 133.863Z" fill="#09282B"/>
<path d="M433.706 127.597C434.56 122.472 434.987 116.707 434.987 110.372V40.1214C434.987 32.9326 434.56 26.8826 433.706 21.9003C432.852 17.2738 431.642 12.7898 430.076 8.51919C429.72 7.52273 430.432 6.45508 431.499 6.45508H453.279C454.133 6.45508 454.845 7.23803 454.774 8.09214C454.418 13.1456 454.133 18.128 453.92 22.9679C453.706 28.3061 453.635 33.7155 453.635 39.0537V111.013C453.635 117.063 453.991 122.116 454.703 126.031C455.343 131.369 456.625 136.707 458.546 141.974C458.902 142.971 458.19 144.038 457.123 144.038H431.428C430.361 144.038 429.649 142.971 430.005 141.974C431.713 136.921 432.994 132.152 433.706 127.668V127.597ZM479.33 79.98C473.92 77.9159 466.304 76.9194 456.553 76.9194H443.67C442.816 76.9194 442.105 76.2076 442.105 75.3535V72.0794C442.105 71.2253 442.816 70.5135 443.67 70.5135H456.553C466.447 70.5135 474.063 69.4459 479.401 67.3106C483.814 65.5312 488.155 62.5418 492.426 58.2001C493.423 57.2036 495.06 57.8442 495.06 59.1965V87.4534C495.06 88.8058 493.423 89.4464 492.426 88.5211C488.155 84.4641 483.814 81.5458 479.33 79.9088V79.98ZM485.878 19.4091C479.045 15.0674 469.721 12.8609 457.834 12.8609H449.436C448.582 12.8609 447.87 12.1492 447.87 11.2951V8.02096C447.87 7.16685 448.582 6.45508 449.436 6.45508H503.458C504.312 6.45508 505.024 7.16685 505.024 8.02096L504.384 34.5696C504.384 36.0643 502.391 36.5626 501.537 35.3526C496.839 28.3061 491.643 22.9679 485.949 19.338L485.878 19.4091Z" fill="#09282B"/>
<path d="M538.973 138.205C531.286 132.226 525.236 123.756 520.894 112.937C516.552 102.047 514.346 89.5916 514.346 75.4988C514.346 61.4059 516.481 50.0177 520.68 39.199C524.88 28.3802 531.072 19.9103 539.115 13.7891C547.158 7.66799 556.553 4.60742 567.23 4.60742C576.554 4.60742 585.095 7.66798 592.853 13.7179C600.611 19.7679 606.732 28.309 611.145 39.3413C615.558 50.3736 617.836 62.8294 617.836 76.7799C617.836 89.8763 615.7 101.834 611.501 112.51C607.302 123.258 601.109 131.657 593.066 137.92C585.024 144.112 575.628 147.244 564.952 147.244C555.343 147.244 546.731 144.255 539.044 138.276L538.973 138.205ZM585.308 132.368C589.294 128.027 592.355 121.834 594.419 113.863C596.483 105.891 597.479 96.6381 597.479 86.0328C597.479 70.3741 595.913 57.0642 592.853 46.0319C589.721 34.9996 585.522 26.7432 580.184 21.1914C574.845 15.6397 568.724 12.8638 561.963 12.8638C555.77 12.8638 550.574 14.9279 546.517 19.1273C542.389 23.2555 539.4 29.3055 537.549 37.1349C535.627 44.9642 534.702 54.4307 534.702 65.6053C534.702 79.6982 536.126 92.3675 539.044 103.471C541.962 114.646 546.09 123.329 551.428 129.593C556.767 135.856 562.888 138.988 569.863 138.988C576.198 138.988 581.394 136.781 585.379 132.44L585.308 132.368Z" fill="#09282B"/>
<path d="M736.63 149.516C736.63 145.957 736.06 142.54 734.921 139.266C733.996 136.562 732.786 134.142 731.291 131.935C730.722 131.152 730.936 130.156 731.79 129.729C736.914 127.166 742.822 123.536 749.655 119.052C750.438 118.554 751.577 118.696 752.075 119.55C754.281 123.465 755.42 128.02 755.42 133.287C755.42 138.199 754.424 143.11 752.431 147.879C750.438 152.647 747.662 156.633 744.103 159.836C741.47 162.185 738.694 163.751 735.847 164.605C734.566 164.961 733.427 163.68 733.925 162.47C735.704 158.484 736.558 154.142 736.558 149.587L736.63 149.516Z" fill="#09282B"/>
<path d="M895.471 107.829C896.752 115.445 899.742 121.281 904.439 125.41C909.137 129.467 915.472 131.531 923.372 131.531L917.251 143.132C904.582 143.132 895.115 140.072 888.852 133.88C882.588 127.687 878.674 119.715 877.108 109.964C876.538 106.69 876.254 102.989 876.254 98.7185V34.3754C876.254 28.3254 875.755 22.7025 874.759 17.4355C873.905 13.3073 872.695 9.03672 871.2 4.48145C870.915 3.55616 871.556 2.63086 872.481 2.63086H897.678C898.816 2.63086 899.528 3.7697 899.172 4.76616C897.464 9.67731 896.396 14.0902 895.827 18.0761C895.186 22.5602 894.902 28.0407 894.902 34.3754V99.288C894.902 102.42 895.115 105.196 895.542 107.758L895.471 107.829ZM950.277 130.036C943.8 138.791 932.767 143.132 917.251 143.132L923.372 131.531C932.411 131.531 939.387 128.755 944.298 123.274C949.209 117.794 951.7 109.822 951.7 99.3591V34.4466C951.7 28.1119 951.202 22.3466 950.205 17.0796C949.209 13.0938 947.928 9.03671 946.22 4.83733C945.793 3.84086 946.504 2.70205 947.572 2.70205H963.871C964.868 2.70205 965.508 3.69852 965.152 4.62381C963.231 10.0332 961.95 14.802 961.167 19.0014C960.312 23.6278 959.885 28.8237 959.885 34.4466V98.5762C959.885 110.818 956.611 121.353 950.134 130.107L950.277 130.036Z" fill="#09282B"/>
<path d="M783.865 123.847C784.719 118.722 785.146 112.957 785.146 106.622V36.3714C785.146 29.1826 784.719 23.1326 783.865 18.1503C783.153 13.7374 781.943 9.32445 780.306 4.98271C779.879 3.84389 780.662 2.70508 781.872 2.70508H803.154C804.15 2.70508 804.933 3.48801 804.862 4.48448C804.506 8.96857 804.221 13.7374 804.079 19.0044C803.866 24.912 803.794 30.6773 803.794 36.3714V106.622C803.794 118.01 804.364 128.616 805.503 138.438C805.645 139.434 804.862 140.288 803.866 140.288H781.872C780.733 140.288 779.95 139.15 780.306 138.011C782.014 133.1 783.224 128.331 783.936 123.918L783.865 123.847ZM831.197 75.447C825.93 73.4541 818.457 72.4576 808.848 72.4576H795.823C794.47 72.4576 793.403 71.39 793.403 70.0376V68.4006C793.403 67.0482 794.47 65.9806 795.823 65.9806H808.848C818.599 65.9806 826.072 64.9841 831.411 62.92C835.681 61.283 839.881 58.3648 844.009 54.1654C845.076 53.0977 846.927 53.7383 846.927 55.3042V82.707C846.927 84.2017 845.148 84.9134 844.08 83.917C839.809 79.9311 835.539 77.1552 831.197 75.5182V75.447ZM846.073 20.7838C842.229 17.0826 837.389 14.1644 831.482 12.2427C825.574 10.2497 817.958 9.25326 808.634 9.25326H800.52C799.168 9.25326 798.1 8.18562 798.1 6.83328V5.19623C798.1 3.84388 799.168 2.77624 800.52 2.77624H856.393C857.319 2.77624 858.102 3.55918 858.102 4.55564L857.461 30.4637C857.461 32.1008 855.326 32.6702 854.401 31.3179C851.696 27.1185 848.92 23.702 846.073 20.9261V20.7838ZM798.1 136.089C798.1 134.737 799.168 133.669 800.52 133.669H808.634C817.958 133.669 825.432 132.744 831.197 130.822C836.962 128.9 841.66 126.124 845.361 122.352C848.279 119.434 851.411 115.519 854.756 110.608C855.682 109.256 857.746 109.896 857.746 111.533L858.102 138.509C858.102 139.434 857.319 140.217 856.393 140.217H800.449C799.097 140.217 798.029 139.15 798.029 137.797V136.16L798.1 136.089Z" fill="#09282B"/>
<path d="M1002.73 15.8015C1001.02 11.958 999.103 8.54152 996.825 5.40978C996.042 4.27096 996.825 2.70508 998.177 2.70508H1027.93C1029 2.70508 1029.78 3.70153 1029.49 4.698C1029.21 5.90799 1028.93 7.33152 1028.71 9.03974C1028.36 11.7444 1028.21 14.5915 1028.21 17.7232C1028.21 23.7732 1028.93 29.3249 1030.35 34.4496L1056.26 121.64C1056.76 123.206 1055.55 124.772 1053.91 124.772C1052.27 124.772 1051.13 123.206 1051.56 121.64L1077.47 34.4496C1078.32 31.7449 1078.96 28.8979 1079.39 25.9085C1079.82 22.8479 1080.03 19.9297 1080.03 17.1538C1080.03 14.0221 1079.82 11.2462 1079.39 8.82622C1079.18 7.4027 1078.82 6.19269 1078.39 5.05387C1077.97 3.91506 1078.75 2.77624 1079.89 2.77624H1098.68C1100.1 2.77624 1100.88 4.34212 1099.96 5.48094C1097.54 8.75504 1095.33 12.3138 1093.48 16.1573C1091.06 21.1397 1088.64 27.6167 1086.08 35.5172L1053.48 139.078C1053.27 139.79 1052.63 140.288 1051.84 140.288H1044.16C1043.45 140.288 1042.73 139.79 1042.52 139.078L1009.92 35.5172C1007.22 27.332 1004.8 20.7838 1002.59 15.8726L1002.73 15.8015Z" fill="#09282B"/>
<path d="M1124.8 134.379C1117.11 128.4 1111.06 119.93 1106.72 109.111C1102.38 98.2213 1100.17 85.7655 1100.17 71.6726C1100.17 57.5797 1102.31 46.1916 1106.51 35.3728C1110.71 24.5541 1116.9 16.0841 1124.94 9.96297C1132.98 3.84183 1142.38 0.78125 1153.06 0.78125C1162.38 0.78125 1170.92 3.84181 1178.68 9.89178C1186.44 15.9417 1192.56 24.4829 1196.97 35.5152C1201.38 46.5475 1203.66 59.0033 1203.66 72.9538C1203.66 86.0502 1201.53 98.0077 1197.33 108.684C1193.13 119.361 1186.94 127.902 1178.89 134.094C1170.85 140.286 1161.45 143.418 1150.78 143.418C1141.17 143.418 1132.56 140.429 1124.87 134.45L1124.8 134.379ZM1171.13 128.542C1175.12 124.201 1178.18 118.008 1180.24 110.037C1182.31 102.065 1183.31 92.8119 1183.31 82.2066C1183.31 66.5479 1181.74 53.238 1178.68 42.2057C1175.55 31.1734 1171.35 22.917 1166.01 17.3653C1160.67 11.8135 1154.55 9.03767 1147.79 9.03767C1141.6 9.03767 1136.4 11.1018 1132.34 15.3012C1128.22 19.5006 1125.23 25.4793 1123.38 33.3087C1121.52 41.1381 1120.53 50.6045 1120.53 61.7791C1120.53 75.872 1121.95 88.4701 1124.87 99.6448C1127.79 110.819 1131.92 119.503 1137.25 125.766C1142.59 132.03 1148.71 135.162 1155.69 135.162C1162.02 135.162 1167.22 132.955 1171.21 128.613L1171.13 128.542Z" fill="#09282B"/>
<path d="M1242.1 107.832C1243.38 115.448 1246.37 121.284 1251.06 125.413C1255.76 129.541 1262.1 131.534 1270 131.534L1263.87 143.135C1251.21 143.135 1241.74 140.075 1235.48 133.883C1229.21 127.69 1225.3 119.719 1223.73 109.967C1223.16 106.693 1222.88 102.992 1222.88 98.7928V34.4496C1222.88 28.3996 1222.38 22.7767 1221.38 17.5097C1220.53 13.4526 1219.32 9.25328 1217.82 4.76919C1217.47 3.77273 1218.18 2.70508 1219.25 2.70508H1244.37C1245.44 2.70508 1246.15 3.77273 1245.8 4.76919C1244.09 9.75151 1242.95 14.1644 1242.38 18.1503C1241.74 22.6344 1241.45 28.1149 1241.45 34.4496V99.3621C1241.45 102.494 1241.67 105.27 1242.1 107.832ZM1296.9 130.039C1290.42 138.794 1279.39 143.135 1263.87 143.135L1270 131.534C1279.04 131.534 1286.01 128.758 1290.92 123.277C1295.83 117.797 1298.32 109.825 1298.32 99.3621V34.4496C1298.32 28.1149 1297.83 22.3497 1296.83 17.0826C1295.83 13.0256 1294.48 8.8974 1292.77 4.62683C1292.42 3.70155 1293.06 2.70508 1294.05 2.70508H1310.35C1311.42 2.70508 1312.13 3.77273 1311.78 4.76919C1309.93 10.1074 1308.57 14.8762 1307.86 19.0044C1307.01 23.6308 1306.58 28.8267 1306.58 34.4496V98.5792C1306.58 110.822 1303.31 121.356 1296.83 130.11L1296.9 130.039Z" fill="#09282B"/>
<path d="M1342.03 143.494C1347.57 143.494 1352.07 139 1352.07 133.458C1352.07 127.915 1347.57 123.422 1342.03 123.422C1336.49 123.422 1331.99 127.915 1331.99 133.458C1331.99 139 1336.49 143.494 1342.03 143.494Z" fill="#09282B"/>
<path d="M1351.14 3.27539C1352.07 3.27539 1352.71 4.05832 1352.64 4.91244L1344.09 105.413H1340.18L1331.42 4.91244C1331.35 3.98715 1332.07 3.27539 1332.92 3.27539H1351.14Z" fill="#09282B"/>
<path d="M685.737 79.2734L672.427 85.3946C673.566 85.3946 674.633 85.5369 675.559 85.8216L684.527 83.6152C687.658 82.9034 690.648 81.7646 693.424 80.1987C691.431 79.5581 688.797 79.2734 685.737 79.2734Z" fill="#09282B"/>
<path d="M703.318 14.7115C694.706 9.15978 684.386 6.45508 672.214 6.45508H634.42C633.281 6.45508 632.427 7.5939 632.854 8.66155C634.42 13.288 635.701 18.128 636.698 23.3238C637.409 28.0214 637.765 33.5732 637.765 40.0502V110.301C637.765 116.636 637.338 122.401 636.555 127.526C635.915 132.081 634.705 136.778 632.996 141.832C632.641 142.828 633.352 143.967 634.491 143.967H659.545C660.755 143.967 661.609 142.686 661.182 141.547C659.26 135.995 657.837 130.444 656.983 124.892C656.413 120.693 656.129 115.781 656.129 110.301V90.9411L677.197 85.8164L686.165 83.6099C689.297 82.8982 692.286 81.7593 695.062 80.1935C697.126 79.1258 699.19 77.8447 701.112 76.35C705.667 72.72 709.368 68.2359 712.073 62.8265C714.849 57.346 716.201 51.3672 716.201 44.7478C716.201 30.2279 711.931 20.1921 703.318 14.7115ZM695.916 53.3601C695.347 59.4812 693.781 64.4636 691.29 68.3071C688.727 72.2218 685.524 74.9976 681.61 76.6347C677.766 78.3429 673.282 79.197 668.229 79.197H656.129V33.7155C656.271 27.5232 656.556 20.6191 656.983 13.0033C660.043 12.8609 663.531 12.7898 667.374 12.7898C676.77 12.7898 683.958 15.708 688.798 21.6868C693.71 27.5944 696.13 36.4914 696.13 48.3066C696.13 50.5842 696.058 52.2925 695.916 53.3601Z" fill="#09282B"/>
<path d="M723.103 143.61C723.103 143.61 722.676 143.895 721.395 143.895C720.256 143.895 720.256 143.895 717.623 143.895H700.042C699.188 143.895 698.476 143.397 698.192 142.614L682.96 95.4951C681.536 91.2246 680.113 88.5199 678.618 87.2387C677.764 86.5269 676.768 86.0287 675.558 85.744L684.526 83.5375C687.658 82.8258 690.647 81.687 693.423 80.1211C693.85 80.2634 694.277 80.4058 694.704 80.5481C696.91 81.4734 698.619 82.9681 699.9 84.9611C701.181 87.0252 702.462 90.0145 703.672 94.0004L712.996 123.183C714.277 127.097 715.914 130.514 717.48 133.361L720.683 138.628L722.178 140.763C722.178 140.763 723.744 142.685 723.103 143.539V143.61Z" fill="#09282B"/>
</svg>
