<svg width="516" height="518" viewBox="0 0 516 518" fill="none" xmlns="http://www.w3.org/2000/svg">
<path d="M258.054 517.01C399.961 517.01 515 401.519 515 259.053C515 116.586 399.961 1.09473 258.054 1.09473C116.146 1.09473 1.10742 116.586 1.10742 259.053C1.10742 401.519 116.146 517.01 258.054 517.01Z" stroke="#F7F8F6" stroke-width="1.78604" stroke-miterlimit="10"/>
<path d="M196.797 54.5341C196.149 55.6827 196.056 57.1185 196.519 58.7457C196.89 60.0857 197.631 61.1386 198.835 62.0001C200.039 62.7658 201.984 63.6273 204.67 64.393L209.115 65.7331C211.431 66.4031 213.191 67.3603 214.487 68.4131C215.784 69.466 216.71 70.9975 217.173 72.8162C217.729 74.8262 217.729 76.7406 217.173 78.5592C216.617 80.3779 215.691 81.8136 214.302 83.0579C213.005 84.3023 211.431 85.1637 209.764 85.6423C207.17 86.4081 204.762 86.1209 202.539 84.9723C200.317 83.8237 198.372 82.005 196.797 79.6121L200.502 75.7834C202.169 78.7507 203.929 80.8564 205.688 81.9093C207.448 82.9622 209.115 83.3451 210.69 82.8665C212.264 82.3879 213.376 81.6222 214.117 80.4736C214.858 79.325 214.95 77.9849 214.58 76.4534C214.209 74.9219 213.468 73.7733 212.635 72.9119C211.709 72.0504 210.041 71.2847 207.819 70.5189L202.169 68.796C200.687 68.3174 199.39 67.8388 198.279 67.2645C197.168 66.6902 196.241 66.0202 195.408 65.063C194.574 64.1059 194.019 63.053 193.648 61.7129C193.185 59.99 193.185 58.1714 193.741 56.3527C194.296 54.5341 195.315 53.0026 196.797 51.5668C198.279 50.2268 200.131 49.1739 202.447 48.5039C205.318 47.7381 207.726 47.451 209.578 47.7381L210.597 55.9699C208.837 54.1512 207.078 52.8112 205.225 52.2369C203.373 51.6626 201.613 51.5668 199.946 51.9497C198.464 52.3326 197.445 53.0983 196.797 54.3427V54.5341Z" fill="#F7F8F6"/>
<path d="M223.127 77.3623C223.127 75.9738 223.127 74.387 222.83 72.701L220.26 53.4607C219.963 51.4772 219.666 49.8904 219.271 48.5019C218.875 47.1134 218.282 45.725 217.59 44.5349L224.314 43.6423C224.314 45.0307 224.511 46.5184 224.709 48.1052C224.907 49.692 225.105 51.2789 225.203 52.7665L227.774 72.0067C228.17 75.2796 228.763 78.2548 229.554 81.0318L222.633 82.0235C223.028 80.3375 223.226 78.8499 223.226 77.4614L223.127 77.3623ZM236.08 46.9151C234.894 46.0225 233.509 45.4275 231.828 45.1299C230.147 44.8324 228.071 44.8324 225.5 45.1299L222.534 45.5266L222.336 43.8406L238.75 41.5596L239.739 50.4854C238.552 48.8986 237.267 47.7085 236.179 46.8159L236.08 46.9151ZM234.103 62.3866C232.619 62.0891 230.543 62.0891 227.873 62.3866L223.72 62.9817L223.523 61.2957L227.675 60.7006C230.345 60.3039 232.422 59.808 233.707 59.0146C235.091 58.2212 236.278 57.0311 237.464 55.1467L238.75 64.7669C237.168 63.4776 235.586 62.6841 234.103 62.3866ZM227.181 79.6433L230.147 79.2466C232.718 78.9491 234.696 78.354 236.179 77.6598C237.662 76.9655 238.849 75.9738 239.739 74.8828C240.628 73.7919 241.518 72.1059 242.507 70.0232L243.891 79.1474L227.478 81.3293L227.28 79.6433H227.181Z" fill="#F7F8F6"/>
<path d="M252.449 41.6534L276.262 42.4043L275.983 52.0719C275.146 49.7254 274.401 47.942 273.564 46.8157C272.82 45.6894 271.797 44.8447 270.494 44.4692C269.192 44.0938 267.425 43.7183 265.099 43.6245H263.332C261.006 43.5306 259.146 43.6245 257.844 43.9999C256.541 44.3754 255.518 45.1262 254.681 46.1587C253.844 47.1912 252.914 48.9745 251.983 51.2271L252.355 41.5596L252.449 41.6534ZM260.727 73.378C261.006 72.064 261.099 70.5622 261.192 68.9666L262.03 42.3104L266.681 42.4982L265.843 69.1543C265.843 70.6561 265.843 71.9701 265.936 73.0964C266.123 74.6921 266.495 76.3815 267.053 77.9772L259.518 77.6956C260.076 76.1938 260.541 74.7859 260.727 73.4719V73.378Z" fill="#F7F8F6"/>
<path d="M283.136 71.0714C283.136 73.2575 283.621 75.0461 284.688 76.4372C285.755 77.8284 287.307 78.6233 289.441 79.0208L287.404 81.803C284.106 81.2068 281.681 79.9151 280.323 77.9277C278.965 75.9404 278.286 73.5556 278.286 70.8727C278.286 69.9784 278.286 68.9847 278.577 67.7923L281.487 50.3038C281.778 48.6146 281.875 47.1241 281.875 45.733C281.875 44.4412 281.681 43.0501 281.487 41.5596L289.15 42.8513C288.374 44.3418 287.695 45.6336 287.404 46.826C287.016 48.0184 286.725 49.4095 286.434 51.1981L283.427 68.8854C283.33 69.6803 283.233 70.4752 283.233 71.1708L283.136 71.0714ZM296.717 79.7163C294.583 81.803 291.478 82.4986 287.404 81.7037L289.441 78.9214C291.867 79.3189 293.904 78.9214 295.456 77.6296C297.008 76.3379 298.075 74.2512 298.56 71.4689L301.567 53.7817C301.858 52.0924 301.955 50.5026 301.955 49.0121C301.955 47.7203 301.664 46.3292 301.276 44.8387L306.611 45.8323C305.738 47.4222 305.059 48.8133 304.671 50.0057C304.283 51.1981 303.895 52.5893 303.604 54.0798L300.694 71.4689C300.112 74.8474 298.754 77.5303 296.62 79.617L296.717 79.7163Z" fill="#F7F8F6"/>
<path d="M311.315 81.8646C312.01 80.7324 312.606 79.3172 313.202 77.7133L319.755 60.3537C320.45 58.5611 320.847 57.0516 321.046 55.8251C321.245 54.4099 321.443 52.9947 321.344 51.6738L327.798 53.8438C327.202 55.1646 326.607 56.4855 326.011 57.8063C325.514 59.1272 324.919 60.3537 324.422 61.6745V61.9575L317.769 79.3172C317.769 79.3172 317.769 79.3172 317.769 79.5059C317.173 80.9211 316.876 82.242 316.677 83.2798C316.379 84.7893 316.18 86.3932 316.28 88.0914L308.634 85.5441C309.726 84.3176 310.62 83.0911 311.315 81.8646ZM327.5 74.0338C326.309 73.0904 324.422 72.1469 321.94 71.2978L318.067 69.977L318.663 68.4674L322.535 69.7883C325.117 70.6374 327.203 71.1091 328.692 71.0148C330.181 70.9204 331.969 70.4487 333.756 69.4109L330.479 78.0907C329.685 76.2981 328.692 74.9773 327.5 74.0338ZM334.749 59.6932C333.359 57.995 331.174 56.6742 328.096 55.6364L325.514 54.6929L326.11 53.1834L341.005 58.2781L337.728 66.2975C337.232 63.5614 336.239 61.3915 334.849 59.6932H334.749Z" fill="#F7F8F6"/>
<path d="M336.172 93.3782C335.122 90.962 334.74 88.2559 335.027 85.1633C335.313 82.0706 336.363 78.7846 338.081 75.4987C339.704 72.3094 341.709 69.7966 343.999 67.767C346.29 65.7374 348.772 64.4811 351.445 63.9978C354.118 63.5146 356.599 63.9978 359.177 65.2542C361.372 66.414 362.995 68.1536 364.045 70.5697C365.095 72.9859 365.477 75.7886 365.191 78.8813C364.904 82.0706 363.854 85.2599 362.136 88.6425C360.513 91.7352 358.509 94.3446 356.218 96.2775C353.927 98.2104 351.445 99.5635 348.772 100.047C346.099 100.53 343.522 100.047 341.04 98.7903C338.845 97.6306 337.222 95.7943 336.077 93.4748L336.172 93.3782ZM347.722 97.7272C349.249 97.1473 350.777 96.0842 352.209 94.4413C353.64 92.7983 355.072 90.6721 356.313 88.1593C358.222 84.3901 359.559 81.0075 360.131 78.0115C360.704 75.0155 360.704 72.5027 360.131 70.5697C359.559 68.6368 358.509 67.1871 356.886 66.3173C355.359 65.5442 353.927 65.3509 352.399 65.8341C350.872 66.3173 349.44 67.3804 348.009 69.0234C346.577 70.6664 345.145 72.7926 343.809 75.4987C342.09 78.8813 340.849 81.9739 340.181 85.0666C339.513 88.0626 339.418 90.6721 339.895 92.7983C340.372 94.9245 341.422 96.4708 343.14 97.3406C344.668 98.1138 346.099 98.2104 347.627 97.7272H347.722Z" fill="#F7F8F6"/>
<path d="M360.415 104.685C361.336 103.717 362.35 102.556 363.271 101.201L374.047 86.0097C375.06 84.6551 375.797 83.3972 376.35 82.3328C377.087 80.8814 377.639 79.4299 378.008 77.9785L383.074 81.849C381.324 83.9777 379.85 85.913 378.745 87.4612L377.824 88.8158L367.047 104.104C366.218 105.265 365.573 106.33 365.021 107.297C364.192 108.845 363.639 110.49 363.178 112.232L357.191 107.588C358.481 106.717 359.586 105.749 360.599 104.782L360.415 104.685ZM371.376 97.0406L374.324 99.3629C375.337 100.137 376.35 100.718 377.455 100.911C378.561 101.201 379.574 101.105 380.679 100.621C381.784 100.234 382.89 99.3628 383.903 98.2017C384.087 98.0082 384.363 97.6211 384.732 97.1373C386.574 94.5248 387.403 92.2025 387.311 90.1705C387.219 88.1385 386.206 86.3 384.179 84.7518C381.969 83.1069 380.311 81.9457 379.113 81.3652L381.324 80.5911L386.021 84.268C388.508 86.2033 390.258 88.4288 391.179 91.0413C392.101 93.5571 391.456 96.46 389.245 99.5564C388.232 101.008 387.034 102.072 385.653 102.846C384.271 103.62 382.798 104.007 381.324 104.007C379.85 104.007 378.468 103.814 377.179 103.233L375.521 102.459C373.771 101.105 372.021 99.7499 370.271 98.3952L371.284 97.1373L371.376 97.0406ZM375.521 102.943C375.521 102.943 375.06 101.975 374.508 101.588L378.008 102.266C378.837 102.846 379.297 103.427 379.666 104.007C379.942 104.588 380.126 105.169 380.034 105.846C380.034 106.523 379.758 107.297 379.482 108.362L376.903 116.199C376.534 117.264 376.35 118.231 376.258 119.102C376.166 119.973 376.074 121.037 376.074 122.489L371.008 118.618L375.153 105.556C375.521 104.394 375.613 103.62 375.521 103.137V102.943Z" fill="#F7F8F6"/>
<path d="M377.097 125.222C377.684 124.556 378.272 123.794 378.566 122.937C378.957 122.08 379.153 121.319 379.153 120.462C380.817 120.938 382.873 121.319 385.516 121.7C385.32 123.033 384.733 124.27 383.656 125.413C382.775 126.365 381.698 127.127 380.425 127.698C379.153 128.269 377.88 128.555 376.608 128.555C375.335 128.555 374.258 128.269 373.377 127.603C374.845 127.127 376.02 126.365 377.097 125.318V125.222Z" fill="#F7F8F6"/>
<path d="M391.788 130.762C392.973 129.978 394.258 129.096 395.542 127.92L410.166 115.379C411.648 114.106 412.834 112.93 413.723 111.852C414.612 110.775 415.403 109.599 416.094 108.325L420.541 113.42C419.454 114.204 418.268 115.086 416.984 116.065C415.699 117.045 414.514 118.025 413.328 119.005L398.704 131.545C396.234 133.701 394.06 135.758 392.084 137.914L387.539 132.721C389.12 132.133 390.503 131.447 391.689 130.762H391.788ZM392.084 135.269L393.962 137.522C395.641 139.481 397.222 140.853 398.605 141.637C399.989 142.421 401.471 142.911 402.854 143.009C404.237 143.107 406.115 143.009 408.387 142.715L401.471 148.789L390.701 136.444L391.985 135.269H392.084ZM410.265 131.839C409.771 130.37 408.585 128.704 406.806 126.647L404.04 123.511L405.324 122.434L408.091 125.569C409.869 127.626 411.45 128.998 412.834 129.684C414.217 130.37 415.897 130.762 418.071 130.762L410.759 136.934C410.956 134.975 410.759 133.211 410.265 131.741V131.839ZM424.295 125.177C424.295 123.707 424.098 122.238 423.406 120.67C422.715 119.103 421.628 117.339 419.948 115.379L417.972 113.126L419.256 112.048L430.026 124.491L423.011 130.174C423.703 128.312 424.098 126.647 424.197 125.275L424.295 125.177Z" fill="#F7F8F6"/>
<path d="M414.64 151.334C413.105 152.776 412.145 154.313 411.953 155.946C411.761 157.58 412.145 159.31 413.297 161.135L409.937 161.424C408.113 158.637 407.442 156.043 407.921 153.736C408.401 151.43 409.649 149.412 411.569 147.587C412.241 147.01 413.009 146.434 413.969 145.761L428.366 136.441C429.71 135.576 430.862 134.615 431.918 133.654C432.878 132.789 433.742 131.732 434.605 130.579L438.733 137.017C437.101 137.401 435.757 137.786 434.702 138.362C433.646 138.843 432.398 139.515 430.958 140.476L416.368 149.893C415.696 150.277 415.12 150.758 414.64 151.238V151.334ZM417.52 166.997C414.64 166.805 412.049 164.979 409.841 161.52L413.201 161.231C414.544 163.249 416.176 164.498 418.096 164.787C420.016 165.075 422.223 164.498 424.623 162.961L439.213 153.544C440.653 152.679 441.804 151.719 442.86 150.758C443.724 149.797 444.588 148.74 445.356 147.587L448.235 152.103C446.508 152.487 445.068 152.872 443.916 153.352C442.764 153.833 441.516 154.505 440.269 155.274L425.967 164.498C423.183 166.324 420.4 167.093 417.52 166.901V166.997Z" fill="#F7F8F6"/>
<path d="M451.061 166.236C452.036 165.173 452.914 164.109 453.499 162.949L457.009 171.456C457.009 171.456 456.034 171.553 455.254 171.746C454.571 171.94 453.791 172.133 453.011 172.52C451.451 173.1 450.184 173.873 449.013 174.743L429.123 190.791L428.44 189.147L453.986 186.634C454.766 186.634 455.546 186.44 456.326 186.247C457.106 186.054 457.886 185.764 458.569 185.474C459.349 185.184 460.031 184.797 460.616 184.507C461.201 184.217 461.591 183.734 461.884 183.347L464.419 189.437C463.054 188.954 461.689 188.761 460.129 188.664C458.666 188.664 456.814 188.664 454.571 188.761L425.028 191.274L423.955 188.857L446.771 170.006C448.526 168.556 449.891 167.203 450.964 166.236H451.061Z" fill="#F7F8F6"/>
<path d="M433.063 208.637C434.143 206.244 436.008 204.138 438.56 202.319C441.112 200.501 444.252 199.161 447.982 198.204C451.516 197.342 454.755 197.151 457.895 197.534C461.036 197.917 463.686 198.969 465.846 200.597C468.005 202.224 469.477 204.425 470.164 207.201C470.753 209.594 470.557 211.987 469.477 214.38C468.398 216.772 466.533 218.878 463.883 220.697C461.233 222.515 458.092 223.951 454.46 224.812C451.025 225.674 447.688 225.865 444.547 225.482C441.406 225.1 438.854 224.047 436.695 222.42C434.535 220.792 433.063 218.591 432.376 215.815C431.787 213.422 431.983 211.03 433.063 208.637ZM437.676 220.122C439.149 220.888 441.013 221.271 443.271 221.271C445.528 221.271 448.08 220.888 450.828 220.218C454.951 219.165 458.386 217.921 461.134 216.39C463.785 214.858 465.748 213.231 466.827 211.508C467.907 209.785 468.299 208.062 467.809 206.339C467.416 204.712 466.533 203.468 465.06 202.702C463.686 201.937 461.821 201.554 459.662 201.554C457.503 201.554 454.853 201.937 451.908 202.607C448.178 203.564 444.939 204.712 442.191 206.244C439.443 207.68 437.382 209.402 436.106 211.125C434.83 212.944 434.437 214.762 434.83 216.485C435.222 218.112 436.204 219.357 437.676 220.122Z" fill="#F7F8F6"/>
<path d="M447.088 236.665C444.983 237.153 443.452 238.128 442.495 239.493C441.538 240.859 441.06 242.614 441.251 244.76L438.189 243.394C437.902 239.981 438.477 237.348 440.008 235.592C441.538 233.739 443.548 232.569 446.131 231.886C446.992 231.691 447.949 231.496 449.098 231.398L466.129 229.936C467.756 229.74 469.191 229.545 470.531 229.155C471.775 228.863 473.019 228.375 474.358 227.692L475.028 235.397C473.497 235.007 472.062 234.714 470.914 234.617C469.765 234.617 468.33 234.617 466.608 234.714L449.385 236.177C448.619 236.177 447.854 236.372 447.184 236.567L447.088 236.665ZM442.495 252.074C440.008 250.514 438.668 247.686 438.285 243.492L441.347 244.857C441.538 247.296 442.495 249.149 444.026 250.416C445.653 251.684 447.758 252.172 450.628 251.879L467.852 250.319C469.574 250.124 471.009 249.929 472.349 249.539C473.593 249.149 474.741 248.563 476.081 247.881L476.559 253.342C474.837 252.855 473.401 252.562 472.157 252.465C470.914 252.367 469.574 252.367 468.043 252.465L451.107 253.927C447.854 254.22 444.983 253.537 442.495 252.074Z" fill="#F7F8F6"/>
<path d="M439.22 260.874C439.91 260.307 440.698 260.064 441.585 260.064C442.57 260.064 443.358 260.388 444.048 260.874C444.737 261.44 445.033 262.088 444.934 262.897C444.836 263.706 444.54 264.354 443.851 264.839C443.161 265.325 442.373 265.648 441.388 265.568C440.501 265.568 439.713 265.244 439.023 264.677C438.334 264.111 438.038 263.463 438.137 262.654C438.137 261.845 438.531 261.197 439.122 260.712L439.22 260.874ZM448.875 262.816C450.156 262.573 451.338 262.411 452.619 262.249C453.9 262.088 455.082 262.007 456.363 261.845C457.643 261.683 458.826 261.683 460.106 261.602C461.387 261.602 462.668 261.44 464.047 261.44H464.146C469.466 261.278 473.603 261.036 476.559 260.874V266.134C473.406 265.891 469.367 265.568 464.047 265.163C460.894 264.92 458.037 264.677 455.574 264.435C453.111 264.111 450.55 263.706 448.087 263.14H447.693L448.875 262.816Z" fill="#F7F8F6"/>
<path d="M468.477 305.662C469.954 305.464 471.332 305.07 472.514 304.576L469.954 313.656C469.954 313.656 469.068 313.162 468.379 312.866C467.69 312.57 467.001 312.373 466.114 312.077C464.539 311.682 463.062 311.386 461.586 311.386L435.693 311.879L436.185 310.202L458.041 324.019C458.73 324.413 459.42 324.808 460.109 325.203C460.896 325.499 461.586 325.795 462.373 325.992C463.161 326.19 463.948 326.387 464.638 326.486C465.327 326.486 465.918 326.486 466.41 326.387L464.539 332.901C463.752 331.717 462.767 330.631 461.684 329.644C460.503 328.657 459.026 327.473 457.155 326.289L432.05 309.906L432.837 307.34L462.767 306.353C465.13 306.353 467 306.057 468.477 305.859V305.662Z" fill="#F7F8F6"/>
<path d="M430.662 325.336C431.863 325.998 433.365 326.659 434.967 327.321L453.186 334.128C454.888 334.79 456.39 335.168 457.591 335.452C459.293 335.83 460.894 335.925 462.396 336.019L459.493 343.015C458.191 341.975 456.99 341.03 455.689 340.368C454.387 339.706 452.986 339.044 451.384 338.477L433.165 331.67C431.463 331.008 429.961 330.63 428.76 330.347C427.158 330.063 425.557 329.874 423.955 329.779L426.858 322.783C428.159 323.823 429.361 324.769 430.662 325.43V325.336Z" fill="#F7F8F6"/>
<path d="M427.395 332.973C428.277 334.18 429.551 335.688 431.119 337.296L452.281 358.81L451.008 361.223L421.615 355.995C419.264 355.593 417.402 355.392 415.932 355.291C414.463 355.291 413.091 355.291 411.817 355.593L416.128 347.048C416.128 347.048 416.912 347.752 417.5 348.154C418.088 348.556 418.774 348.958 419.557 349.36C421.027 350.164 422.399 350.667 423.868 350.969L449.244 355.895L448.46 357.503L429.845 339.106C429.355 338.603 428.669 338 427.983 337.497C427.298 336.995 426.612 336.593 425.926 336.19C425.142 335.788 424.456 335.487 423.868 335.286C423.281 335.085 422.693 334.984 422.203 334.984L425.338 328.852C425.828 330.158 426.612 331.465 427.493 332.672L427.395 332.973ZM427.885 354.588L426.416 353.783L433.176 340.413L434.646 341.217L427.885 354.588Z" fill="#F7F8F6"/>
<path d="M411.365 378.067C412.813 378.642 413.972 379.026 415.034 379.026C416.097 379.026 417.159 379.026 418.318 378.738L413.296 385.74L399.679 376.052C399.775 374.518 400.162 372.983 400.741 371.353C401.321 369.722 402.19 368.187 403.252 366.653L401.997 372.408C405.956 375.189 409.047 377.107 411.365 377.971V378.067ZM409.433 361.953C411.944 361.09 414.648 360.994 417.642 361.665C420.539 362.337 423.63 363.679 426.624 365.885C429.714 368.091 432.129 370.585 433.77 373.463C435.412 376.244 436.185 379.122 436.088 382.095C436.088 384.972 435.026 387.754 433.191 390.344C431.646 392.55 429.714 394.276 427.493 395.619L421.698 389.576C424.402 389.96 426.72 389.768 428.555 389.097C430.39 388.425 431.839 387.274 432.998 385.644C433.964 384.301 434.35 382.958 434.157 381.52C433.964 380.081 433.288 378.546 431.935 376.916C430.583 375.285 428.555 373.463 425.948 371.64C422.954 369.53 420.056 368.091 417.159 367.228C414.262 366.365 411.558 366.173 409.24 366.653C406.922 367.132 405.087 368.283 403.832 370.01C403.252 370.777 402.769 371.544 402.383 372.408C401.997 373.175 401.61 374.038 401.321 374.997C401.321 375.285 401.224 375.573 401.127 375.765L403.349 366.845C404.99 364.543 407.115 362.912 409.626 362.049L409.433 361.953Z" fill="#F7F8F6"/>
<path d="M394.265 382.044L392.166 384.168C390.366 386.003 389.166 387.645 388.467 389.093C387.767 390.542 387.467 391.991 387.467 393.343C387.467 394.695 387.767 396.53 388.367 398.654L381.469 392.57L392.965 380.885L394.265 382.044ZM398.763 381.271C399.663 382.333 400.763 383.492 401.963 384.651L416.158 397.592C417.558 398.944 418.957 399.91 420.057 400.682C421.257 401.455 422.556 402.131 423.956 402.614L419.257 407.442C418.358 406.477 417.258 405.414 416.158 404.255C415.059 403.193 413.859 402.034 412.759 401.069L398.564 388.128C396.164 385.907 393.765 383.975 391.466 382.333L396.264 377.408C397.064 378.857 397.864 380.209 398.763 381.271ZM399.663 399.33C401.063 398.654 402.662 397.399 404.562 395.467L407.461 392.474L408.661 393.632L405.761 396.626C403.862 398.558 402.662 400.199 402.063 401.648C401.463 403.097 401.263 404.738 401.563 406.863L394.465 400.393C396.564 400.393 398.264 400.103 399.663 399.427V399.33ZM407.861 412.271C409.26 412.271 410.76 411.788 412.359 411.016C413.859 410.243 415.558 408.891 417.358 407.056L419.457 404.931L420.757 406.09L409.26 417.872L402.862 411.692C404.862 412.174 406.561 412.368 407.961 412.271H407.861Z" fill="#F7F8F6"/>
<path d="M363.45 408.144L366.104 406.01L398.702 419.974L397.66 420.75L383.445 402.519C382.403 401.259 381.361 400.095 380.318 399.222C379.371 398.349 378.233 397.574 377.096 396.895L381.171 393.598C381.74 395.246 382.403 396.701 382.972 397.864C383.54 398.931 384.298 400.095 385.151 401.258L397.66 417.259C398.797 418.714 399.934 419.877 400.977 420.75C401.829 421.526 402.777 422.108 403.725 422.495L398.039 427.15C397.944 426.471 397.66 425.89 397.281 425.405C396.997 425.017 396.618 424.726 396.144 424.435C395.67 424.144 395.101 423.853 394.248 423.562L367.43 412.119L368.378 411.344L382.308 429.187C383.256 430.35 384.203 431.417 385.246 432.387C386.004 433.065 387.141 433.938 388.657 434.811L384.583 438.108C384.014 436.46 383.445 435.005 382.877 433.938C382.308 432.872 381.55 431.708 380.602 430.447L363.261 408.144H363.45Z" fill="#F7F8F6"/>
<path d="M370.877 440.269C371.155 439.01 370.877 437.557 370.137 436.104C369.397 434.845 368.471 434.07 367.083 433.586C365.695 433.102 363.66 432.908 360.884 432.811H356.257C353.851 432.714 351.908 432.327 350.335 431.649C348.762 430.971 347.467 429.808 346.541 428.065C345.523 426.225 344.968 424.384 345.061 422.447C345.153 420.51 345.616 418.766 346.634 417.217C347.652 415.667 348.855 414.311 350.335 413.439C352.648 411.986 354.962 411.502 357.46 411.986C359.866 412.471 362.179 413.73 364.4 415.667L361.809 420.413C359.403 417.895 357.182 416.442 355.239 415.861C353.204 415.279 351.538 415.473 350.15 416.248C348.762 417.12 347.929 418.185 347.559 419.541C347.189 420.897 347.374 422.253 348.114 423.609C348.855 424.965 349.872 425.934 350.983 426.515C352.093 427.096 353.851 427.387 356.257 427.484H362.087C363.66 427.677 365.048 427.774 366.251 427.968C367.454 428.162 368.564 428.646 369.582 429.324C370.6 430.002 371.432 430.874 372.08 432.133C373.005 433.779 373.376 435.523 373.376 437.363C373.376 439.204 372.728 441.044 371.618 442.884C370.507 444.628 368.934 446.177 366.991 447.437C364.4 449.083 362.179 449.955 360.329 450.245L357.182 442.497C359.403 443.853 361.439 444.531 363.382 444.628C365.325 444.628 366.991 444.337 368.471 443.369C369.767 442.594 370.6 441.528 370.877 440.172V440.269Z" fill="#F7F8F6"/>
<path d="M317.228 465.745C317.878 464.589 317.971 463.144 317.6 461.507C317.229 460.159 316.486 459.003 315.28 458.233C314.074 457.463 312.126 456.596 309.436 455.825L304.983 454.477C302.663 453.803 300.901 452.84 299.602 451.781C298.303 450.721 297.375 449.181 296.912 447.351C296.355 445.329 296.355 443.402 296.912 441.573C297.468 439.743 298.396 438.298 299.788 437.047C301.179 435.795 302.663 434.928 304.426 434.446C307.024 433.772 309.436 433.965 311.662 435.12C313.889 436.276 315.837 438.106 317.414 440.61L313.703 444.462C312.033 441.38 310.271 439.358 308.508 438.202C306.745 437.047 305.075 436.758 303.498 437.143C301.921 437.528 300.808 438.395 300.066 439.55C299.324 440.706 299.231 442.054 299.602 443.595C299.973 445.136 300.622 446.292 301.55 447.158C302.478 448.025 304.055 448.795 306.374 449.566L312.033 451.299C313.518 451.781 314.816 452.262 315.93 452.84C317.043 453.418 317.971 454.092 318.806 455.055C319.548 455.922 320.197 457.077 320.476 458.426C320.939 460.255 320.847 461.989 320.29 463.819C319.733 465.648 318.713 467.189 317.228 468.634C315.744 469.982 313.796 471.041 311.57 471.619C308.694 472.389 306.281 472.678 304.426 472.389L303.406 464.108C305.168 466.034 306.931 467.285 308.786 467.863C310.642 468.537 312.404 468.634 314.074 468.152C315.559 467.767 316.579 466.997 317.228 465.745Z" fill="#F7F8F6"/>
<path d="M286.932 440.374L283.943 440.752C281.353 441.035 279.36 441.602 277.866 442.263C276.371 442.924 275.176 443.869 274.279 444.908C273.382 446.041 272.486 447.552 271.489 449.536L270.194 440.846L286.732 438.769L286.932 440.374ZM277.766 471.448C278.961 472.298 280.356 472.865 282.05 473.148C283.744 473.431 285.935 473.431 288.426 473.148L291.415 472.77L291.614 474.47L275.076 476.548L274.08 468.048C275.275 469.559 276.471 470.787 277.666 471.542L277.766 471.448ZM279.858 456.714C281.353 457.092 283.445 457.092 286.135 456.714L290.319 456.147L290.518 457.753L286.334 458.32C283.644 458.697 281.552 459.17 280.257 459.925C278.862 460.681 277.666 461.814 276.471 463.514L275.176 454.447C276.77 455.675 278.264 456.431 279.858 456.808V456.714ZM290.917 442.452C290.917 443.774 290.917 445.286 291.216 446.986L293.806 465.309C294.105 467.198 294.404 468.709 294.802 470.031C295.201 471.353 295.799 472.581 296.496 473.809L289.721 474.659C289.721 473.337 289.522 471.92 289.422 470.409C289.323 468.898 289.123 467.387 288.924 465.875L286.334 447.552C285.935 444.436 285.338 441.602 284.64 438.957L291.614 438.107C291.216 439.713 291.016 441.13 291.016 442.452H290.917Z" fill="#F7F8F6"/>
<path d="M261.726 478.473L237.821 477.583L238.101 467.405C238.942 469.876 239.689 471.753 240.436 472.939C241.183 474.125 242.21 475.014 243.517 475.508C244.731 476.002 246.599 476.299 248.933 476.398H250.708C253.042 476.595 254.91 476.398 256.123 476.002C257.431 475.607 258.458 474.817 259.298 473.73C260.139 472.642 261.073 470.864 262.1 468.393L261.726 478.572V478.473ZM253.509 444.973C253.229 446.357 253.135 447.938 253.042 449.618L252.108 477.682L247.439 477.485L248.373 449.42C248.373 447.839 248.373 446.554 248.373 445.269C248.186 443.59 247.813 441.91 247.253 440.131L254.816 440.427C254.256 442.008 253.789 443.491 253.509 444.874V444.973Z" fill="#F7F8F6"/>
<path d="M217.489 438.334C219.607 436.261 222.689 435.668 226.734 436.359L224.616 439.124C222.208 438.729 220.185 439.124 218.644 440.408C217.103 441.692 216.044 443.765 215.563 446.53L212.577 464.106C212.288 465.785 212.192 467.365 212.192 468.846C212.192 470.13 212.481 471.512 212.77 472.993L207.473 472.006C208.339 470.426 209.014 469.043 209.399 467.859C209.88 466.674 210.169 465.291 210.458 463.81L213.444 446.53C214.022 443.173 215.37 440.507 217.489 438.433V438.334ZM230.972 447.024C230.972 444.851 230.49 443.074 229.431 441.692C228.372 440.309 226.831 439.519 224.712 439.124L226.831 436.359C230.105 436.952 232.416 438.236 233.861 440.21C235.306 442.185 235.884 444.555 235.787 447.32C235.787 448.209 235.787 449.196 235.498 450.381L232.513 467.76C232.224 469.438 232.128 470.92 232.128 472.302C232.128 473.586 232.32 474.968 232.513 476.548L224.904 475.166C225.771 473.684 226.349 472.401 226.734 471.216C227.119 470.031 227.408 468.648 227.697 466.871L230.683 449.295C230.876 448.505 230.875 447.715 230.875 447.024H230.972Z" fill="#F7F8F6"/>
<path d="M179.335 460.011C180.725 461.799 182.91 463.19 185.988 464.283L188.57 465.177L187.974 466.766L173.079 461.402L176.356 452.959C176.852 455.84 177.845 458.124 179.236 459.912L179.335 460.011ZM186.683 444.913C187.874 445.907 189.761 446.9 192.244 447.794L196.116 449.184L195.52 450.774L191.648 449.383C189.066 448.489 187.08 447.992 185.491 448.092C183.903 448.092 182.215 448.688 180.427 449.78L183.704 440.642C184.498 442.529 185.491 443.92 186.683 444.913ZM202.869 436.669C202.173 437.861 201.578 439.351 200.982 441.039L194.428 459.316C193.733 461.203 193.336 462.793 193.038 464.084C192.839 465.574 192.641 467.064 192.641 468.454L186.286 466.17C186.882 464.779 187.477 463.389 188.073 461.998C188.669 460.607 189.165 459.316 189.662 457.826V457.528L196.315 439.251C196.315 439.251 196.315 439.251 196.315 439.053C196.811 437.563 197.208 436.172 197.407 435.08C197.705 433.49 197.904 431.802 197.804 430.014L205.45 432.795C204.358 434.086 203.464 435.378 202.769 436.569L202.869 436.669Z" fill="#F7F8F6"/>
<path d="M177.91 424.725C178.961 427.141 179.343 429.848 179.057 432.941C178.77 436.034 177.718 439.32 175.998 442.606C174.373 445.699 172.365 448.309 170.071 450.338C167.777 452.368 165.292 453.625 162.615 454.108C159.939 454.591 157.453 454.108 154.872 452.755C152.674 451.595 151.049 449.855 149.997 447.439C148.946 445.022 148.563 442.219 148.946 439.126C149.232 435.937 150.284 432.747 152.005 429.461C153.63 426.368 155.637 423.758 157.931 421.825C160.225 419.796 162.711 418.539 165.387 418.056C168.064 417.573 170.645 418.056 173.13 419.409C175.329 420.569 176.954 422.405 178.005 424.725H177.91ZM166.343 420.279C164.814 420.762 163.284 421.922 161.85 423.565C160.417 425.208 158.983 427.335 157.644 429.848C155.733 433.617 154.394 437 153.821 439.996C153.152 442.993 153.152 445.506 153.821 447.439C154.394 449.372 155.446 450.822 157.071 451.692C158.6 452.465 160.034 452.658 161.564 452.175C163.093 451.691 164.527 450.628 165.961 448.985C167.395 447.342 168.828 445.216 170.167 442.509C171.887 439.126 173.13 436.034 173.799 432.941C174.468 429.848 174.564 427.335 174.086 425.208C173.608 423.082 172.557 421.535 170.836 420.665C169.306 419.892 167.873 419.699 166.343 420.279Z" fill="#F7F8F6"/>
<path d="M143.743 423.049L140.631 420.722C139.561 419.946 138.491 419.364 137.323 419.073C136.156 418.783 135.086 418.88 133.919 419.267C132.752 419.655 131.585 420.528 130.515 421.692C130.32 421.886 130.029 422.274 129.639 422.758C127.694 425.377 126.819 427.607 126.916 429.74C126.916 431.777 128.083 433.619 130.223 435.171C132.557 436.819 134.308 437.983 135.573 438.662L133.238 439.438L128.278 435.753C125.652 433.813 123.901 431.583 122.928 428.965C121.955 426.346 122.636 423.534 124.971 420.431C126.041 418.977 127.305 417.91 128.764 417.231C130.223 416.455 131.779 416.067 133.336 416.067C134.892 416.067 136.351 416.358 137.713 416.843L139.463 417.522C141.311 418.88 143.159 420.237 145.008 421.595L143.938 422.855L143.743 423.049ZM155.221 415.389C154.248 416.358 153.178 417.522 152.205 418.88L140.825 434.104C139.755 435.462 138.977 436.722 138.393 437.789C137.615 439.244 137.032 440.698 136.643 442.153L131.39 438.177C133.238 436.044 134.795 434.201 136.059 432.553L137.129 431.195L148.509 415.97C149.385 414.807 150.065 413.74 150.649 412.77C151.427 411.219 152.108 409.57 152.594 407.825L158.917 412.479C157.555 413.352 156.29 414.322 155.318 415.292L155.221 415.389ZM139.269 417.134C139.366 417.619 139.755 418.104 140.339 418.492L136.643 417.813C135.865 417.231 135.281 416.649 134.892 416.067C134.6 415.486 134.406 414.904 134.503 414.322C134.503 413.643 134.795 412.867 135.086 411.801L137.81 403.946C138.199 402.879 138.393 401.909 138.491 401.037C138.588 400.164 138.685 399.097 138.783 397.643L144.035 401.618L139.658 414.613C139.269 415.776 139.172 416.552 139.269 417.037V417.134Z" fill="#F7F8F6"/>
<path d="M138.944 394.907C138.361 395.573 137.778 396.335 137.487 397.192C137.098 398.048 136.904 398.905 136.904 399.667C135.253 399.191 133.117 398.81 130.592 398.429C130.786 397.096 131.369 395.859 132.437 394.716C133.311 393.764 134.379 393.002 135.642 392.431C136.904 391.86 138.167 391.574 139.429 391.574C140.692 391.574 141.76 391.86 142.731 392.526C141.274 392.907 140.109 393.764 139.041 394.811L138.944 394.907Z" fill="#F7F8F6"/>
<path d="M89.8892 392.986C89.8892 394.459 90.0869 395.932 90.6797 397.504C91.3714 399.075 92.4582 400.843 94.138 402.807L96.1141 405.066L94.8296 406.146L84.0596 393.673L91.075 388.075C90.3833 389.941 89.988 391.611 89.8892 392.986ZM122.397 387.486C121.211 388.272 119.927 389.156 118.642 390.334L103.92 402.807C102.438 404.084 101.252 405.263 100.363 406.245C99.4735 407.325 98.5843 408.504 97.8926 409.78L93.4463 404.673C94.5332 403.888 95.7189 403.004 97.0034 402.022C98.2879 401.039 99.4735 400.057 100.659 399.075L115.382 386.602C117.852 384.441 120.025 382.379 122.002 380.316L126.547 385.522C124.966 386.111 123.583 386.798 122.397 387.486ZM103.92 386.406C104.414 387.879 105.6 389.548 107.279 391.611L110.046 394.852L108.761 395.932L105.995 392.789C104.216 390.727 102.635 389.352 101.351 388.664C99.9675 387.879 98.2878 387.584 96.1141 387.584L103.426 381.397C103.228 383.361 103.426 385.129 103.92 386.602V386.406ZM122.1 382.968L120.223 380.709C118.543 378.745 116.962 377.37 115.579 376.584C114.196 375.799 112.714 375.307 111.33 375.111C109.947 374.915 108.07 375.111 105.797 375.406L112.714 369.316L123.484 381.79L122.199 382.87L122.1 382.968Z" fill="#F7F8F6"/>
<path d="M98.5158 351.138C101.389 351.332 103.974 353.171 106.176 356.655L102.825 356.945C101.484 354.913 99.8564 353.655 97.9412 353.364C96.0261 353.074 93.8236 353.655 91.4296 355.203L76.8744 364.59C75.438 365.558 74.2888 366.429 73.2355 367.397C72.3737 368.365 71.5119 369.429 70.7458 370.591L67.873 366.042C69.5967 365.655 71.0331 365.268 72.1822 364.784C73.3313 364.3 74.5762 363.623 75.821 362.848L90.1848 353.558C92.9618 351.719 95.8346 350.945 98.7073 351.138H98.5158ZM101.389 366.816C103.016 365.365 103.878 363.816 104.166 362.171C104.357 360.526 103.974 358.784 102.825 356.945L106.176 356.655C107.996 359.461 108.666 362.074 108.187 364.397C107.709 366.72 106.464 368.752 104.453 370.591C103.783 371.171 103.016 371.752 102.059 372.43L87.6951 381.72C86.3545 382.591 85.2053 383.559 84.152 384.43C83.1944 385.301 82.3326 386.366 81.4707 387.527L77.3531 381.043C78.981 380.656 80.3216 380.269 81.375 379.785C82.4283 379.301 83.6732 378.527 85.1096 377.656L99.6649 368.268C100.335 367.881 100.91 367.397 101.389 366.913V366.816Z" fill="#F7F8F6"/>
<path d="M62.9575 351.866C61.9802 352.929 61.1005 353.993 60.5141 355.153L56.9955 346.646C56.9955 346.646 57.9729 346.549 58.7548 346.356C59.4389 346.162 60.2208 345.969 61.0028 345.582C62.5666 345.002 63.8372 344.229 65.0101 343.359L85.0465 327.312L85.7307 328.955L60.1231 331.468C59.3412 331.468 58.5593 331.662 57.7774 331.855C56.9955 332.048 56.2136 332.338 55.5294 332.628C54.7475 332.918 54.0633 333.305 53.4769 333.595C52.8905 333.982 52.4995 334.369 52.2063 334.755L49.665 328.665C51.0334 329.052 52.4017 329.342 53.8678 329.438C55.3339 329.438 57.2887 329.438 59.5367 329.342L89.1516 326.828L90.129 329.245L67.2581 348.096C65.4987 349.643 64.1304 350.899 63.0553 351.866H62.9575Z" fill="#F7F8F6"/>
<path d="M81.1675 309.565C80.1421 311.958 78.3708 313.968 75.947 315.787C73.5232 317.605 70.54 318.945 66.9975 319.902C63.6415 320.764 60.5651 320.955 57.582 320.572C54.5988 320.189 52.0818 319.137 50.0308 317.509C47.9799 315.882 46.5816 313.681 45.929 310.905C45.3697 308.512 45.5561 306.119 46.5816 303.726C47.607 301.334 49.3783 299.228 51.8953 297.409C54.4124 295.591 57.3955 294.155 60.8448 293.294C64.1076 292.432 67.2772 292.241 70.1672 292.624C73.1503 293.006 75.5741 294.059 77.625 295.686C79.6759 297.314 81.0743 299.515 81.7268 302.291C82.2862 304.684 82.0997 307.076 81.0743 309.469L81.1675 309.565ZM76.8793 297.984C75.4809 297.218 73.7097 296.835 71.5655 296.739C69.4214 296.739 66.9975 297.026 64.3873 297.696C60.4719 298.749 57.1158 299.994 54.5988 301.525C51.9885 303.056 50.2173 304.684 49.1918 306.406C48.1664 308.129 47.7935 309.852 48.2596 311.575C48.6325 313.202 49.4715 314.447 50.8699 315.212C52.175 315.978 53.853 316.361 55.9972 316.457C58.1413 316.457 60.5651 316.074 63.3618 315.404C66.9043 314.542 69.9807 313.298 72.5909 311.862C75.2012 310.427 77.1589 308.799 78.3708 306.981C79.5827 305.162 79.9556 303.439 79.5827 301.621C79.2098 299.994 78.2776 298.749 76.9724 297.984H76.8793Z" fill="#F7F8F6"/>
<path d="M73.7611 266.122C76.2598 267.676 77.6052 270.494 77.9896 274.672L74.9144 273.312C74.7221 270.883 73.8572 269.037 72.2235 267.773C70.5898 266.51 68.4755 266.024 65.5925 266.316L48.2941 267.773C46.6604 267.871 45.1228 268.162 43.7773 268.551C42.528 268.94 41.3748 269.523 40.0294 270.203L39.5488 264.761C41.2787 265.247 42.7202 265.539 43.9695 265.636C45.2189 265.733 46.5643 265.733 48.1019 265.636L65.1119 264.178C68.3794 263.887 71.2625 264.567 73.7611 266.122ZM68.956 281.474C70.9741 280.988 72.6079 280.017 73.5689 278.656C74.53 277.296 75.0104 275.547 74.8182 273.409L77.8935 274.77C78.1818 278.171 77.5091 280.697 76.0676 282.543C74.53 284.389 72.5118 285.555 69.9171 286.236C69.0522 286.43 68.0911 286.624 66.9379 286.721L49.8317 288.179C48.198 288.276 46.7565 288.568 45.4111 288.956C44.1617 289.248 42.9124 289.734 41.567 290.414L40.8942 282.738C42.528 283.126 43.8734 283.418 45.0266 283.515C46.1799 283.515 47.6214 283.515 49.3512 283.418L66.6496 281.96C67.4184 281.96 68.1872 281.766 68.86 281.572L68.956 281.474Z" fill="#F7F8F6"/>
<path d="M67.1618 255.398C65.9826 255.557 64.7052 255.796 63.4277 255.876C62.1502 255.956 60.971 256.115 59.6935 256.275C58.4161 256.434 57.2369 256.434 55.9594 256.514C54.6819 256.593 53.4045 256.593 52.0287 256.673H51.9304C46.624 256.833 42.4968 256.992 39.5488 257.151V251.971C42.6934 252.21 46.7223 252.608 52.0287 252.927C55.1733 253.166 58.023 253.405 60.4797 253.724C62.9363 254.043 65.4912 254.441 67.9479 254.999H68.341L67.1618 255.318V255.398ZM76.792 257.311C76.1041 257.789 75.318 258.108 74.4336 258.028C73.4509 258.028 72.6648 257.709 72.0752 257.231C71.4856 256.673 71.0925 256.036 71.1907 255.239C71.1907 254.441 71.5838 253.804 72.2717 253.326C72.9596 252.847 73.7457 252.529 74.7284 252.608C75.6128 252.608 76.3989 252.927 77.0867 253.405C77.7746 253.884 78.0695 254.601 77.9712 255.398C77.8729 256.195 77.5781 256.833 76.8902 257.39L76.792 257.311Z" fill="#F7F8F6"/>
<path d="M47.6411 212.446C46.1607 212.644 44.779 213.038 43.5947 213.532L46.1607 204.452C46.1607 204.452 47.0489 205.044 47.7398 205.242C48.4306 205.538 49.2202 205.834 50.0097 206.031C51.5888 206.525 53.1679 206.722 54.5496 206.722L80.5058 206.327L80.0123 208.005L58.1025 194.089C57.5104 193.695 56.7208 193.3 56.03 192.905C55.2404 192.609 54.5496 192.313 53.76 192.116C52.9705 191.918 52.181 191.721 51.4901 191.622C50.7993 191.622 50.2071 191.622 49.7137 191.721L51.5888 185.207C52.3784 186.391 53.3653 187.477 54.4509 188.464C55.6352 189.451 57.1156 190.635 58.9908 191.819L84.0587 208.301L83.2691 210.867L53.2666 211.755C50.898 211.755 49.0228 211.953 47.5424 212.15L47.6411 212.446Z" fill="#F7F8F6"/>
<path d="M83.7754 192.688C82.6374 192.029 81.2148 191.371 79.6974 190.712L62.437 183.936C60.8247 183.278 59.4022 182.807 58.2641 182.619C56.6519 182.243 55.1345 182.148 53.7119 182.054L56.4622 175.091C57.6951 176.126 58.8332 177.067 60.066 177.726C61.2041 178.384 62.6267 179.043 64.1441 179.702L81.4045 186.477C83.0167 187.136 84.3445 187.606 85.5773 187.795C87.0947 188.077 88.6121 188.265 90.1295 188.359L87.3792 195.323C86.1463 194.288 85.0083 193.347 83.8703 192.688H83.7754Z" fill="#F7F8F6"/>
<path d="M88.615 185.331C87.7332 184.125 86.4595 182.617 84.8919 181.008L63.8271 159.394L65.1008 156.881L94.4936 162.209C96.747 162.611 98.7065 162.812 100.176 162.913C101.646 162.913 103.017 162.913 104.291 162.611L99.9802 171.156C99.9802 171.156 99.1964 170.453 98.6085 169.95C98.0207 169.548 97.3348 169.146 96.551 168.744C95.0814 167.939 93.6117 167.437 92.2401 167.135L66.8644 162.209L67.6482 160.601L86.1656 178.998C86.6554 179.601 87.3413 180.104 88.0271 180.606C88.713 181.109 89.3988 181.511 90.0846 181.913C90.8684 182.315 91.5542 182.617 92.1421 182.818C92.7299 183.019 93.3179 183.12 93.8077 183.12L90.6725 189.252C90.1826 187.945 89.3988 186.638 88.517 185.432L88.615 185.331ZM88.321 163.717L89.7907 164.521L83.0303 177.892L81.5608 177.088L88.321 163.717Z" fill="#F7F8F6"/>
<path d="M106.578 158.134C104.067 159.048 101.363 159.149 98.3694 158.438C95.4721 157.727 92.4782 156.204 89.3878 153.97C86.2973 151.634 83.8828 148.994 82.3376 145.947C80.6958 143.002 79.9232 139.955 80.0198 136.807C80.0198 133.76 81.0821 130.815 82.9171 128.073C84.4623 125.737 86.3938 123.909 88.6151 122.487L94.4097 128.885C91.7056 128.479 89.3877 128.581 87.5528 129.292C85.7178 130.002 84.2692 131.221 83.1102 132.948C82.1445 134.369 81.7581 135.791 81.9513 137.315C82.1444 138.838 82.8205 140.463 84.1726 142.189C85.5247 143.916 87.5528 145.845 90.1604 147.876C93.0577 150.111 96.0516 151.634 98.9489 152.548C101.846 153.462 104.55 153.665 106.868 153.157C109.186 152.65 111.021 151.533 112.276 149.603C112.856 148.79 113.339 147.978 113.725 147.064C114.111 146.15 114.498 145.338 114.788 144.322C114.788 144.017 114.884 143.814 114.981 143.51L112.759 152.954C111.118 155.392 108.993 157.118 106.482 158.032L106.578 158.134ZM104.743 141.072C103.295 140.463 102.039 140.057 101.074 140.057C100.011 140.057 98.9488 140.057 97.7899 140.361L102.812 132.948L116.429 143.205C116.333 144.83 115.946 146.455 115.367 148.181C114.787 149.908 113.918 151.533 112.856 153.157L114.111 147.064C110.152 144.119 107.061 142.088 104.743 141.174V141.072Z" fill="#F7F8F6"/>
<path d="M116.089 138.855C115.234 137.793 114.189 136.634 113.049 135.475L99.5613 122.438C98.2315 121.086 96.9967 120.12 95.8569 119.347C94.717 118.575 93.4821 117.899 92.1523 117.319L96.6167 112.491C97.4716 113.456 98.4215 114.519 99.5613 115.678C100.606 116.836 101.746 117.899 102.791 118.961L116.279 131.998C118.558 134.219 120.838 136.151 123.023 137.793L118.463 142.718C117.704 141.269 116.944 139.917 116.184 138.855H116.089ZM107.54 107.855C106.115 107.855 104.786 108.338 103.266 109.111C101.746 109.883 100.226 111.235 98.5164 112.973L96.5218 115.098L95.2869 113.939L106.21 102.254L112.289 108.435C110.39 107.952 108.775 107.759 107.445 107.855H107.54ZM115.329 120.796C113.999 121.472 112.479 122.727 110.675 124.659L107.92 127.653L106.78 126.494L109.535 123.5C111.339 121.568 112.479 119.927 113.049 118.478C113.619 117.03 113.809 115.388 113.524 113.263L120.268 119.734C118.274 119.734 116.659 120.023 115.329 120.699V120.796ZM120.458 138.082L122.453 135.958C124.163 134.123 125.302 132.481 126.062 131.033C126.727 129.584 127.012 128.135 127.012 126.783C127.012 125.431 126.727 123.596 126.157 121.472L132.616 127.556L121.693 139.241L120.458 138.082Z" fill="#F7F8F6"/>
<path d="M152.848 110.535L150.182 112.584L117.525 99.0742L118.572 98.3288L132.759 115.845C133.806 117.057 134.758 118.175 135.805 119.013C136.757 119.852 137.805 120.597 139.042 121.343L134.948 124.511C134.377 122.927 133.806 121.529 133.235 120.504C132.663 119.386 131.902 118.361 131.045 117.243L118.477 101.776C117.335 100.379 116.287 99.2606 115.145 98.422C114.288 97.6766 113.336 97.1176 112.384 96.7449L118.096 92.3657C118.192 93.0179 118.477 93.577 118.858 94.0428C119.144 94.4155 119.525 94.7882 120.001 94.9746C120.477 95.2541 121.048 95.5336 121.905 95.9063L148.754 106.994L147.802 107.739L133.901 90.5954C132.949 89.4773 131.997 88.4524 130.95 87.5207C130.188 86.8685 129.045 86.0299 127.522 85.1913L131.616 82.0234C132.187 83.6074 132.759 85.005 133.235 86.0299C133.806 87.148 134.568 88.2661 135.425 89.3842L152.848 110.814V110.535Z" fill="#F7F8F6"/>
<path d="M143.498 77.8578C143.201 79.2166 143.498 80.5755 144.291 82.0314C145.084 83.2933 146.174 84.0698 147.561 84.5551C148.948 84.9433 151.227 85.2345 154.2 85.3316H159.154C161.73 85.4286 163.811 85.8169 165.496 86.4963C167.18 87.1757 168.468 88.3405 169.558 90.0876C170.648 91.9318 171.144 93.776 171.045 95.7172C170.945 97.6585 170.45 99.4056 169.36 100.959C168.27 102.512 166.982 103.773 165.297 104.744C162.82 106.2 160.244 106.588 157.668 106.103C155.091 105.618 152.614 104.356 150.236 102.415L153.011 97.6585C155.587 100.085 157.965 101.638 160.046 102.22C162.127 102.803 164.009 102.609 165.496 101.832C166.982 100.959 167.874 99.8909 168.369 98.6291C168.766 97.2702 168.567 95.9114 167.775 94.5525C166.982 93.1936 165.892 92.223 164.703 91.6406C163.514 91.0582 161.631 90.7671 159.055 90.67H152.713C151.029 90.4759 149.543 90.3788 148.254 90.0876C146.966 89.8935 145.777 89.4082 144.687 88.7287C143.597 88.0493 142.706 87.1758 142.012 85.9139C141.021 84.2639 140.625 82.6138 140.724 80.6726C140.724 78.7313 141.417 76.9842 142.606 75.14C143.795 73.3929 145.48 71.8399 147.561 70.5781C150.335 68.928 152.713 68.0545 154.695 67.8604L157.965 75.6253C155.587 74.2665 153.407 73.587 151.326 73.49C149.245 73.3929 147.462 73.7812 145.876 74.6547C144.489 75.4312 143.597 76.4989 143.3 77.8578H143.498Z" fill="#F7F8F6"/>
<path d="M201.405 233.76C212.579 233.76 221.637 224.702 221.637 213.528C221.637 202.354 212.579 193.296 201.405 193.296C190.231 193.296 181.173 202.354 181.173 213.528C181.173 224.702 190.231 233.76 201.405 233.76Z" fill="#F7F8F6"/>
<path d="M312.679 262.088C323.853 262.088 332.911 253.03 332.911 241.856C332.911 230.682 323.853 221.624 312.679 221.624C301.505 221.624 292.447 230.682 292.447 241.856C292.447 253.03 301.505 262.088 312.679 262.088Z" fill="#F7F8F6"/>
<path d="M334.935 325.784V286.936C334.935 285.306 333.683 283.963 332.045 283.867C328.191 283.675 324.241 283.579 320.387 283.1C305.261 281.085 291.098 274.946 282.331 262.189C273.852 249.815 271.926 234.18 271.636 219.601H264.218C264.411 230.44 263.929 241.278 264.218 252.022C264.796 273.891 268.168 300.461 285.896 315.425C298.517 326.072 315.57 328.853 331.756 328.853C333.49 328.853 334.839 327.415 334.839 325.784H334.935Z" fill="#F7F8F6"/>
<path d="M251.888 189.251C251.213 216.782 255.265 249.548 239.829 273.881C227.48 293.269 205.967 298.504 184.26 298.504C182.523 298.504 181.173 297.05 181.173 295.402V256.043C181.173 254.299 182.523 253.038 184.26 252.941C203.169 252.941 223.429 247.9 234.523 231.323C240.89 221.823 243.881 208.736 244.556 197.491C244.653 195.261 244.17 192.062 244.556 190.027C244.556 189.736 244.846 189.251 245.039 189.251H251.985H251.888Z" fill="#F7F8F6"/>
</svg>
