<svg width="660" height="143" viewBox="0 0 660 143" fill="none" xmlns="http://www.w3.org/2000/svg">
<path d="M24.5502 15.9942C21.0495 19.5663 19.3349 24.4243 19.3349 30.6397C19.3349 35.9978 21.1924 40.713 24.8359 44.6422C28.4795 48.643 35.0521 53.501 44.3395 59.2878L59.8423 69.0752C67.7723 73.8618 73.702 78.9342 77.7027 84.2923C81.7034 89.6504 83.6323 95.9373 83.6323 103.296C83.6323 111.226 81.7034 118.227 77.917 124.228C74.0592 130.229 69.0583 134.873 62.7 138.016C56.4131 141.231 49.6976 142.803 42.6249 142.803C32.123 142.803 23.2642 139.588 15.9772 133.158C8.97592 127.014 3.76068 118.87 0.188608 108.868C-0.097158 108.082 0.188608 107.225 0.903024 106.868L15.6914 98.2234C16.6202 97.6518 17.8347 98.2234 18.1204 99.2236C21.5496 110.94 25.9076 119.513 31.1942 124.943C36.7667 130.729 42.6963 133.658 48.9117 133.658C55.1271 133.658 59.9137 131.944 63.7001 128.443C67.4865 124.943 69.344 120.299 69.344 114.298C69.344 108.297 67.9866 103.581 65.3433 99.5093C62.6285 95.5086 57.4133 91.0792 49.6262 86.2212L29.9083 73.9333C24.6931 70.647 20.2637 67.5035 16.6202 64.3601C12.9766 61.2167 10.119 57.6446 8.04718 53.501C5.90393 49.4288 4.83231 44.7137 4.83231 39.4984C4.83231 32.5686 6.76123 26.0674 10.6905 20.0663C14.6198 14.0653 20.0494 9.27867 27.0506 5.70659C34.0519 2.20596 42.2677 0.419922 51.5551 0.419922C62.4856 0.419922 71.2729 1.70586 78.0599 4.3492C78.8457 4.63497 79.2744 5.42083 79.1315 6.27813L75.7738 31.497C75.5594 33.1401 73.4162 33.6402 72.5589 32.2114C68.3438 25.7102 63.6287 20.6379 58.342 17.0658C51.9837 12.7793 45.3397 10.5646 38.4098 10.5646C32.6231 10.5646 27.9794 12.3507 24.4787 15.8513L24.5502 15.9942Z" fill="#09282B"/>
<path d="M92.948 1.92383H182.893C183.822 1.92383 184.536 2.63825 184.536 3.56699L184.679 30.9291C184.679 32.7151 182.25 33.2152 181.536 31.5721C179.249 26.4283 177.035 22.3561 174.891 19.427C171.677 15.1405 167.676 12.14 162.889 10.4968C158.103 8.85366 151.173 8.0678 142.314 8.0678H134.027C124.954 8.0678 118.024 8.85366 113.237 10.4968C108.451 12.14 104.45 15.0691 101.235 19.427C99.0205 22.4276 96.7344 26.5712 94.3768 31.8578C93.6624 33.501 91.2334 32.9295 91.2334 31.1434L91.3763 3.56699C91.3763 2.63825 92.0907 1.92383 93.0194 1.92383H92.948ZM127.383 123.374C128.24 118.159 128.669 112.372 128.669 106.157V5.28159C128.669 4.35285 129.383 3.63844 130.312 3.63844H145.672C146.601 3.63844 147.315 4.35285 147.315 5.28159V106.157C147.315 111.944 147.601 117.088 148.172 121.445C148.887 127.089 150.244 132.519 152.244 137.806C152.602 138.877 151.887 139.949 150.816 139.949H125.168C124.097 139.949 123.311 138.877 123.668 137.806C125.382 132.805 126.597 127.947 127.383 123.374Z" fill="#09282B"/>
<path d="M196.202 123.517C197.06 118.374 197.488 112.587 197.488 106.228V35.7157C197.488 28.5001 197.06 22.4275 196.202 17.4266C195.345 12.7829 194.131 8.28213 192.559 3.99564C192.202 2.99546 192.916 1.92383 193.988 1.92383H215.849C216.706 1.92383 217.421 2.7097 217.349 3.56699C216.992 8.63934 216.706 13.6403 216.492 18.4983C216.277 23.8564 216.206 29.2859 216.206 34.6441V106.871C216.206 112.944 216.563 118.016 217.278 121.946C217.921 127.304 219.207 132.662 221.136 137.949C221.493 138.949 220.778 140.02 219.707 140.02H193.916C192.845 140.02 192.13 138.949 192.487 137.949C194.202 132.876 195.488 128.09 196.202 123.517ZM241.996 75.7229C236.567 73.6511 228.923 72.651 219.135 72.651H206.204C205.347 72.651 204.633 71.9365 204.633 71.0792V67.7929C204.633 66.9356 205.347 66.2212 206.204 66.2212H219.135C229.065 66.2212 236.71 65.1496 242.068 63.0063C246.497 61.2203 250.927 58.1483 255.142 53.7904C256.07 52.7902 257.785 53.5046 257.785 54.862V83.2243C257.785 84.5817 256.213 85.2961 255.213 84.3674C250.927 80.2238 246.497 77.3661 241.996 75.6515V75.7229ZM248.569 14.9262C241.711 10.5683 232.352 8.35358 220.421 8.35358H211.991C211.134 8.35358 210.419 7.63915 210.419 6.78185V3.49555C210.419 2.63825 211.134 1.92383 211.991 1.92383H266.215C267.072 1.92383 267.787 2.63825 267.787 3.49555L267.144 30.1432C267.144 31.6435 265.143 32.215 264.358 30.9291C259.642 23.8564 254.427 18.4983 248.641 14.8548L248.569 14.9262Z" fill="#09282B"/>
<path d="M492.641 142.627C498.204 142.627 502.714 138.117 502.714 132.554C502.714 126.99 498.204 122.48 492.641 122.48C487.077 122.48 482.567 126.99 482.567 132.554C482.567 138.117 487.077 142.627 492.641 142.627Z" fill="#09282B"/>
<path d="M503.144 1.88281L494.357 104.401H490.428L481.712 1.88281H503.144Z" fill="#09282B"/>
<path d="M279.076 123.476C279.934 118.332 280.362 112.546 280.362 106.187V35.6747C280.362 28.4591 279.934 22.3865 279.076 17.3856C278.362 12.8848 277.147 8.52687 275.504 4.16894C275.075 3.09732 275.861 1.88281 277.004 1.88281H298.508C299.508 1.88281 300.223 2.66867 300.151 3.66885C299.794 8.16967 299.508 13.0277 299.366 18.2429C299.151 24.1726 299.08 29.9593 299.08 35.6747V106.187C299.08 117.618 299.651 128.334 300.794 138.122C300.937 139.122 300.151 139.908 299.151 139.908H277.004C275.861 139.908 275.075 138.765 275.433 137.693C277.147 132.692 278.362 127.977 279.076 123.476ZM326.513 74.8961C321.227 72.8957 313.725 71.8955 304.081 71.8955H291.007C289.65 71.8955 288.578 70.8239 288.578 69.4665V67.8233C288.578 66.466 289.65 65.3943 291.007 65.3943H304.081C313.868 65.3943 321.37 64.3941 326.728 62.3223C331.086 60.6792 335.301 57.6786 339.516 53.3921C340.516 52.3205 342.373 53.0349 342.373 54.5352V82.1831C342.373 83.6119 340.659 84.3978 339.587 83.3976C335.229 79.3969 330.943 76.5392 326.513 74.8961ZM341.516 20.029C337.658 16.314 332.8 13.3849 326.871 11.456C320.941 9.45562 313.297 8.45542 303.938 8.45542H295.794C294.436 8.45542 293.365 7.3838 293.365 6.02641V4.38326C293.365 3.02587 294.436 1.95424 295.794 1.95424H351.947C352.875 1.95424 353.661 2.74011 353.59 3.66885L352.947 29.745C352.947 31.3881 350.804 31.9597 349.875 30.6023C347.16 26.3873 344.374 22.958 341.516 20.1718V20.029ZM293.293 135.764C293.293 134.407 294.365 133.335 295.722 133.335H303.866C313.225 133.335 320.727 132.406 326.513 130.478C332.3 128.549 337.015 125.762 340.73 121.976C343.659 119.047 346.803 115.118 350.161 110.188C351.089 108.831 353.161 109.474 353.161 111.117L353.518 138.265C353.518 139.193 352.804 139.979 351.875 139.979H295.722C294.365 139.979 293.293 138.908 293.293 137.55V135.907V135.764Z" fill="#09282B"/>
<path d="M366.562 15.0281C364.847 11.1702 362.847 7.66957 360.632 4.52614C359.847 3.38308 360.632 1.88281 361.918 1.88281H391.852C392.924 1.88281 393.71 2.88299 393.424 3.88317C393.138 5.09767 392.853 6.52651 392.638 8.2411C392.281 10.9559 392.138 13.8136 392.138 16.957C392.138 23.0295 392.853 28.6019 394.281 33.7457L420.286 121.262C420.786 122.833 419.572 124.405 417.929 124.405C416.285 124.405 415.142 122.833 415.571 121.262L441.576 33.7457C442.433 31.031 443.076 28.1733 443.505 25.1727C443.933 22.1008 444.148 19.1717 444.148 16.3854C444.148 13.242 443.933 10.4558 443.505 8.02679C443.29 6.59796 442.933 5.38343 442.504 4.24037C442.076 3.0973 442.862 1.95424 444.005 1.95424H462.937C464.294 1.95424 465.08 3.52596 464.223 4.66903C461.722 7.95534 459.579 11.5274 457.65 15.4567C455.221 20.4576 452.792 26.9588 450.22 34.8888L417.428 138.836C417.214 139.551 416.571 139.979 415.857 139.979H408.07C407.355 139.979 406.712 139.479 406.498 138.836L373.706 34.8888C370.991 26.673 368.562 20.1004 366.348 15.1709L366.562 15.0281Z" fill="#09282B"/>
<path d="M530.102 57.4869C529.602 56.3438 528.959 55.3436 528.244 54.4863H536.388C536.246 54.8435 536.174 55.3436 536.103 55.9866C536.031 56.6296 535.96 57.2725 535.96 57.9869C535.96 59.4158 536.103 60.7017 536.46 61.8448L542.675 82.7057H541.175L547.39 61.8448C547.605 61.2018 547.748 60.5589 547.819 59.8444C547.891 59.13 547.962 58.487 547.962 57.8441C547.962 57.1296 547.962 56.4867 547.819 55.9152C547.748 55.3436 547.533 54.915 547.319 54.4863H553.106C552.32 55.4151 551.677 56.4153 551.105 57.5583C550.534 58.7014 549.962 60.2016 549.391 62.0591L541.747 86.2064H539.389L531.745 62.0591C531.102 60.2016 530.53 58.6299 530.03 57.4869H530.102Z" fill="#09282B"/>
<path d="M553.032 82.5627C553.175 81.4197 553.246 80.1337 553.246 78.562V71.4893C553.246 69.6318 553.175 67.9886 553.032 66.7741C552.889 65.5596 552.603 64.4166 552.175 63.4878C553.961 62.8449 555.747 62.2019 557.461 61.416V78.562C557.461 80.0623 557.461 81.3482 557.676 82.4913C557.962 83.9915 558.247 85.2061 558.676 86.2777H552.246C552.675 84.9917 553.032 83.7772 553.175 82.6342L553.032 82.5627Z" fill="#09282B"/>
<path d="M562.321 77.9913C563.107 77.134 563.964 76.4196 564.893 75.9195C565.822 75.4194 567.036 74.9193 568.322 74.4906C568.322 74.4906 568.537 74.4192 568.822 74.2763C569.894 73.9191 570.751 73.5619 571.537 73.2047C572.323 72.8475 572.966 72.4903 573.395 72.2045C573.823 71.9187 574.109 71.633 574.109 71.4187V70.8471C574.109 68.561 573.823 66.6321 573.18 65.1318C572.537 63.6315 571.323 62.8457 569.537 62.8457C568.537 62.8457 567.751 63.1314 567.108 63.703C566.536 64.2745 566.251 65.1318 566.251 66.2749C566.251 67.5608 566.608 69.0611 567.251 70.7042L562.107 70.4185V68.9182C562.107 67.6323 562.393 66.4178 562.964 65.3461C563.536 64.2031 564.465 63.2743 565.679 62.5599C566.894 61.8455 568.537 61.4883 570.466 61.4883C573.037 61.4883 574.895 62.0598 576.038 63.3457C577.181 64.6317 577.824 66.132 578.11 67.9895C578.11 68.7039 578.181 69.5612 578.181 70.5614V78.7771C578.181 80.5632 578.253 81.992 578.396 83.0636C578.61 84.2067 578.967 85.2783 579.396 86.4214H574.824C574.824 86.4214 574.395 85.5641 574.252 84.9926C574.181 84.6353 574.109 84.3496 574.038 83.9924C573.966 83.6351 573.966 83.3494 573.895 83.0636V76.491C573.895 76.491 573.895 75.9195 573.823 75.848C573.823 75.7051 573.609 75.6337 573.323 75.5623C573.109 75.5623 572.609 75.4908 571.966 75.4908C569.465 75.4908 567.679 75.848 566.679 76.5625C565.679 77.2769 565.107 78.4199 565.107 79.9916C565.107 81.1347 565.465 82.0635 566.108 82.7064C566.751 83.3494 567.751 83.7066 569.037 83.7066C571.037 83.7066 572.823 82.9207 574.395 81.4205L574.252 82.4207C573.466 83.8495 572.466 84.9211 571.109 85.6355C569.751 86.4214 568.322 86.7786 566.822 86.7786C565.036 86.7786 563.679 86.2785 562.607 85.3498C561.535 84.421 560.964 83.1351 560.964 81.4919C560.964 80.1345 561.321 79.0629 562.107 78.2056L562.321 77.9913Z" fill="#09282B"/>
<path d="M585.181 95.0669C583.538 94.5669 581.966 93.8524 580.466 92.7094L583.181 88.28C584.609 89.9946 586.11 91.2091 587.681 91.995C589.253 92.7808 590.896 93.0666 592.754 93.0666C594.325 93.0666 595.611 92.7808 596.54 92.0664C597.469 91.4234 597.969 90.5661 597.969 89.4231C597.969 88.4229 597.612 87.637 596.897 87.1369C596.183 86.6368 594.897 86.3511 593.111 86.3511H587.539C585.824 86.3511 584.467 86.1367 583.609 85.7081C582.752 85.2794 582.252 84.4936 582.252 83.3505C582.252 82.136 582.823 80.9215 583.895 79.707C584.967 78.4925 586.324 77.3494 587.967 76.3492L588.539 77.4923C587.396 78.1353 586.61 78.7783 586.038 79.4212C585.467 80.0642 585.252 80.7072 585.252 81.2787C585.252 81.7788 585.538 82.136 586.038 82.2789C586.538 82.4218 587.467 82.4932 588.824 82.4932H593.754C595.326 82.4932 596.612 82.5647 597.54 82.7076C598.469 82.8504 599.255 83.2791 599.826 83.8506C600.398 84.4222 600.684 85.4223 600.684 86.7083C600.684 88.3514 600.255 89.8517 599.326 91.2091C598.398 92.5665 597.183 93.6381 595.611 94.424C594.04 95.2098 592.325 95.567 590.539 95.567C588.753 95.567 586.967 95.3527 585.324 94.8526L585.181 95.0669ZM586.038 77.6352C584.681 76.9208 583.681 75.992 582.895 74.7061C582.109 73.4201 581.752 71.9913 581.752 70.3481C581.752 68.705 582.18 67.1333 582.966 65.7759C583.824 64.4185 584.895 63.2754 586.324 62.4896C587.753 61.7037 589.325 61.2751 591.111 61.2751C592.897 61.2751 594.325 61.6323 595.611 62.4182C596.969 63.1326 597.969 64.2042 598.683 65.4187C599.398 66.7046 599.755 68.062 599.755 69.5623C599.755 71.2769 599.326 72.7772 598.541 74.206C597.755 75.5634 596.612 76.7064 595.183 77.4923C593.754 78.2782 592.182 78.7068 590.396 78.7068C588.753 78.7068 587.253 78.3496 585.967 77.6352H586.038ZM593.54 76.5636C594.183 76.1349 594.683 75.4205 594.968 74.5632C595.254 73.7059 595.469 72.6343 595.469 71.3484C595.469 69.0622 595.04 67.1333 594.254 65.4187C593.468 63.7041 592.111 62.9183 590.253 62.9183C588.967 62.9183 587.967 63.4183 587.253 64.3471C586.538 65.2758 586.11 66.7761 586.11 68.8479C586.11 70.9197 586.467 72.9201 587.253 74.6347C588.039 76.3493 589.325 77.2066 591.253 77.2066C592.182 77.2066 592.968 76.9922 593.611 76.4921L593.54 76.5636ZM598.183 58.1317C599.112 57.2744 600.255 56.8457 601.541 56.8457C602.113 56.8457 602.613 56.9172 602.898 57.06L602.255 62.6325C601.97 62.2038 601.541 61.7752 601.041 61.4894C600.541 61.2036 600.041 61.0608 599.469 61.0608C598.183 61.0608 597.326 61.918 596.754 63.7041L595.897 62.9897C596.469 60.6321 597.183 58.989 598.112 58.1317H598.183Z" fill="#09282B"/>
<path d="M618.618 83.8462C617.975 84.7749 617.117 85.4893 616.046 85.9894C614.974 86.561 613.688 86.7753 612.259 86.7753C610.331 86.7753 608.545 86.2752 607.044 85.2036C605.544 84.132 604.401 82.7031 603.544 80.7742C602.686 78.9167 602.329 76.702 602.329 74.2016C602.329 71.9154 602.686 69.7722 603.401 67.7719C604.115 65.7715 605.187 64.1998 606.687 62.9853C608.187 61.7708 609.973 61.1992 612.117 61.1992C614.26 61.1992 616.046 61.7708 617.332 62.9138C618.618 64.0569 619.475 65.6286 619.832 67.5575C619.975 68.4863 620.047 69.3436 620.047 70.1294V73.6301H606.187V72.487H613.831C614.403 72.487 614.76 72.487 615.046 72.3441C615.26 72.2012 615.474 71.9869 615.546 71.7011C615.617 71.4154 615.689 70.8438 615.689 70.2009C615.689 69.6293 615.689 68.9149 615.617 68.0576C615.403 66.343 614.974 65.0571 614.26 64.1283C613.545 63.271 612.617 62.7709 611.545 62.7709C610.473 62.7709 609.616 63.1281 608.902 63.914C608.187 64.6284 607.616 65.7715 607.187 67.2003C606.758 68.6291 606.544 70.3437 606.544 72.3441C606.544 74.5588 606.83 76.4163 607.33 77.9165C607.83 79.4168 608.687 80.7027 609.902 81.56C611.045 82.4173 612.545 82.846 614.403 82.846C615.474 82.846 616.403 82.7031 617.189 82.3459C617.975 81.9887 618.832 81.4886 619.761 80.7742C619.618 81.9173 619.189 82.9175 618.546 83.8462H618.618Z" fill="#09282B"/>
<path d="M623.762 82.565C623.904 81.4219 623.976 80.1359 623.976 78.5642V71.4915C623.976 69.4911 623.904 67.9194 623.762 66.7049C623.619 65.4904 623.333 64.4188 622.904 63.5615L624.19 62.9185C625.476 62.347 626.548 61.7755 627.405 61.2754C627.619 61.7755 627.762 62.4899 627.977 63.3472C628.12 64.2045 628.191 65.0618 628.191 65.8476V78.4928C628.191 80.0645 628.262 81.4219 628.405 82.565C628.548 83.708 628.905 84.9225 629.334 86.2085H622.904C623.333 84.9225 623.69 83.708 623.833 82.565H623.762ZM637.05 85.0654C636.907 84.1367 636.764 83.1365 636.693 82.0649C636.621 80.9933 636.621 79.8502 636.621 78.6357V69.2054C636.621 69.2054 636.621 68.4195 636.55 67.848C636.407 66.7049 636.05 65.9191 635.549 65.3476C634.978 64.776 634.192 64.4902 633.192 64.4902C632.335 64.4902 631.477 64.7046 630.549 65.2047C629.62 65.7048 628.691 66.5621 627.834 67.848L627.334 67.6337C628.334 65.419 629.548 63.8473 630.906 62.9185C632.263 61.9898 633.763 61.4897 635.335 61.4897C636.907 61.4897 638.193 61.9898 639.122 62.9185C640.05 63.8473 640.622 65.3475 640.765 67.3479C640.765 67.5622 640.765 67.9194 640.765 68.3481V78.5642C640.765 80.0645 640.836 81.4219 640.979 82.4935C641.193 83.708 641.551 84.994 641.979 86.2799H637.193C637.193 86.2799 637.05 85.6369 636.978 85.1368L637.05 85.0654Z" fill="#09282B"/>
<path d="M648.336 64.2023C647.694 64.7023 647.408 65.4167 647.408 66.274C647.408 67.4171 647.765 68.3458 648.408 69.0603C649.051 69.7747 650.265 70.5606 651.837 71.3464L654.981 72.9896C656.338 73.704 657.41 74.4898 658.267 75.4186C659.124 76.3473 659.481 77.7047 659.481 79.3479C659.481 80.8481 659.124 82.2055 658.338 83.2771C657.552 84.3488 656.624 85.2061 655.409 85.849C654.195 86.4206 652.98 86.7063 651.623 86.7063C649.694 86.7063 647.979 86.2062 646.479 85.1346C644.979 84.063 643.836 82.7056 643.05 80.9196L646.979 78.2762C647.551 80.348 648.336 81.9912 649.408 83.0628C650.48 84.1344 651.766 84.7774 653.195 84.7774C654.195 84.7774 655.052 84.4916 655.695 83.9201C656.338 83.3486 656.695 82.4913 656.695 81.3482C656.695 80.348 656.409 79.4907 655.766 78.7763C655.123 78.0619 654.266 77.4189 653.052 76.776L648.908 74.7756C647.622 74.1326 646.479 73.2753 645.479 72.3466C644.479 71.4178 643.979 70.1319 643.979 68.5602C643.979 67.2028 644.336 65.9883 645.05 64.9167C645.765 63.845 646.836 62.9877 648.194 62.3448C649.551 61.7018 651.337 61.416 653.48 61.416C654.338 61.416 655.195 61.4875 656.124 61.6304C657.052 61.7732 657.838 61.9876 658.481 62.2733L657.695 68.7745C656.767 66.9885 655.695 65.6311 654.552 64.7738C653.409 63.9165 652.123 63.4878 650.623 63.4878C649.551 63.4878 648.765 63.7736 648.122 64.2737L648.336 64.2023Z" fill="#09282B"/>
</svg>
